<?xml version="1.0" encoding="utf-8"?>
<!-- Generator: Adobe Illustrator 26.1.0, SVG Export Plug-In . SVG Version: 6.00 Build 0)  -->
<svg version="1.1" id="Ebene_1" xmlns="http://www.w3.org/2000/svg" xmlns:xlink="http://www.w3.org/1999/xlink" x="0px" y="0px"
	 viewBox="0 0 2101.5 1399.2" style="enable-background:new 0 0 2101.5 1399.2;" xml:space="preserve">
<style type="text/css">
	.st0{fill:none;stroke:#FFFFFF;stroke-width:2;stroke-linecap:round;stroke-miterlimit:20;}
	.st1{fill:none;stroke:#D7FF00;stroke-width:2;stroke-linecap:round;stroke-miterlimit:20;}
	.st2{fill:none;stroke:#B700FF;stroke-width:2;stroke-linecap:round;stroke-miterlimit:20;}
	.st3{fill:none;stroke:#70FF00;stroke-width:2;stroke-linecap:round;stroke-miterlimit:20;}
	.st4{fill:none;stroke:#0005FF;stroke-width:2;stroke-linecap:round;stroke-miterlimit:20;}
	.st5{fill:none;stroke:#FF00B6;stroke-width:2;stroke-linecap:round;stroke-miterlimit:20;}
	.st6{fill:none;stroke:#0400FF;stroke-width:2;stroke-linecap:round;stroke-miterlimit:20;}
	.st7{fill:none;stroke:#66FF00;stroke-width:2;stroke-linecap:round;stroke-miterlimit:20;}
	.st8{fill:none;stroke:#FFD600;stroke-width:2;stroke-linecap:round;stroke-miterlimit:20;}
	.st9{fill:none;stroke:#00E1FF;stroke-width:2;stroke-linecap:round;stroke-miterlimit:20;}
	.st10{fill:none;stroke:#FF6100;stroke-width:2;stroke-linecap:round;stroke-miterlimit:20;}
	.st11{fill:none;stroke:#FF5900;stroke-width:2;stroke-linecap:round;stroke-miterlimit:20;}
	.st12{fill:none;stroke:#46FF00;stroke-width:2;stroke-linecap:round;stroke-miterlimit:20;}
	.st13{fill:none;stroke:#55FF00;stroke-width:2;stroke-linecap:round;stroke-miterlimit:20;}
	.st14{fill:none;stroke:#FF0090;stroke-width:2;stroke-linecap:round;stroke-miterlimit:20;}
	.st15{fill:none;stroke:#6900FF;stroke-width:2;stroke-linecap:round;stroke-miterlimit:20;}
	.st16{fill:none;stroke:#00D6FF;stroke-width:2;stroke-linecap:round;stroke-miterlimit:20;}
	.st17{fill:none;stroke:#FF00BB;stroke-width:2;stroke-linecap:round;stroke-miterlimit:20;}
	.st18{fill:none;stroke:#009AFF;stroke-width:2;stroke-linecap:round;stroke-miterlimit:20;}
	.st19{fill:none;stroke:#0004FF;stroke-width:2;stroke-linecap:round;stroke-miterlimit:20;}
	.st20{fill:none;stroke:#0053FF;stroke-width:2;stroke-linecap:round;stroke-miterlimit:20;}
	.st21{fill:none;stroke:#FF7C00;stroke-width:2;stroke-linecap:round;stroke-miterlimit:20;}
	.st22{fill:none;stroke:#C3FF00;stroke-width:2;stroke-linecap:round;stroke-miterlimit:20;}
	.st23{fill:none;stroke:#007BFF;stroke-width:2;stroke-linecap:round;stroke-miterlimit:20;}
	.st24{fill:none;stroke:#FF00E4;stroke-width:2;stroke-linecap:round;stroke-miterlimit:20;}
</style>
<g>
	<g transform="scale(2,2)">
		<rect y="0" width="1050" height="700"/>
	</g>
	<g transform="matrix(2,0,0,2,0,0) translate(525,350)">
		<path class="st0" d="M125.3,102C145.2,51.9-191,160.8,8.8,177.6"/>
		<path class="st0" d="M8.8,177.6C208.7,194.5,153.2,132-2.5,97"/>
		<path class="st0" d="M-2.5,97c-155.7-35,154.6-172.4,32-163.8"/>
		<path class="st0" d="M29.6-66.8c-122.6,8.6,132.9-81,22.4-4.5"/>
		<path class="st0" d="M52-71.3C-58.5,5.2,105.3,152.1,125.3,102"/>
		<path class="st1" d="M106.3,152.1l-0.7,1l-1.1-0.4v-1.2l1.1-0.4L106.3,152.1z"/>
		<path class="st1" d="M146.2,51.9l-0.7,1l-1.1-0.4v-1.2l1.1-0.4L146.2,51.9z"/>
		<path class="st1" d="M-190,160.8l-0.7,1l-1.1-0.4v-1.2l1.1-0.4L-190,160.8z"/>
		<path class="st1" d="M209.7,194.5l-0.7,1l-1.1-0.4v-1.2l1.1-0.4L209.7,194.5z"/>
		<path class="st1" d="M154.2,132l-0.7,1l-1.1-0.4v-1.2l1.1-0.4L154.2,132z"/>
		<path class="st1" d="M-157.1,62l-0.7,1l-1.1-0.4v-1.2l1.1-0.4L-157.1,62z"/>
		<path class="st1" d="M153.2-75.4l-0.7,1l-1.1-0.4V-76l1.1-0.4L153.2-75.4z"/>
		<path class="st1" d="M-92-58.2l-0.7,1l-1.1-0.4v-1.2l1.1-0.4L-92-58.2z"/>
		<path class="st1" d="M163.5-147.8l-0.7,1l-1.1-0.4v-1.2l1.1-0.4L163.5-147.8z"/>
		<path class="st1" d="M-57.5,5.2l-0.7,1l-1.1-0.4V4.6l1.1-0.4L-57.5,5.2z"/>
		<path class="st0" d="M125.3,102c14.9-37.6-266.3,63-116.4,75.6"/>
		<path class="st0" d="M8.8,177.6C158.7,190.3,114.3,123.2-2.5,97"/>
		<path class="st0" d="M-2.5,97c-116.8-26.3,124-170.3,32-163.8"/>
		<path class="st0" d="M29.6-66.8c-92,6.5,105.3-61.9,22.4-4.5"/>
		<path class="st0" d="M52-71.3c-82.9,57.4,58.3,210.9,73.3,173.3"/>
		<path class="st2" d="M111.9,139.6l-1.1,1.5l-1.8-0.6v-1.9l1.8-0.6L111.9,139.6z"/>
		<path class="st2" d="M141.8,64.4l-1.1,1.5l-1.8-0.6v-1.9l1.8-0.6L141.8,64.4z"/>
		<path class="st2" d="M-139.5,165l-1.1,1.5l-1.8-0.6V164l1.8-0.6L-139.5,165z"/>
		<path class="st2" d="M160.3,190.3l-1.1,1.5l-1.8-0.6v-1.9l1.8-0.6L160.3,190.3z"/>
		<path class="st2" d="M115.9,123.2l-1.1,1.5l-1.8-0.6v-1.9l1.8-0.6L115.9,123.2z"/>
		<path class="st2" d="M-117.6,70.7l-1.1,1.5l-1.8-0.6v-1.9l1.8-0.6L-117.6,70.7z"/>
		<path class="st2" d="M123.1-73.3l-1.1,1.5l-1.8-0.6v-1.9l1.8-0.6L123.1-73.3z"/>
		<path class="st2" d="M-60.8-60.4l-1.1,1.5l-1.8-0.6v-1.9l1.8-0.6L-60.8-60.4z"/>
		<path class="st2" d="M136.5-128.7l-1.1,1.5l-1.8-0.6v-1.9l1.8-0.6L136.5-128.7z"/>
		<path class="st2" d="M-29.3-13.9l-1.1,1.5l-1.8-0.6v-1.9l1.8-0.6L-29.3-13.9z"/>
		<path class="st0" d="M125.3,102c11.2-28.2-228.8,66.1-116.4,75.6"/>
		<path class="st0" d="M8.8,177.6c112.4,9.5,76.3-60.9-11.3-80.6"/>
		<path class="st0" d="M-2.5,97C-90,77.3,98.5-71.7,29.6-66.8"/>
		<path class="st0" d="M29.6-66.8c-69,4.8,84.6-47.5,22.4-4.5"/>
		<path class="st0" d="M52-71.3c-62.2,43,62,201.5,73.3,173.3"/>
		<path class="st3" d="M116.3,130.2l-1.5,2.1l-2.5-0.8v-2.6l2.5-0.8L116.3,130.2z"/>
		<path class="st3" d="M138.7,73.8l-1.5,2.1l-2.5-0.8v-2.6l2.5-0.8L138.7,73.8z"/>
		<path class="st3" d="M-101.4,168.1l-1.5,2.1l-2.5-0.8v-2.6l2.5-0.8L-101.4,168.1z"/>
		<path class="st3" d="M123.5,187.1l-1.5,2.1l-2.5-0.8v-2.6l2.5-0.8L123.5,187.1z"/>
		<path class="st3" d="M87.3,116.7l-1.5,2.1l-2.5-0.8v-2.6l2.5-0.8L87.3,116.7z"/>
		<path class="st3" d="M-87.8,77.3l-1.5,2.1l-2.5-0.8V76l2.5-0.8L-87.8,77.3z"/>
		<path class="st3" d="M100.7-71.7l-1.5,2.1l-2.5-0.8V-73l2.5-0.8L100.7-71.7z"/>
		<path class="st3" d="M-37.2-62l-1.5,2.1l-2.5-0.8v-2.6l2.5-0.8L-37.2-62z"/>
		<path class="st3" d="M116.4-114.3l-1.5,2.1l-2.5-0.8v-2.6l2.5-0.8L116.4-114.3z"/>
		<path class="st3" d="M-8-28.3l-1.5,2.1l-2.5-0.8v-2.6l2.5-0.8L-8-28.3z"/>
		<path class="st0" d="M125.3,102c8.4-21.1-200.7,68.5-116.4,75.6"/>
		<path class="st0" d="M8.8,177.6c84.3,7.1,54.4-65.9-11.3-80.6"/>
		<path class="st0" d="M-2.5,97c-65.7-14.8,83.8-167.5,32-163.8"/>
		<path class="st0" d="M29.6-66.8c-51.7,3.6,69.1-36.7,22.4-4.5"/>
		<path class="st0" d="M52-71.3C5.4-39,116.9,123.1,125.3,102"/>
		<path class="st4" d="M119.7,123.1l-1.9,2.7l-3.1-1v-3.3l3.1-1L119.7,123.1z"/>
		<path class="st4" d="M136.5,80.8l-1.9,2.7l-3.1-1v-3.3l3.1-1L136.5,80.8z"/>
		<path class="st4" d="M-72.7,170.5l-1.9,2.7l-3.1-1v-3.3l3.1-1L-72.7,170.5z"/>
		<path class="st4" d="M96,184.7l-1.9,2.7l-3.1-1v-3.3l3.1-1L96,184.7z"/>
		<path class="st4" d="M66,111.8l-1.9,2.7l-3.1-1v-3.3l3.1-1L66,111.8z"/>
		<path class="st4" d="M-65.3,82.2l-1.9,2.7l-3.1-1v-3.3l3.1-1L-65.3,82.2z"/>
		<path class="st4" d="M84.1-70.5l-1.9,2.7l-3.1-1v-3.3l3.1-1L84.1-70.5z"/>
		<path class="st4" d="M-19.4-63.2l-1.9,2.7l-3.1-1v-3.3l3.1-1L-19.4-63.2z"/>
		<path class="st4" d="M101.4-103.6l-1.9,2.7l-3.1-1v-3.3l3.1-1L101.4-103.6z"/>
		<path class="st4" d="M8.2-39l-1.9,2.7l-3.1-1v-3.3l3.1-1L8.2-39z"/>
		<path class="st0" d="M125.3,102c6.3-15.9-179.7,70.3-116.4,75.6"/>
		<path class="st0" d="M8.8,177.6c63.2,5.3,38-69.6-11.3-80.6"/>
		<path class="st0" d="M-2.5,97c-49.3-11.1,70.8-166.5,32-163.8"/>
		<path class="st0" d="M29.6-66.8C-9.2-64.1,87-95.5,52-71.3"/>
		<path class="st0" d="M52-71.3C17-47.1,119,117.8,125.3,102"/>
		<path class="st5" d="M122.4,117.8l-2.3,3.2l-3.8-1.2v-4l3.8-1.2L122.4,117.8z"/>
		<path class="st5" d="M135,86.1l-2.3,3.2l-3.8-1.2v-4l3.8-1.2L135,86.1z"/>
		<path class="st5" d="M-51,172.3l-2.3,3.2l-3.8-1.2v-4l3.8-1.2L-51,172.3z"/>
		<path class="st5" d="M75.5,182.9l-2.3,3.2l-3.8-1.2v-4l3.8-1.2L75.5,182.9z"/>
		<path class="st5" d="M50.2,108.1l-2.3,3.2l-3.8-1.2v-4l3.8-1.2L50.2,108.1z"/>
		<path class="st5" d="M-48.3,85.9l-2.3,3.2l-3.8-1.2v-4l3.8-1.2L-48.3,85.9z"/>
		<path class="st5" d="M71.8-69.6l-2.3,3.2l-3.8-1.2v-4l3.8-1.2L71.8-69.6z"/>
		<path class="st5" d="M-5.8-64.1l-2.3,3.2l-3.8-1.2v-4l3.8-1.2L-5.8-64.1z"/>
		<path class="st5" d="M90.4-95.5L88-92.3l-3.8-1.2v-4l3.8-1.2L90.4-95.5z"/>
		<path class="st5" d="M20.4-47.1l-2.3,3.2l-3.8-1.2v-4l3.8-1.2L20.4-47.1z"/>
		<path class="st0" d="M125.3,102C130,90.1-38.6,173.6,8.8,177.6"/>
		<path class="st0" d="M8.8,177.6c47.4,4,25.6-72.3-11.3-80.6"/>
		<path class="st0" d="M-2.5,97c-36.9-8.3,61.1-165.9,32-163.8"/>
		<path class="st0" d="M29.6-66.8c-29.1,2,48.7-22.6,22.4-4.5"/>
		<path class="st0" d="M52-71.3C25.8-53.1,120.5,113.9,125.3,102"/>
		<path class="st6" d="M124.5,113.9l-2.8,3.8l-4.5-1.5v-4.7l4.5-1.5L124.5,113.9z"/>
		<path class="st6" d="M134,90.1l-2.8,3.8l-4.5-1.5v-4.7l4.5-1.5L134,90.1z"/>
		<path class="st6" d="M-34.6,173.6l-2.8,3.8l-4.5-1.5v-4.7l4.5-1.5L-34.6,173.6z"/>
		<path class="st6" d="M60.3,181.6l-2.8,3.8L53,184v-4.7l4.5-1.5L60.3,181.6z"/>
		<path class="st6" d="M38.5,105.3l-2.8,3.8l-4.5-1.5v-4.7l4.5-1.5L38.5,105.3z"/>
		<path class="st6" d="M-35.4,88.7l-2.8,3.8l-4.5-1.5v-4.7l4.5-1.5L-35.4,88.7z"/>
		<path class="st6" d="M62.7-68.9l-2.8,3.8l-4.5-1.5v-4.7l4.5-1.5L62.7-68.9z"/>
		<path class="st6" d="M4.5-64.8L1.7-61l-4.5-1.5v-4.7l4.5-1.5L4.5-64.8z"/>
		<path class="st6" d="M82.2-89.5l-2.8,3.8L75-87.1v-4.7l4.5-1.5L82.2-89.5z"/>
		<path class="st6" d="M29.8-53.1L27-49.3l-4.5-1.5v-4.7L27-57L29.8-53.1z"/>
		<path class="st0" d="M125.3,102c3.5-8.9-152,72.6-116.4,75.6"/>
		<path class="st0" d="M8.8,177.6c35.6,3,16.4-74.4-11.3-80.6"/>
		<path class="st0" d="M-2.5,97c-27.7-6.2,53.9-165.4,32-163.8"/>
		<path class="st0" d="M29.6-66.8C7.7-65.3,71.7-84.9,52-71.3"/>
		<path class="st0" d="M52-71.3C32.3-57.7,121.7,110.9,125.3,102"/>
		<path class="st7" d="M126.3,110.9l-3.2,4.4l-5.1-1.7v-5.4l5.1-1.7L126.3,110.9z"/>
		<path class="st7" d="M133.4,93.1l-3.2,4.4l-5.1-1.7v-5.4l5.1-1.7L133.4,93.1z"/>
		<path class="st7" d="M-22.1,174.6l-3.2,4.4l-5.1-1.7v-5.4l5.1-1.7L-22.1,174.6z"/>
		<path class="st7" d="M49,180.6l-3.2,4.4l-5.1-1.7v-5.4l5.1-1.7L49,180.6z"/>
		<path class="st7" d="M29.8,103.2l-3.2,4.4l-5.1-1.7v-5.4l5.1-1.7L29.8,103.2z"/>
		<path class="st7" d="M-25.6,90.7l-3.2,4.4l-5.1-1.7V88l5.1-1.7L-25.6,90.7z"/>
		<path class="st7" d="M56-68.4L52.8-64l-5.1-1.7v-5.4l5.1-1.7L56-68.4z"/>
		<path class="st7" d="M12.3-65.3l-3.2,4.4L4-62.6V-68l5.1-1.7L12.3-65.3z"/>
		<path class="st7" d="M76.3-84.9l-3.2,4.4L68-82.2v-5.4l5.1-1.7L76.3-84.9z"/>
		<path class="st7" d="M36.9-57.7l-3.2,4.4L28.6-55v-5.4l5.1-1.7L36.9-57.7z"/>
		<path class="st0" d="M125.3,102c2.7-6.7-143.1,73.4-116.4,75.6"/>
		<path class="st0" d="M8.8,177.6c26.7,2.3,9.5-76-11.3-80.6"/>
		<path class="st0" d="M-2.5,97c-20.8-4.7,48.4-165,32-163.8"/>
		<path class="st0" d="M29.6-66.8C13.2-65.7,66.8-81.5,52-71.3"/>
		<path class="st0" d="M52-71.3c-14.8,10.2,70.6,180,73.3,173.3"/>
		<path class="st8" d="M127.8,108.7l-3.6,4.9l-5.8-1.9v-6.1l5.8-1.9L127.8,108.7z"/>
		<path class="st8" d="M133.1,95.3l-3.6,4.9l-5.8-1.9v-6.1l5.8-1.9L133.1,95.3z"/>
		<path class="st8" d="M-12.6,175.4l-3.6,4.9l-5.8-1.9v-6.1l5.8-1.9L-12.6,175.4z"/>
		<path class="st8" d="M40.7,179.9l-3.6,4.9l-5.8-1.9v-6.1l5.8-1.9L40.7,179.9z"/>
		<path class="st8" d="M23.5,101.7l-3.6,4.9l-5.8-1.9v-6.1l5.8-1.9L23.5,101.7z"/>
		<path class="st8" d="M-18,92.3l-3.6,4.9l-5.8-1.9v-6.1l5.8-1.9L-18,92.3z"/>
		<path class="st8" d="M51.1-68L47.5-63l-5.8-1.9V-71l5.8-1.9L51.1-68z"/>
		<path class="st8" d="M18.4-65.7l-3.6,4.9L9-62.6v-6.1l5.8-1.9L18.4-65.7z"/>
		<path class="st8" d="M72-81.5l-3.6,4.9l-5.8-1.9v-6.1l5.8-1.9L72-81.5z"/>
		<path class="st8" d="M42.5-61.1l-3.6,4.9L33-58v-6.1l5.8-1.9L42.5-61.1z"/>
		<path class="st0" d="M125.3,102c2-5-136.4,73.9-116.4,75.6"/>
		<path class="st0" d="M8.8,177.6c20,1.7,4.3-77.1-11.3-80.6"/>
		<path class="st0" d="M-2.5,97c-15.6-3.5,44.3-164.7,32-163.8"/>
		<path class="st0" d="M29.6-66.8C17.3-66,63.1-79,52-71.3"/>
		<path class="st0" d="M52-71.3C40.9-63.6,123.3,107,125.3,102"/>
		<path class="st9" d="M129.1,107l-4,5.5l-6.5-2.1v-6.8l6.5-2.1L129.1,107z"/>
		<path class="st9" d="M133,97l-4,5.5l-6.5-2.1v-6.8l6.5-2.1L133,97z"/>
		<path class="st9" d="M-5.4,175.9l-4,5.5l-6.5-2.1v-6.8l6.5-2.1L-5.4,175.9z"/>
		<path class="st9" d="M34.6,179.3l-4,5.5l-6.5-2.1v-6.8l6.5-2.1L34.6,179.3z"/>
		<path class="st9" d="M18.9,100.5l-4,5.5l-6.5-2.1v-6.8l6.5-2.1L18.9,100.5z"/>
		<path class="st9" d="M-12.3,93.5l-4,5.5l-6.5-2.1v-6.8l6.5-2.1L-12.3,93.5z"/>
		<path class="st9" d="M47.6-67.7l-4,5.5l-6.5-2.1v-6.8l6.5-2.1L47.6-67.7z"/>
		<path class="st9" d="M23.1-66l-4,5.5l-6.5-2.1v-6.8l6.5-2.1L23.1-66z"/>
		<path class="st9" d="M68.9-79l-4,5.5l-6.5-2.1v-6.8l6.5-2.1L68.9-79z"/>
		<path class="st9" d="M46.7-63.6l-4,5.5l-6.5-2.1v-6.8l6.5-2.1L46.7-63.6z"/>
		<path class="st0" d="M125.3,102c1.5-3.8-131.4,74.4-116.4,75.6"/>
		<path class="st0" d="M8.8,177.6c15,1.3,0.4-78-11.3-80.6"/>
		<path class="st0" d="M-2.5,97c-11.7-2.6,41.2-164.5,32-163.8"/>
		<path class="st0" d="M29.6-66.8c-9.2,0.6,30.7-10.2,22.4-4.5"/>
		<path class="st0" d="M52-71.3c-8.3,5.7,71.8,177.1,73.3,173.3"/>
		<path class="st10" d="M130.2,105.8l-4.4,6.1l-7.2-2.3V102l7.2-2.3L130.2,105.8z"/>
		<path class="st10" d="M133.2,98.2l-4.4,6.1l-7.2-2.3v-7.5l7.2-2.3L133.2,98.2z"/>
		<path class="st10" d="M0.2,176.3l-4.4,6.1l-7.2-2.3v-7.5l7.2-2.3L0.2,176.3z"/>
		<path class="st10" d="M30.2,178.9l-4.4,6.1l-7.2-2.3v-7.5l7.2-2.3L30.2,178.9z"/>
		<path class="st10" d="M15.6,99.6l-4.4,6.1L4,103.4v-7.5l7.2-2.3L15.6,99.6z"/>
		<path class="st10" d="M-7.8,94.4l-4.4,6.1l-7.2-2.3v-7.5l7.2-2.3L-7.8,94.4z"/>
		<path class="st10" d="M45.2-67.5l-4.4,6.1l-7.2-2.3v-7.5l7.2-2.3L45.2-67.5z"/>
		<path class="st10" d="M26.8-66.2l-4.4,6.1l-7.2-2.3V-70l7.2-2.3L26.8-66.2z"/>
		<path class="st10" d="M66.7-77.1L62.3-71l-7.2-2.3v-7.5l7.2-2.3L66.7-77.1z"/>
		<path class="st10" d="M50.1-65.6l-4.4,6.1l-7.2-2.3v-7.5l7.2-2.3L50.1-65.6z"/>
		<path class="st0" d="M-425.1-317.4c11.8-5.8,53.1,80.7,34.9,73.2"/>
		<path class="st0" d="M-390.3-244.3c-18.2-7.5-46.6-67.4-34.9-73.2"/>
		<path class="st11" d="M-432.3-311.7l-3.2,4.4l-5.1-1.7v-5.4l5.1-1.7L-432.3-311.7z"/>
		<path class="st11" d="M-408.8-323.2l-3.2,4.4l-5.1-1.7v-5.4l5.1-1.7L-408.8-323.2z"/>
		<path class="st11" d="M-367.4-236.7l-3.2,4.4l-5.1-1.7v-5.4l5.1-1.7L-367.4-236.7z"/>
		<path class="st11" d="M-403.9-251.8l-3.2,4.4l-5.1-1.7v-5.4l5.1-1.7L-403.9-251.8z"/>
		<path class="st0" d="M-407.9-85.7c-33.4-32.4,16.5,32.6-1.9,22.5"/>
		<path class="st0" d="M-409.8-63.2c-18.5-10.1,35.3,9.8,1.9-22.5"/>
		<path class="st12" d="M-369.9-53.3l-3.2,4.4l-5.1-1.7V-56l5.1-1.7L-369.9-53.3z"/>
		<path class="st12" d="M-436.7-118.1l-3.2,4.4l-5.1-1.7v-5.4l5.1-1.7L-436.7-118.1z"/>
		<path class="st12" d="M-386.8-53.1l-3.2,4.4l-5.1-1.7v-5.4l5.1-1.7L-386.8-53.1z"/>
		<path class="st12" d="M-423.7-73.2l-3.2,4.4l-5.1-1.7V-76l5.1-1.7L-423.7-73.2z"/>
		<path class="st0" d="M-454.5,64.1c-64-1,92.6,14.9,83.1,23.5"/>
		<path class="st0" d="M-371.4,87.6c-9.5,8.6-19.1-22.5-83.1-23.5"/>
		<path class="st13" d="M-385.8,65.1l-3.2,4.4l-5.1-1.7v-5.4l5.1-1.7L-385.8,65.1z"/>
		<path class="st13" d="M-513.9,63.1l-3.2,4.4l-5.1-1.7v-5.4l5.1-1.7L-513.9,63.1z"/>
		<path class="st13" d="M-357.3,79l-3.2,4.4l-5.1-1.7v-5.4l5.1-1.7L-357.3,79z"/>
		<path class="st13" d="M-376.3,96.2l-3.2,4.4l-5.1-1.7v-5.4l5.1-1.7L-376.3,96.2z"/>
		<path class="st0" d="M-380.9,256.6c-9.3,35.4-103.4,41.6-65.9,12.1"/>
		<path class="st0" d="M-446.8,268.7c37.4-29.4,75.2-47.6,65.9-12.1"/>
		<path class="st14" d="M-367,221.2l-3.2,4.4l-5.1-1.7v-5.4l5.1-1.7L-367,221.2z"/>
		<path class="st14" d="M-385.5,292l-3.2,4.4l-5.1-1.7v-5.4l5.1-1.7L-385.5,292z"/>
		<path class="st14" d="M-479.7,298.1l-3.2,4.4l-5.1-1.7v-5.4l5.1-1.7L-479.7,298.1z"/>
		<path class="st14" d="M-404.8,239.3l-3.2,4.4l-5.1-1.7v-5.4l5.1-1.7L-404.8,239.3z"/>
		<path class="st0" d="M-169.7-281.4c17.3,1.5-94.9,56.1-66.4,55.2"/>
		<path class="st0" d="M-236.1-226.2c28.5-1,49-56.7,66.4-55.2"/>
		<path class="st15" d="M-182.5-282.9l-3.2,4.4l-5.1-1.7v-5.4l5.1-1.7L-182.5-282.9z"/>
		<path class="st15" d="M-147.8-279.8l-3.2,4.4l-5.1-1.7v-5.4l5.1-1.7L-147.8-279.8z"/>
		<path class="st15" d="M-260-225.2l-3.2,4.4l-5.1-1.7v-5.4l5.1-1.7L-260-225.2z"/>
		<path class="st15" d="M-203-227.2l-3.2,4.4l-5.1-1.7v-5.4l5.1-1.7L-203-227.2z"/>
		<path class="st0" d="M-274.5,277.3c1.7,18.7,111.9,15.1,114.7-4.1"/>
		<path class="st0" d="M-159.8,273.2c2.8-19.2-116.3-14.6-114.7,4.1"/>
		<path class="st16" d="M-271.6,258.6l-3.2,4.4l-5.1-1.7v-5.4l5.1-1.7L-271.6,258.6z"/>
		<path class="st16" d="M-268.2,296l-3.2,4.4l-5.1-1.7v-5.4l5.1-1.7L-268.2,296z"/>
		<path class="st16" d="M-158,292.4l-3.2,4.4l-5.1-1.7v-5.4l5.1-1.7L-158,292.4z"/>
		<path class="st16" d="M-152.4,254l-3.2,4.4l-5.1-1.7v-5.4l5.1-1.7L-152.4,254z"/>
		<path class="st0" d="M56.3-243c2.4,13.1-56-21.8-98.5-52.1"/>
		<path class="st0" d="M-42.2-295.1c-42.5-30.3,96.1,39,98.5,52.1"/>
		<path class="st17" d="M58.5-256.1l-3.2,4.4l-5.1-1.7v-5.4l5.1-1.7L58.5-256.1z"/>
		<path class="st17" d="M63.3-229.9l-3.2,4.4l-5.1-1.7v-5.4l5.1-1.7L63.3-229.9z"/>
		<path class="st17" d="M4.9-264.8l-3.2,4.4l-5.1-1.7v-5.4l5.1-1.7L4.9-264.8z"/>
		<path class="st17" d="M-80.1-325.4l-3.2,4.4l-5.1-1.7v-5.4l5.1-1.7L-80.1-325.4z"/>
		<path class="st0" d="M-24.1,248.6c63.3,36.6,83-6.2,65.9,21.7"/>
		<path class="st0" d="M41.8,270.3C24.7,298.3-87.4,212-24.1,248.6"/>
		<path class="st18" d="M-82.8,212l-3.2,4.4l-5.1-1.7v-5.4l5.1-1.7L-82.8,212z"/>
		<path class="st18" d="M43.8,285.1l-3.2,4.4l-5.1-1.7v-5.4l5.1-1.7L43.8,285.1z"/>
		<path class="st18" d="M63.5,242.4l-3.2,4.4l-5.1-1.7v-5.4l5.1-1.7L63.5,242.4z"/>
		<path class="st18" d="M29.3,298.3l-3.2,4.4l-5.1-1.7v-5.4l5.1-1.7L29.3,298.3z"/>
		<path class="st0" d="M212.1-290.1c21.6-6-67.1,58.6-8.6,53.8"/>
		<path class="st0" d="M203.5-236.3c58.5-4.8-13-47.8,8.6-53.8"/>
		<path class="st19" d="M195-284.1l-3.2,4.4l-5.1-1.7v-5.4l5.1-1.7L195-284.1z"/>
		<path class="st19" d="M238.3-296.2l-3.2,4.4l-5.1-1.7v-5.4l5.1-1.7L238.3-296.2z"/>
		<path class="st19" d="M149.6-231.5l-3.2,4.4l-5.1-1.7v-5.4l5.1-1.7L149.6-231.5z"/>
		<path class="st19" d="M266.6-241.1l-3.2,4.4l-5.1-1.7v-5.4l5.1-1.7L266.6-241.1z"/>
		<path class="st0" d="M135.4,278.4c-1.4-17.2,123.1-12.6,101.1-1.2"/>
		<path class="st0" d="M236.5,277.2c-22,11.4-99.7,18.4-101.1,1.2"/>
		<path class="st20" d="M141.4,295.6l-3.2,4.4l-5.1-1.7v-5.4l5.1-1.7L141.4,295.6z"/>
		<path class="st20" d="M138.7,261.3l-3.2,4.4l-5.1-1.7v-5.4l5.1-1.7L138.7,261.3z"/>
		<path class="st20" d="M263.1,265.8l-3.2,4.4l-5.1-1.7v-5.4l5.1-1.7L263.1,265.8z"/>
		<path class="st20" d="M219.1,288.6l-3.2,4.4l-5.1-1.7v-5.4l5.1-1.7L219.1,288.6z"/>
		<path class="st0" d="M421.4-272c-28.9,1.5-19.4,47-34.4,41.4"/>
		<path class="st0" d="M387.1-230.6c-15-5.6,63.3-42.8,34.4-41.4"/>
		<path class="st21" d="M454.9-273.5l-3.2,4.4l-5.1-1.7v-5.4l5.1-1.7L454.9-273.5z"/>
		<path class="st21" d="M397.2-270.5l-3.2,4.4l-5.1-1.7v-5.4l5.1-1.7L397.2-270.5z"/>
		<path class="st21" d="M406.6-225l-3.2,4.4l-5.1-1.7v-5.4l5.1-1.7L406.6-225z"/>
		<path class="st21" d="M376.7-236.2l-3.2,4.4l-5.1-1.7v-5.4l5.1-1.7L376.7-236.2z"/>
		<path class="st0" d="M410.7-57.4c57.9-0.1-56.1-77.3-63.6-66"/>
		<path class="st0" d="M347.2-123.4c-7.5,11.4,5.6,66.1,63.6,66"/>
		<path class="st22" d="M357.4-57.3l-3.2,4.4l-5.1-1.7v-5.4l5.1-1.7L357.4-57.3z"/>
		<path class="st22" d="M473.3-57.5l-3.2,4.4l-5.1-1.7v-5.4l5.1-1.7L473.3-57.5z"/>
		<path class="st22" d="M359.2-134.8l-3.2,4.4l-5.1-1.7v-5.4l5.1-1.7L359.2-134.8z"/>
		<path class="st22" d="M344.3-112.1l-3.2,4.4l-5.1-1.7v-5.4l5.1-1.7L344.3-112.1z"/>
		<path class="st0" d="M463.2,71.9c-0.5,15.8-131,19.7-61.9-0.2"/>
		<path class="st0" d="M401.4,71.7c69.2-19.8,62.4-15.7,61.9,0.2"/>
		<path class="st23" d="M468.4,56l-3.2,4.4l-5.1-1.7v-5.4l5.1-1.7L468.4,56z"/>
		<path class="st23" d="M467.3,87.7l-3.2,4.4l-5.1-1.7V85l5.1-1.7L467.3,87.7z"/>
		<path class="st23" d="M336.8,91.5l-3.2,4.4l-5.1-1.7v-5.4l5.1-1.7L336.8,91.5z"/>
		<path class="st23" d="M475.1,51.8l-3.2,4.4l-5.1-1.7v-5.4l5.1-1.7L475.1,51.8z"/>
		<path class="st0" d="M474.2,267.4c-0.2,28.8-47.4,31.8-27.4,25.8"/>
		<path class="st0" d="M446.7,293.2c20-6,27.6-54.5,27.4-25.8"/>
		<path class="st24" d="M479,238.6l-3.2,4.4l-5.1-1.7v-5.4l5.1-1.7L479,238.6z"/>
		<path class="st24" d="M478.6,296.1l-3.2,4.4l-5.1-1.7v-5.4l5.1-1.7L478.6,296.1z"/>
		<path class="st24" d="M431.4,299.2l-3.2,4.4l-5.1-1.7v-5.4l5.1-1.7L431.4,299.2z"/>
		<path class="st24" d="M471.3,287.1l-3.2,4.4l-5.1-1.7v-5.4l5.1-1.7L471.3,287.1z"/>
	</g>
</g>
</svg>
