<?xml version="1.0" encoding="utf-8"?>
<!-- Generator: Adobe Illustrator 26.1.0, SVG Export Plug-In . SVG Version: 6.00 Build 0)  -->
<svg version="1.1" id="Ebene_1" xmlns="http://www.w3.org/2000/svg" xmlns:xlink="http://www.w3.org/1999/xlink" x="0px" y="0px"
	 viewBox="0 0 2100 1400" style="enable-background:new 0 0 2100 1400;" xml:space="preserve">
<style type="text/css">
	.st0{fill:none;stroke:#FFFFFF;stroke-width:2;stroke-linecap:round;stroke-miterlimit:20;}
	.st1{fill:none;stroke:#FF0090;stroke-width:2;stroke-linecap:round;stroke-miterlimit:20;}
	.st2{fill:none;stroke:#0077FF;stroke-width:2;stroke-linecap:round;stroke-miterlimit:20;}
	.st3{fill:none;stroke:#FF1D00;stroke-width:2;stroke-linecap:round;stroke-miterlimit:20;}
	.st4{fill:none;stroke:#FF3000;stroke-width:2;stroke-linecap:round;stroke-miterlimit:20;}
	.st5{fill:none;stroke:#FFCF00;stroke-width:2;stroke-linecap:round;stroke-miterlimit:20;}
	.st6{fill:none;stroke:#00FF4C;stroke-width:2;stroke-linecap:round;stroke-miterlimit:20;}
	.st7{fill:none;stroke:#FF5B00;stroke-width:2;stroke-linecap:round;stroke-miterlimit:20;}
	.st8{fill:none;stroke:#00FF6A;stroke-width:2;stroke-linecap:round;stroke-miterlimit:20;}
	.st9{fill:none;stroke:#CBFF00;stroke-width:2;stroke-linecap:round;stroke-miterlimit:20;}
	.st10{fill:none;stroke:#6C00FF;stroke-width:2;stroke-linecap:round;stroke-miterlimit:20;}
	.st11{fill:none;stroke:#00FF14;stroke-width:2;stroke-linecap:round;stroke-miterlimit:20;}
	.st12{fill:none;stroke:#00AFFF;stroke-width:2;stroke-linecap:round;stroke-miterlimit:20;}
	.st13{fill:none;stroke:#0063FF;stroke-width:2;stroke-linecap:round;stroke-miterlimit:20;}
	.st14{fill:none;stroke:#FF0058;stroke-width:2;stroke-linecap:round;stroke-miterlimit:20;}
	.st15{fill:none;stroke:#52FF00;stroke-width:2;stroke-linecap:round;stroke-miterlimit:20;}
	.st16{fill:none;stroke:#00FF56;stroke-width:2;stroke-linecap:round;stroke-miterlimit:20;}
	.st17{fill:none;stroke:#00FFF0;stroke-width:2;stroke-linecap:round;stroke-miterlimit:20;}
	.st18{fill:none;stroke:#00FF02;stroke-width:2;stroke-linecap:round;stroke-miterlimit:20;}
	.st19{fill:none;stroke:#63FF00;stroke-width:2;stroke-linecap:round;stroke-miterlimit:20;}
	.st20{fill:none;stroke:#FFF400;stroke-width:2;stroke-linecap:round;stroke-miterlimit:20;}
	.st21{fill:none;stroke:#F500FF;stroke-width:2;stroke-linecap:round;stroke-miterlimit:20;}
	.st22{fill:none;stroke:#00FF10;stroke-width:2;stroke-linecap:round;stroke-miterlimit:20;}
	.st23{fill:none;stroke:#00FF6E;stroke-width:2;stroke-linecap:round;stroke-miterlimit:20;}
</style>
<g>
	<g transform="scale(2,2)">
		<rect width="1050" height="700"/>
	</g>
	<g transform="matrix(2,0,0,2,0,0) translate(525,350)">
		<path class="st0" d="M49.6,154.4c113.9-78.1,154.9-312.6,8.8-106.3"/>
		<path class="st0" d="M58.4,48.1C-87.7,254.3-165.1-152.6-95.6-55.6"/>
		<path class="st0" d="M-95.6-55.6c69.5,96.9,51.3,87.8-8.2,46.6"/>
		<path class="st0" d="M-103.8-9c-59.4-41.2,312.2,193.8,293.2,155.5"/>
		<path class="st0" d="M189.4,146.5c-19-38.3-253.6,86-139.7,7.9"/>
		<path class="st1" d="M-63.2,232.5l-0.7,1l-1.1-0.4v-1.2l1.1-0.4L-63.2,232.5z"/>
		<path class="st1" d="M164.5,76.3l-0.7,1l-1.1-0.4v-1.2l1.1-0.4L164.5,76.3z"/>
		<path class="st1" d="M205.5-158.2l-0.7,1l-1.1-0.4v-1.2l1.1-0.4L205.5-158.2z"/>
		<path class="st1" d="M-86.7,254.3l-0.7,1l-1.1-0.4v-1.2l1.1-0.4L-86.7,254.3z"/>
		<path class="st1" d="M-164.1-152.6l-0.7,1l-1.1-0.4v-1.2l1.1-0.4L-164.1-152.6z"/>
		<path class="st1" d="M-25.2,41.3l-0.7,1l-1.1-0.4v-1.2l1.1-0.4L-25.2,41.3z"/>
		<path class="st1" d="M-43.4,32.2l-0.7,1l-1.1-0.4v-1.2l1.1-0.4L-43.4,32.2z"/>
		<path class="st1" d="M-162.2-50.2l-0.7,1l-1.1-0.4v-1.2l1.1-0.4L-162.2-50.2z"/>
		<path class="st1" d="M209.3,184.8l-0.7,1l-1.1-0.4v-1.2l1.1-0.4L209.3,184.8z"/>
		<path class="st1" d="M171.4,108.2l-0.7,1l-1.1-0.4v-1.2l1.1-0.4L171.4,108.2z"/>
		<path class="st0" d="M49.6,154.4C135,95.8,168-106.6,58.4,48.1"/>
		<path class="st0" d="M58.4,48.1C-51.2,202.8-147.7-128.3-95.6-55.6"/>
		<path class="st0" d="M-95.6-55.6c52.1,72.7,36.4,77.5-8.2,46.6"/>
		<path class="st0" d="M-103.8-9c-44.6-30.9,307.4,184.3,293.2,155.5"/>
		<path class="st0" d="M189.4,146.5c-14.2-28.7-225.1,66.5-139.7,7.9"/>
		<path class="st2" d="M-34.2,213l-1.1,1.5l-1.8-0.6V212l1.8-0.6L-34.2,213z"/>
		<path class="st2" d="M136.6,95.8l-1.1,1.5l-1.8-0.6v-1.9l1.8-0.6L136.6,95.8z"/>
		<path class="st2" d="M169.6-106.6l-1.1,1.5l-1.8-0.6v-1.9l1.8-0.6L169.6-106.6z"/>
		<path class="st2" d="M-49.6,202.8l-1.1,1.5l-1.8-0.6v-1.9l1.8-0.6L-49.6,202.8z"/>
		<path class="st2" d="M-146.1-128.3l-1.1,1.5l-1.8-0.6v-1.9l1.8-0.6L-146.1-128.3z"/>
		<path class="st2" d="M-41.9,17.1l-1.1,1.5l-1.8-0.6v-1.9l1.8-0.6L-41.9,17.1z"/>
		<path class="st2" d="M-57.6,21.9l-1.1,1.5l-1.8-0.6V21l1.8-0.6L-57.6,21.9z"/>
		<path class="st2" d="M-146.8-39.9l-1.1,1.5l-1.8-0.6v-1.9l1.8-0.6L-146.8-39.9z"/>
		<path class="st2" d="M205.2,175.2l-1.1,1.5l-1.8-0.6v-1.9l1.8-0.6L205.2,175.2z"/>
		<path class="st2" d="M176.7,117.8l-1.1,1.5l-1.8-0.6v-1.9l1.8-0.6L176.7,117.8z"/>
		<path class="st0" d="M49.6,154.4c64-43.9,91-222.3,8.8-106.3"/>
		<path class="st0" d="M58.4,48.1c-82.2,116-193.1-158.2-154-103.7"/>
		<path class="st0" d="M-95.6-55.6C-56.6-1.1-70.4,14.2-103.8-9"/>
		<path class="st0" d="M-103.8-9C-137.2-32.2,200,168.1,189.4,146.5"/>
		<path class="st0" d="M189.4,146.5c-10.7-21.6-203.8,51.8-139.7,7.9"/>
		<path class="st3" d="M-12.2,198.3l-1.5,2.1l-2.5-0.8V197l2.5-0.8L-12.2,198.3z"/>
		<path class="st3" d="M115.9,110.4l-1.5,2.1l-2.5-0.8v-2.6l2.5-0.8L115.9,110.4z"/>
		<path class="st3" d="M142.8-68l-1.5,2.1l-2.5-0.8v-2.6l2.5-0.8L142.8-68z"/>
		<path class="st3" d="M-21.6,164.1l-1.5,2.1l-2.5-0.8v-2.6l2.5-0.8L-21.6,164.1z"/>
		<path class="st3" d="M-132.5-110.1l-1.5,2.1l-2.5-0.8v-2.6l2.5-0.8L-132.5-110.1z"/>
		<path class="st3" d="M-54.4-1.1L-55.9,1l-2.5-0.8v-2.6l2.5-0.8L-54.4-1.1z"/>
		<path class="st3" d="M-68.2,14.2l-1.5,2.1l-2.5-0.8v-2.6l2.5-0.8L-68.2,14.2z"/>
		<path class="st3" d="M-135-32.2l-1.5,2.1l-2.5-0.8v-2.6l2.5-0.8L-135-32.2z"/>
		<path class="st3" d="M202.2,168.1l-1.5,2.1l-2.5-0.8v-2.6l2.5-0.8L202.2,168.1z"/>
		<path class="st3" d="M180.9,124.9l-1.5,2.1l-2.5-0.8v-2.6l2.5-0.8L180.9,124.9z"/>
		<path class="st0" d="M49.6,154.4c48-33,70.4-193.3,8.8-106.3"/>
		<path class="st0" d="M58.4,48.1c-61.6,87-183.3-144.6-154-103.7"/>
		<path class="st0" d="M-95.6-55.6c29.3,40.9,16.9,64-8.2,46.6"/>
		<path class="st0" d="M-103.8-9c-25.1-17.4,301.2,171.7,293.2,155.5"/>
		<path class="st0" d="M189.4,146.5c-8-16.2-187.8,40.8-139.7,7.9"/>
		<path class="st4" d="M4.4,187.3L2.4,190l-3.1-1v-3.3l3.1-1L4.4,187.3z"/>
		<path class="st4" d="M100.5,121.4l-1.9,2.7l-3.1-1v-3.3l3.1-1L100.5,121.4z"/>
		<path class="st4" d="M122.8-39l-1.9,2.7l-3.1-1v-3.3l3.1-1L122.8-39z"/>
		<path class="st4" d="M-0.5,135.1l-1.9,2.7l-3.1-1v-3.3l3.1-1L-0.5,135.1z"/>
		<path class="st4" d="M-122.1-96.5l-1.9,2.7l-3.1-1v-3.3l3.1-1L-122.1-96.5z"/>
		<path class="st4" d="M-63.5-14.7l-1.9,2.7l-3.1-1v-3.3l3.1-1L-63.5-14.7z"/>
		<path class="st4" d="M-75.9,8.4l-1.9,2.7l-3.1-1V6.7l3.1-1L-75.9,8.4z"/>
		<path class="st4" d="M-126.1-26.4l-1.9,2.7l-3.1-1v-3.3l3.1-1L-126.1-26.4z"/>
		<path class="st4" d="M200.2,162.7l-1.9,2.7l-3.1-1V161l3.1-1L200.2,162.7z"/>
		<path class="st4" d="M184.1,130.3l-1.9,2.7l-3.1-1v-3.3l3.1-1L184.1,130.3z"/>
		<path class="st0" d="M49.6,154.4c36-24.7,55-171.6,8.8-106.3"/>
		<path class="st0" d="M58.4,48.1c-46.2,65.3-176-134.4-154-103.7"/>
		<path class="st0" d="M-95.6-55.6C-73.7-25-85,4-103.8-9"/>
		<path class="st0" d="M-103.8-9c-18.8-13,299.2,167.6,293.2,155.5"/>
		<path class="st0" d="M189.4,146.5c-6-12.1-175.8,32.6-139.7,7.9"/>
		<path class="st5" d="M17,179.1l-2.3,3.2l-3.8-1.2v-4l3.8-1.2L17,179.1z"/>
		<path class="st5" d="M89,129.7l-2.3,3.2l-3.8-1.2v-4l3.8-1.2L89,129.7z"/>
		<path class="st5" d="M108-17.2l-2.3,3.2l-3.8-1.2v-4l3.8-1.2L108-17.2z"/>
		<path class="st5" d="M15.6,113.3l-2.3,3.2l-3.8-1.2v-4l3.8-1.2L15.6,113.3z"/>
		<path class="st5" d="M-114.2-86.3l-2.3,3.2l-3.8-1.2v-4l3.8-1.2L-114.2-86.3z"/>
		<path class="st5" d="M-70.3-25l-2.3,3.2l-3.8-1.2v-4l3.8-1.2L-70.3-25z"/>
		<path class="st5" d="M-81.6,4L-84,7.3L-87.8,6V2l3.8-1.2L-81.6,4z"/>
		<path class="st5" d="M-119.2-22.1l-2.3,3.2l-3.8-1.2v-4l3.8-1.2L-119.2-22.1z"/>
		<path class="st5" d="M198.8,158.6l-2.3,3.2l-3.8-1.2v-4l3.8-1.2L198.8,158.6z"/>
		<path class="st5" d="M186.7,134.4l-2.3,3.2l-3.8-1.2v-4l3.8-1.2L186.7,134.4z"/>
		<path class="st0" d="M49.6,154.4c27-18.5,43.4-155.3,8.8-106.3"/>
		<path class="st0" d="M58.4,48.1C23.7,97-112.1-78.6-95.6-55.6"/>
		<path class="st0" d="M-95.6-55.6c16.5,23,5.9,56.4-8.2,46.6"/>
		<path class="st0" d="M-103.8-9c-14.1-9.8,297.7,164.6,293.2,155.5"/>
		<path class="st0" d="M189.4,146.5c-4.5-9.1-166.8,26.4-139.7,7.9"/>
		<path class="st6" d="M26.6,172.9l-2.8,3.8l-4.5-1.5v-4.7l4.5-1.5L26.6,172.9z"/>
		<path class="st6" d="M80.6,135.8l-2.8,3.8l-4.5-1.5v-4.7l4.5-1.5L80.6,135.8z"/>
		<path class="st6" d="M97.1-0.9l-2.8,3.8l-4.5-1.5v-4.7l4.5-1.5L97.1-0.9z"/>
		<path class="st6" d="M27.7,97l-2.8,3.8l-4.5-1.5v-4.7l4.5-1.5L27.7,97z"/>
		<path class="st6" d="M-108.1-78.6l-2.8,3.8l-4.5-1.5V-81l4.5-1.5L-108.1-78.6z"/>
		<path class="st6" d="M-75.2-32.6l-2.8,3.8l-4.5-1.5V-35l4.5-1.5L-75.2-32.6z"/>
		<path class="st6" d="M-85.7,0.8l-2.8,3.8L-93,3.1v-4.7l4.5-1.5L-85.7,0.8z"/>
		<path class="st6" d="M-113.9-18.8l-2.8,3.8l-4.5-1.5v-4.7l4.5-1.5L-113.9-18.8z"/>
		<path class="st6" d="M197.9,155.6l-2.8,3.8l-4.5-1.5v-4.7l4.5-1.5L197.9,155.6z"/>
		<path class="st6" d="M188.8,137.4l-2.8,3.8l-4.5-1.5v-4.7l4.5-1.5L188.8,137.4z"/>
		<path class="st0" d="M49.6,154.4c20.3-13.9,34.8-143,8.8-106.3"/>
		<path class="st0" d="M58.4,48.1C32.4,84.8-108-72.9-95.6-55.6"/>
		<path class="st0" d="M-95.6-55.6c12.4,17.2,2.4,54-8.2,46.6"/>
		<path class="st0" d="M-103.8-9c-10.6-7.3,296.5,162.3,293.2,155.5"/>
		<path class="st0" d="M189.4,146.5c-3.4-6.8-160,21.8-139.7,7.9"/>
		<path class="st7" d="M34,168.3l-3.2,4.4l-5.1-1.7v-5.4l5.1-1.7L34,168.3z"/>
		<path class="st7" d="M74.5,140.5l-3.2,4.4l-5.1-1.7v-5.4l5.1-1.7L74.5,140.5z"/>
		<path class="st7" d="M89,11.4l-3.2,4.4l-5.1-1.7V8.6L85.8,7L89,11.4z"/>
		<path class="st7" d="M37,84.8l-3.2,4.4l-5.1-1.7v-5.4l5.1-1.7L37,84.8z"/>
		<path class="st7" d="M-103.4-72.9l-3.2,4.4l-5.1-1.7v-5.4l5.1-1.7L-103.4-72.9z"/>
		<path class="st7" d="M-78.7-38.4l-3.2,4.4l-5.1-1.7v-5.4l5.1-1.7L-78.7-38.4z"/>
		<path class="st7" d="M-88.6-1.7l-3.2,4.4L-97,1v-5.4l5.1-1.7L-88.6-1.7z"/>
		<path class="st7" d="M-109.8-16.4L-113-12l-5.1-1.7v-5.4l5.1-1.7L-109.8-16.4z"/>
		<path class="st7" d="M197.3,153.3l-3.2,4.4L189,156v-5.4l5.1-1.7L197.3,153.3z"/>
		<path class="st7" d="M190.6,139.7l-3.2,4.4l-5.1-1.7V137l5.1-1.7L190.6,139.7z"/>
		<path class="st0" d="M49.6,154.4c15.2-10.4,28.3-133.8,8.8-106.3"/>
		<path class="st0" d="M58.4,48.1C38.9,75.6-104.9-68.6-95.6-55.6"/>
		<path class="st0" d="M-95.6-55.6c9.3,12.9-0.2,52.1-8.2,46.6"/>
		<path class="st0" d="M-103.8-9c-7.9-5.5,295.7,160.6,293.2,155.5"/>
		<path class="st0" d="M189.4,146.5c-2.5-5.1-154.9,18.3-139.7,7.9"/>
		<path class="st8" d="M39.6,164.8l-3.6,4.9l-5.8-1.9v-6.1l5.8-1.9L39.6,164.8z"/>
		<path class="st8" d="M70,143.9l-3.6,4.9l-5.8-1.9v-6.1l5.8-1.9L70,143.9z"/>
		<path class="st8" d="M83.1,20.5l-3.6,4.9l-5.8-1.9v-6.1l5.8-1.9L83.1,20.5z"/>
		<path class="st8" d="M44.1,75.6l-3.6,4.9l-5.8-1.9v-6.1l5.8-1.9L44.1,75.6z"/>
		<path class="st8" d="M-99.7-68.6l-3.6,4.9l-5.8-1.9v-6.1l5.8-1.9L-99.7-68.6z"/>
		<path class="st8" d="M-81.2-42.7l-3.6,4.9l-5.8-1.9v-6.1l5.8-1.9L-81.2-42.7z"/>
		<path class="st8" d="M-90.7-3.5l-3.6,4.9l-5.8-1.9v-6.1l5.8-1.9L-90.7-3.5z"/>
		<path class="st8" d="M-106.6-14.5l-3.6,4.9l-5.8-1.9v-6.1l5.8-1.9L-106.6-14.5z"/>
		<path class="st8" d="M197.1,151.6l-3.6,4.9l-5.8-1.9v-6.1l5.8-1.9L197.1,151.6z"/>
		<path class="st8" d="M192,141.4l-3.6,4.9l-5.8-1.9v-6.1l5.8-1.9L192,141.4z"/>
		<path class="st0" d="M49.6,154.4C61,146.6,73,27.4,58.4,48.1"/>
		<path class="st0" d="M58.4,48.1c-14.6,20.7-161-113.4-154-103.7"/>
		<path class="st0" d="M-95.6-55.6c7,9.7-2.2,50.7-8.2,46.6"/>
		<path class="st0" d="M-103.8-9c-5.9-4.1,295.1,159.4,293.2,155.5"/>
		<path class="st0" d="M189.4,146.5c-1.9-3.8-151.1,15.7-139.7,7.9"/>
		<path class="st9" d="M44,162.2l-4,5.5l-6.5-2.1v-6.8l6.5-2.1L44,162.2z"/>
		<path class="st9" d="M66.8,146.6l-4,5.5l-6.5-2.1v-6.8l6.5-2.1L66.8,146.6z"/>
		<path class="st9" d="M78.8,27.4l-4,5.5l-6.5-2.1V24l6.5-2.1L78.8,27.4z"/>
		<path class="st9" d="M49.6,68.7l-4,5.5l-6.5-2.1v-6.8l6.5-2.1L49.6,68.7z"/>
		<path class="st9" d="M-96.8-65.3l-4,5.5l-6.5-2.1v-6.8l6.5-2.1L-96.8-65.3z"/>
		<path class="st9" d="M-82.9-45.9l-4,5.5l-6.5-2.1v-6.8l6.5-2.1L-82.9-45.9z"/>
		<path class="st9" d="M-92.1-4.9l-4,5.5l-6.5-2.1v-6.8l6.5-2.1L-92.1-4.9z"/>
		<path class="st9" d="M-104-13.1l-4,5.5l-6.5-2.1v-6.8l6.5-2.1L-104-13.1z"/>
		<path class="st9" d="M197.1,150.3l-4,5.5l-6.5-2.1v-6.8l6.5-2.1L197.1,150.3z"/>
		<path class="st9" d="M193.3,142.7l-4,5.5l-6.5-2.1v-6.8l6.5-2.1L193.3,142.7z"/>
		<path class="st0" d="M49.6,154.4c8.5-5.9,19.7-121.8,8.8-106.3"/>
		<path class="st0" d="M58.4,48.1c-11,15.5-159.2-111-154-103.7"/>
		<path class="st0" d="M-95.6-55.6c5.2,7.3-3.7,49.7-8.2,46.6"/>
		<path class="st0" d="M-103.8-9c-4.5-3.1,294.6,158.4,293.2,155.5"/>
		<path class="st0" d="M189.4,146.5c-1.4-2.9-148.3,13.7-139.7,7.9"/>
		<path class="st10" d="M47.5,160.2l-4.4,6.1l-7.2-2.3v-7.5l7.2-2.3L47.5,160.2z"/>
		<path class="st10" d="M64.6,148.5l-4.4,6.1l-7.2-2.3v-7.5l7.2-2.3L64.6,148.5z"/>
		<path class="st10" d="M75.8,32.6l-4.4,6.1l-7.2-2.3v-7.5l7.2-2.3L75.8,32.6z"/>
		<path class="st10" d="M53.8,63.6l-4.4,6.1l-7.2-2.3v-7.5l7.2-2.3L53.8,63.6z"/>
		<path class="st10" d="M-94.5-62.9l-4.4,6.1l-7.2-2.3v-7.5l7.2-2.3L-94.5-62.9z"/>
		<path class="st10" d="M-84-48.4l-4.4,6.1l-7.2-2.3v-7.5l7.2-2.3L-84-48.4z"/>
		<path class="st10" d="M-93-5.9l-4.4,6.1l-7.2-2.3v-7.5l7.2-2.3L-93-5.9z"/>
		<path class="st10" d="M-101.9-12.1l-4.4,6.1l-7.2-2.3v-7.5l7.2-2.3L-101.9-12.1z"/>
		<path class="st10" d="M197.2,149.4l-4.4,6.1l-7.2-2.3v-7.5l7.2-2.3L197.2,149.4z"/>
		<path class="st10" d="M194.3,143.6l-4.4,6.1l-7.2-2.3v-7.5l7.2-2.3L194.3,143.6z"/>
		<path class="st0" d="M-407.3-247.6c-18.2-14.6,42.3-37.2,39.3-9.1"/>
		<path class="st0" d="M-367.9-256.7c-2.9,28.1-21.2,23.7-39.3,9.1"/>
		<path class="st11" d="M-384.5-233l-3.2,4.4l-5.1-1.7v-5.4l5.1-1.7L-384.5-233z"/>
		<path class="st11" d="M-420.9-262.2l-3.2,4.4l-5.1-1.7v-5.4l5.1-1.7L-420.9-262.2z"/>
		<path class="st11" d="M-360.4-284.7l-3.2,4.4l-5.1-1.7v-5.4l5.1-1.7L-360.4-284.7z"/>
		<path class="st11" d="M-366.3-228.6l-3.2,4.4l-5.1-1.7v-5.4l5.1-1.7L-366.3-228.6z"/>
		<path class="st0" d="M-470-151.1c-16.1,0.2,60.3,73,78.4,83.9"/>
		<path class="st0" d="M-391.6-67.2c18.1,10.9-62.3-84.1-78.4-83.9"/>
		<path class="st12" d="M-449.2-151.3l-3.2,4.4l-5.1-1.7v-5.4l5.1-1.7L-449.2-151.3z"/>
		<path class="st12" d="M-481.5-150.9l-3.2,4.4l-5.1-1.7v-5.4l5.1-1.7L-481.5-150.9z"/>
		<path class="st12" d="M-405.1-78.1l-3.2,4.4l-5.1-1.7v-5.4l5.1-1.7L-405.1-78.1z"/>
		<path class="st12" d="M-368.9-56.3l-3.2,4.4l-5.1-1.7V-59l5.1-1.7L-368.9-56.3z"/>
		<path class="st0" d="M-430.4,111.8c-11.8-5.4-2.2-65.6,4.2-43.1"/>
		<path class="st0" d="M-426.2,68.7c6.4,22.4,7.6,48.6-4.2,43.1"/>
		<path class="st13" d="M-414,117.2l-3.2,4.4l-5.1-1.7v-5.4l5.1-1.7L-414,117.2z"/>
		<path class="st13" d="M-437.6,106.4l-3.2,4.4l-5.1-1.7v-5.4l5.1-1.7L-437.6,106.4z"/>
		<path class="st13" d="M-428,46.2l-3.2,4.4l-5.1-1.7v-5.4l5.1-1.7L-428,46.2z"/>
		<path class="st13" d="M-415.2,91.1l-3.2,4.4l-5.1-1.7v-5.4l5.1-1.7L-415.2,91.1z"/>
		<path class="st0" d="M-439.1,211.8c-9.7-3.6,18.9,17.2,8.7,44.9"/>
		<path class="st0" d="M-430.4,256.8c-10.2,27.8,1-41.4-8.7-44.9"/>
		<path class="st14" d="M-424.8,215.4l-3.2,4.4l-5.1-1.7v-5.4l5.1-1.7L-424.8,215.4z"/>
		<path class="st14" d="M-444.2,208.3l-3.2,4.4l-5.1-1.7v-5.4l5.1-1.7L-444.2,208.3z"/>
		<path class="st14" d="M-415.6,229l-3.2,4.4l-5.1-1.7v-5.4l5.1-1.7L-415.6,229z"/>
		<path class="st14" d="M-436,284.5l-3.2,4.4l-5.1-1.7v-5.4l5.1-1.7L-436,284.5z"/>
		<path class="st0" d="M-180.9-290.4c22.9-19.4,4.6,65.9-44.3,59.4"/>
		<path class="st0" d="M-225.2-231.1c-48.9-6.5,21.4-40,44.3-59.4"/>
		<path class="st15" d="M-199.2-271l-3.2,4.4l-5.1-1.7v-5.4l5.1-1.7L-199.2-271z"/>
		<path class="st15" d="M-153.5-309.8l-3.2,4.4l-5.1-1.7v-5.4l5.1-1.7L-153.5-309.8z"/>
		<path class="st15" d="M-171.7-224.5l-3.2,4.4l-5.1-1.7v-5.4l5.1-1.7L-171.7-224.5z"/>
		<path class="st15" d="M-269.5-237.6l-3.2,4.4l-5.1-1.7v-5.4l5.1-1.7L-269.5-237.6z"/>
		<path class="st0" d="M-196,293.7c37.9-5.9,3.2-75.9,1.5-87.3"/>
		<path class="st0" d="M-194.4,206.4c-1.7-11.5-39.4,93.2-1.5,87.3"/>
		<path class="st16" d="M-229.2,299.6l-3.2,4.4l-5.1-1.7v-5.4l5.1-1.7L-229.2,299.6z"/>
		<path class="st16" d="M-153.5,287.9l-3.2,4.4l-5.1-1.7v-5.4l5.1-1.7L-153.5,287.9z"/>
		<path class="st16" d="M-188.1,217.9l-3.2,4.4l-5.1-1.7v-5.4l5.1-1.7L-188.1,217.9z"/>
		<path class="st16" d="M-191.5,194.9l-3.2,4.4l-5.1-1.7v-5.4l5.1-1.7L-191.5,194.9z"/>
		<path class="st0" d="M-90.1-275.6c5.9,43.1,144.4-46.1,113.9-36.2"/>
		<path class="st0" d="M23.8-311.8c-30.5,9.9-119.8-6.9-113.9,36.2"/>
		<path class="st17" d="M-91.4-318.7l-3.2,4.4l-5.1-1.7v-5.4l5.1-1.7L-91.4-318.7z"/>
		<path class="st17" d="M-79.6-232.5l-3.2,4.4l-5.1-1.7v-5.4l5.1-1.7L-79.6-232.5z"/>
		<path class="st17" d="M58.9-321.7l-3.2,4.4l-5.1-1.7v-5.4l5.1-1.7L58.9-321.7z"/>
		<path class="st17" d="M-2.1-301.9l-3.2,4.4l-5.1-1.7v-5.4l5.1-1.7L-2.1-301.9z"/>
		<path class="st0" d="M-14.3,250.1C-27.5,200.8-38,281-21,288.6"/>
		<path class="st0" d="M-21,288.6c17,7.6,19.9,10.8,6.7-38.5"/>
		<path class="st18" d="M3.5,299.4l-3.2,4.4l-5.1-1.7v-5.4l5.1-1.7L3.5,299.4z"/>
		<path class="st18" d="M-22.9,200.8l-3.2,4.4l-5.1-1.7v-5.4l5.1-1.7L-22.9,200.8z"/>
		<path class="st18" d="M-33.4,281l-3.2,4.4l-5.1-1.7v-5.4l5.1-1.7L-33.4,281z"/>
		<path class="st18" d="M0.7,296.1l-3.2,4.4l-5.1-1.7v-5.4l5.1-1.7L0.7,296.1z"/>
		<path class="st0" d="M216.8-275.8c-28.2-44.1,28.1,42.5-18.2,47.1"/>
		<path class="st0" d="M198.6-228.7c-46.3,4.5,46.4-2.9,18.2-47.1"/>
		<path class="st19" d="M249.6-231.6l-3.2,4.4l-5.1-1.7v-5.4l5.1-1.7L249.6-231.6z"/>
		<path class="st19" d="M193.2-319.9l-3.2,4.4l-5.1-1.7v-5.4l5.1-1.7L193.2-319.9z"/>
		<path class="st19" d="M249.5-233.2l-3.2,4.4l-5.1-1.7v-5.4l5.1-1.7L249.5-233.2z"/>
		<path class="st19" d="M156.9-224.2l-3.2,4.4l-5.1-1.7v-5.4l5.1-1.7L156.9-224.2z"/>
		<path class="st0" d="M212.1,253.3c46.7,10.1-25.8,6.9,13.8,19.8"/>
		<path class="st0" d="M225.9,273.1c39.6,12.9-60.5-29.9-13.8-19.8"/>
		<path class="st20" d="M170,243.2l-3.2,4.4l-5.1-1.7v-5.4l5.1-1.7L170,243.2z"/>
		<path class="st20" d="M263.5,263.4l-3.2,4.4l-5.1-1.7v-5.4l5.1-1.7L263.5,263.4z"/>
		<path class="st20" d="M190.9,260.2l-3.2,4.4l-5.1-1.7v-5.4l5.1-1.7L190.9,260.2z"/>
		<path class="st20" d="M270.1,286l-3.2,4.4l-5.1-1.7v-5.4l5.1-1.7L270.1,286z"/>
		<path class="st0" d="M362.6-282.8c15.4-24.6,92,28.6,44,36.4"/>
		<path class="st0" d="M406.6-246.5c-48,7.8-59.4-11.7-44-36.4"/>
		<path class="st21" d="M351.8-258.2l-3.2,4.4l-5.1-1.7v-5.4l5.1-1.7L351.8-258.2z"/>
		<path class="st21" d="M382.6-307.5l-3.2,4.4l-5.1-1.7v-5.4l5.1-1.7L382.6-307.5z"/>
		<path class="st21" d="M459.1-254.3l-3.2,4.4l-5.1-1.7v-5.4l5.1-1.7L459.1-254.3z"/>
		<path class="st21" d="M363.2-238.7l-3.2,4.4l-5.1-1.7v-5.4l5.1-1.7L363.2-238.7z"/>
		<path class="st0" d="M329.6-105.7c-2.7,9.8,69.3-0.9,108.4,9.2"/>
		<path class="st0" d="M438-96.5c39.1,10.1-105.7-19-108.4-9.2"/>
		<path class="st22" d="M336.9-115.5l-3.2,4.4l-5.1-1.7v-5.4l5.1-1.7L336.9-115.5z"/>
		<path class="st22" d="M331.5-96l-3.2,4.4l-5.1-1.7v-5.4l5.1-1.7L331.5-96z"/>
		<path class="st22" d="M403.5-106.6l-3.2,4.4l-5.1-1.7v-5.4l5.1-1.7L403.5-106.6z"/>
		<path class="st22" d="M481.6-86.4l-3.2,4.4l-5.1-1.7v-5.4l5.1-1.7L481.6-86.4z"/>
		<path class="st0" d="M397.5,87.3c-25.2,28.9,72.2-3.9,31.7-32.8"/>
		<path class="st0" d="M429.1,54.5c-40.5-28.9-6.4,3.9-31.7,32.8"/>
		<path class="st23" d="M427.3,58.4l-3.2,4.4l-5.1-1.7v-5.4l5.1-1.7L427.3,58.4z"/>
		<path class="st23" d="M376.8,116.2l-3.2,4.4l-5.1-1.7v-5.4l5.1-1.7L376.8,116.2z"/>
		<path class="st23" d="M474.2,83.4l-3.2,4.4l-5.1-1.7v-5.4l5.1-1.7L474.2,83.4z"/>
		<path class="st23" d="M393.2,25.6L390,30l-5.1-1.7v-5.4l5.1-1.7L393.2,25.6z"/>
	</g>
</g>
</svg>
