<?xml version="1.0" encoding="utf-8"?>
<!-- Generator: Adobe Illustrator 26.1.0, SVG Export Plug-In . SVG Version: 6.00 Build 0)  -->
<svg version="1.1" id="Ebene_1" xmlns="http://www.w3.org/2000/svg" xmlns:xlink="http://www.w3.org/1999/xlink" x="0px" y="0px"
	 viewBox="0 0 990 700" style="enable-background:new 0 0 990 700;" xml:space="preserve">
<style type="text/css">
	.st0{fill:none;stroke:#FFFFFF;stroke-width:2;stroke-linecap:round;stroke-miterlimit:20;}
	.st1{fill:none;stroke:#00E7FF;stroke-width:2;stroke-linecap:round;stroke-miterlimit:20;}
	.st2{fill:none;stroke:#89FF00;stroke-width:2;stroke-linecap:round;stroke-miterlimit:20;}
	.st3{fill:none;stroke:#00FF39;stroke-width:2;stroke-linecap:round;stroke-miterlimit:20;}
	.st4{fill:none;stroke:#00FF76;stroke-width:2;stroke-linecap:round;stroke-miterlimit:20;}
	.st5{fill:none;stroke:#67FF00;stroke-width:2;stroke-linecap:round;stroke-miterlimit:20;}
	.st6{fill:none;stroke:#0094FF;stroke-width:2;stroke-linecap:round;stroke-miterlimit:20;}
	.st7{fill:none;stroke:#F900FF;stroke-width:2;stroke-linecap:round;stroke-miterlimit:20;}
	.st8{fill:none;stroke:#00FF74;stroke-width:2;stroke-linecap:round;stroke-miterlimit:20;}
	.st9{fill:none;stroke:#8F00FF;stroke-width:2;stroke-linecap:round;stroke-miterlimit:20;}
	.st10{fill:none;stroke:#35FF00;stroke-width:2;stroke-linecap:round;stroke-miterlimit:20;}
	.st11{fill:none;stroke:#FF0045;stroke-width:2;stroke-linecap:round;stroke-miterlimit:20;}
	.st12{fill:none;stroke:#FF0069;stroke-width:2;stroke-linecap:round;stroke-miterlimit:20;}
	.st13{fill:none;stroke:#1200FF;stroke-width:2;stroke-linecap:round;stroke-miterlimit:20;}
	.st14{fill:none;stroke:#BEFF00;stroke-width:2;stroke-linecap:round;stroke-miterlimit:20;}
	.st15{fill:none;stroke:#00FF1F;stroke-width:2;stroke-linecap:round;stroke-miterlimit:20;}
	.st16{fill:none;stroke:#0056FF;stroke-width:2;stroke-linecap:round;stroke-miterlimit:20;}
	.st17{fill:none;stroke:#FF0003;stroke-width:2;stroke-linecap:round;stroke-miterlimit:20;}
	.st18{fill:none;stroke:#FF00C2;stroke-width:2;stroke-linecap:round;stroke-miterlimit:20;}
	.st19{fill:none;stroke:#FF0037;stroke-width:2;stroke-linecap:round;stroke-miterlimit:20;}
	.st20{fill:none;stroke:#FFAB00;stroke-width:2;stroke-linecap:round;stroke-miterlimit:20;}
	.st21{fill:none;stroke:#5DFF00;stroke-width:2;stroke-linecap:round;stroke-miterlimit:20;}
	.st22{fill:none;stroke:#FF8200;stroke-width:2;stroke-linecap:round;stroke-miterlimit:20;}
	.st23{fill:none;stroke:#FFA500;stroke-width:2;stroke-linecap:round;stroke-miterlimit:20;}
</style>
<g>
	<g transform="scale(2,2)">
		<rect y="0" width="495" height="350"/>
	</g>
	<g transform="matrix(2,0,0,2,0,0) translate(495,350)">
		<path class="st0" d="M-342.7-225.5c-0.2-51.9,112.1-9.3,117.9,2.9"/>
		<path class="st0" d="M-224.8-222.6c5.8,12.2-8.3-62.6,10.8-51.7"/>
		<path class="st0" d="M-214-274.3c19.1,10.9-0.5,221,5.3,221.5"/>
		<path class="st0" d="M-208.7-52.7c5.9,0.5-8.6-91.1,27.9-92.7"/>
		<path class="st0" d="M-180.8-145.5c36.5-1.6-161.6-28.1-161.9-80"/>
		<path class="st1" d="M-342-173.5l-0.3,0.5l-0.6-0.2v-0.6l0.6-0.2L-342-173.5z"/>
		<path class="st1" d="M-342.4-277.4l-0.3,0.5l-0.6-0.2v-0.6l0.6-0.2L-342.4-277.4z"/>
		<path class="st1" d="M-230.1-234.8l-0.3,0.5l-0.6-0.2v-0.6l0.6-0.2L-230.1-234.8z"/>
		<path class="st1" d="M-218.5-210.4l-0.3,0.5l-0.6-0.2v-0.6l0.6-0.2L-218.5-210.4z"/>
		<path class="st1" d="M-232.6-285.1l-0.3,0.5l-0.6-0.2v-0.6l0.6-0.2L-232.6-285.1z"/>
		<path class="st1" d="M-194.4-263.4l-0.3,0.5l-0.6-0.2v-0.6l0.6-0.2L-194.4-263.4z"/>
		<path class="st1" d="M-214-53.3l-0.3,0.5L-215-53v-0.6l0.6-0.2L-214-53.3z"/>
		<path class="st1" d="M-202.3-52.2l-0.3,0.5l-0.6-0.2v-0.6l0.6-0.2L-202.3-52.2z"/>
		<path class="st1" d="M-216.8-143.9l-0.3,0.5l-0.6-0.2v-0.6l0.6-0.2L-216.8-143.9z"/>
		<path class="st1" d="M-143.9-147l-0.3,0.5l-0.6-0.2v-0.6l0.6-0.2L-143.9-147z"/>
		<path class="st0" d="M-342.7-225.5c-0.2-38.9,113.6-6.3,117.9,2.9"/>
		<path class="st0" d="M-224.8-222.6c4.3,9.2-3.6-59.8,10.8-51.7"/>
		<path class="st0" d="M-214-274.3c14.3,8.2,0.9,221.1,5.3,221.5"/>
		<path class="st0" d="M-208.7-52.7c4.4,0.4,0.5-91.5,27.9-92.7"/>
		<path class="st0" d="M-180.8-145.5c27.3-1.2-161.7-41.1-161.9-80"/>
		<path class="st2" d="M-341.7-186.5l-0.6,0.8l-0.9-0.3v-0.9l0.9-0.3L-341.7-186.5z"/>
		<path class="st2" d="M-342-264.4l-0.6,0.8l-0.9-0.3v-0.9l0.9-0.3L-342-264.4z"/>
		<path class="st2" d="M-228.3-231.8l-0.6,0.8l-0.9-0.3v-0.9l0.9-0.3L-228.3-231.8z"/>
		<path class="st2" d="M-219.6-213.4l-0.6,0.8l-0.9-0.3v-0.9l0.9-0.3L-219.6-213.4z"/>
		<path class="st2" d="M-227.5-282.4l-0.6,0.8l-0.9-0.3v-0.9l0.9-0.3L-227.5-282.4z"/>
		<path class="st2" d="M-198.9-266.1l-0.6,0.8l-0.9-0.3v-0.9l0.9-0.3L-198.9-266.1z"/>
		<path class="st2" d="M-212.3-53.1l-0.6,0.8l-0.9-0.3v-0.9l0.9-0.3L-212.3-53.1z"/>
		<path class="st2" d="M-203.5-52.4l-0.6,0.8l-0.9-0.3v-0.9l0.9-0.3L-203.5-52.4z"/>
		<path class="st2" d="M-207.4-144.3l-0.6,0.8l-0.9-0.3v-0.9l0.9-0.3L-207.4-144.3z"/>
		<path class="st2" d="M-152.7-146.6l-0.6,0.8l-0.9-0.3v-0.9l0.9-0.3L-152.7-146.6z"/>
		<path class="st0" d="M-342.7-225.5c-0.1-29.2,114.6-4,117.9,2.9"/>
		<path class="st0" d="M-224.8-222.6c3.3,6.9,0-57.8,10.8-51.7"/>
		<path class="st0" d="M-214-274.3c10.7,6.1,2,221.2,5.3,221.5"/>
		<path class="st0" d="M-208.7-52.7c3.3,0.3,7.4-91.8,27.9-92.7"/>
		<path class="st0" d="M-180.8-145.5c20.5-0.9-161.7-50.8-161.9-80"/>
		<path class="st3" d="M-341.4-196.3l-0.8,1l-1.2-0.4v-1.3l1.2-0.4L-341.4-196.3z"/>
		<path class="st3" d="M-341.7-254.7l-0.8,1l-1.2-0.4v-1.3l1.2-0.4L-341.7-254.7z"/>
		<path class="st3" d="M-226.9-229.5l-0.8,1l-1.2-0.4v-1.3l1.2-0.4L-226.9-229.5z"/>
		<path class="st3" d="M-220.4-215.7l-0.8,1l-1.2-0.4v-1.3l1.2-0.4L-220.4-215.7z"/>
		<path class="st3" d="M-223.6-280.4l-0.8,1l-1.2-0.4v-1.3l1.2-0.4L-223.6-280.4z"/>
		<path class="st3" d="M-202.2-268.2l-0.8,1l-1.2-0.4v-1.3l1.2-0.4L-202.2-268.2z"/>
		<path class="st3" d="M-210.9-53l-0.8,1l-1.2-0.4v-1.3l1.2-0.4L-210.9-53z"/>
		<path class="st3" d="M-204.3-52.5l-0.8,1l-1.2-0.4v-1.3l1.2-0.4L-204.3-52.5z"/>
		<path class="st3" d="M-200.2-144.6l-0.8,1l-1.2-0.4v-1.3l1.2-0.4L-200.2-144.6z"/>
		<path class="st3" d="M-159.2-146.3l-0.8,1l-1.2-0.4v-1.3l1.2-0.4L-159.2-146.3z"/>
		<path class="st0" d="M-342.7-225.5c-0.1-21.9,115.5-2.3,117.9,2.9"/>
		<path class="st0" d="M-224.8-222.6c2.4,5.2,2.7-56.3,10.8-51.7"/>
		<path class="st0" d="M-214-274.3c8.1,4.6,2.8,221.3,5.3,221.5"/>
		<path class="st0" d="M-208.7-52.7c2.5,0.2,12.5-92,27.9-92.7"/>
		<path class="st0" d="M-180.8-145.5c15.4-0.7-161.8-58.1-161.9-80"/>
		<path class="st4" d="M-341.2-203.6l-1,1.3l-1.6-0.5v-1.6l1.6-0.5L-341.2-203.6z"/>
		<path class="st4" d="M-341.4-247.4l-1,1.3l-1.6-0.5v-1.6l1.6-0.5L-341.4-247.4z"/>
		<path class="st4" d="M-225.8-227.7l-1,1.3l-1.6-0.5v-1.6l1.6-0.5L-225.8-227.7z"/>
		<path class="st4" d="M-220.9-217.4l-1,1.3l-1.6-0.5v-1.6l1.6-0.5L-220.9-217.4z"/>
		<path class="st4" d="M-220.7-278.9l-1,1.3l-1.6-0.5v-1.6l1.6-0.5L-220.7-278.9z"/>
		<path class="st4" d="M-204.5-269.7l-1,1.3l-1.6-0.5v-1.6l1.6-0.5L-204.5-269.7z"/>
		<path class="st4" d="M-209.8-53l-1,1.3l-1.6-0.5v-1.6l1.6-0.5L-209.8-53z"/>
		<path class="st4" d="M-204.8-52.5l-1,1.3l-1.6-0.5v-1.6l1.6-0.5L-204.8-52.5z"/>
		<path class="st4" d="M-194.8-144.8l-1,1.3l-1.6-0.5v-1.6l1.6-0.5L-194.8-144.8z"/>
		<path class="st4" d="M-164-146.1l-1,1.3l-1.6-0.5v-1.6l1.6-0.5L-164-146.1z"/>
		<path class="st0" d="M-342.7-225.5c-0.1-16.4,116.1-1,117.9,2.9"/>
		<path class="st0" d="M-224.8-222.6c1.8,3.9,4.7-55.1,10.8-51.7"/>
		<path class="st0" d="M-214-274.3c6,3.4,3.5,221.4,5.3,221.5"/>
		<path class="st0" d="M-208.7-52.7c1.9,0.2,16.3-92.2,27.9-92.7"/>
		<path class="st0" d="M-180.8-145.5c11.5-0.5-161.8-63.6-161.9-80"/>
		<path class="st5" d="M-340.9-209l-1.2,1.6l-1.9-0.6v-2l1.9-0.6L-340.9-209z"/>
		<path class="st5" d="M-341-241.9l-1.2,1.6l-1.9-0.6v-2l1.9-0.6L-341-241.9z"/>
		<path class="st5" d="M-224.9-226.5l-1.2,1.6l-1.9-0.6v-2l1.9-0.6L-224.9-226.5z"/>
		<path class="st5" d="M-221.2-218.7l-1.2,1.6l-1.9-0.6v-2l1.9-0.6L-221.2-218.7z"/>
		<path class="st5" d="M-218.3-277.7l-1.2,1.6l-1.9-0.6v-2l1.9-0.6L-218.3-277.7z"/>
		<path class="st5" d="M-206.3-270.8l-1.2,1.6l-1.9-0.6v-2l1.9-0.6L-206.3-270.8z"/>
		<path class="st5" d="M-208.8-52.9l-1.2,1.6l-1.9-0.6v-2l1.9-0.6L-208.8-52.9z"/>
		<path class="st5" d="M-205.1-52.6l-1.2,1.6l-1.9-0.6v-2l1.9-0.6L-205.1-52.6z"/>
		<path class="st5" d="M-190.7-145l-1.2,1.6l-1.9-0.6v-2l1.9-0.6L-190.7-145z"/>
		<path class="st5" d="M-167.6-146l-1.2,1.6l-1.9-0.6v-2l1.9-0.6L-167.6-146z"/>
		<path class="st0" d="M-342.7-225.5c-0.1-12.3,116.5,0,117.9,2.9"/>
		<path class="st0" d="M-224.8-222.6c1.4,2.9,6.2-54.3,10.8-51.7"/>
		<path class="st0" d="M-214-274.3c4.5,2.6,3.9,221.4,5.3,221.5"/>
		<path class="st0" d="M-208.7-52.7c1.4,0.1,19.2-92.3,27.9-92.7"/>
		<path class="st0" d="M-180.8-145.5c8.7-0.4-161.8-67.7-161.9-80"/>
		<path class="st6" d="M-340.6-213.2l-1.4,1.9l-2.2-0.7v-2.4l2.2-0.7L-340.6-213.2z"/>
		<path class="st6" d="M-340.7-237.8l-1.4,1.9l-2.2-0.7v-2.4l2.2-0.7L-340.7-237.8z"/>
		<path class="st6" d="M-224.1-225.5l-1.4,1.9l-2.2-0.7v-2.4l2.2-0.7L-224.1-225.5z"/>
		<path class="st6" d="M-221.4-219.7l-1.4,1.9l-2.2-0.7v-2.4l2.2-0.7L-221.4-219.7z"/>
		<path class="st6" d="M-216.5-276.9l-1.4,1.9l-2.2-0.7v-2.4l2.2-0.7L-216.5-276.9z"/>
		<path class="st6" d="M-207.5-271.7l-1.4,1.9l-2.2-0.7v-2.4l2.2-0.7L-207.5-271.7z"/>
		<path class="st6" d="M-208.1-52.9l-1.4,1.9l-2.2-0.7v-2.4l2.2-0.7L-208.1-52.9z"/>
		<path class="st6" d="M-205.3-52.6l-1.4,1.9l-2.2-0.7v-2.4l2.2-0.7L-205.3-52.6z"/>
		<path class="st6" d="M-187.5-145.1l-1.4,1.9l-2.2-0.7v-2.4l2.2-0.7L-187.5-145.1z"/>
		<path class="st6" d="M-170.2-145.8l-1.4,1.9l-2.2-0.7v-2.4l2.2-0.7L-170.2-145.8z"/>
		<path class="st0" d="M-342.7-225.5c0-9.2,116.9,0.7,117.9,2.9"/>
		<path class="st0" d="M-224.8-222.6c1,2.2,7.4-53.6,10.8-51.7"/>
		<path class="st0" d="M-214-274.3c3.4,1.9,4.3,221.4,5.3,221.5"/>
		<path class="st0" d="M-208.7-52.7c1,0.1,21.4-92.4,27.9-92.7"/>
		<path class="st0" d="M-180.8-145.5c6.5-0.3-161.8-70.8-161.9-80"/>
		<path class="st7" d="M-340.3-216.2l-1.6,2.2l-2.6-0.8v-2.7l2.6-0.8L-340.3-216.2z"/>
		<path class="st7" d="M-340.4-234.7l-1.6,2.2l-2.6-0.8v-2.7l2.6-0.8L-340.4-234.7z"/>
		<path class="st7" d="M-223.5-224.8l-1.6,2.2l-2.6-0.8v-2.7l2.6-0.8L-223.5-224.8z"/>
		<path class="st7" d="M-221.4-220.4l-1.6,2.2l-2.6-0.8v-2.7l2.6-0.8L-221.4-220.4z"/>
		<path class="st7" d="M-215.1-276.2l-1.6,2.2l-2.6-0.8v-2.7l2.6-0.8L-215.1-276.2z"/>
		<path class="st7" d="M-208.3-272.3l-1.6,2.2l-2.6-0.8v-2.7l2.6-0.8L-208.3-272.3z"/>
		<path class="st7" d="M-207.4-52.8l-1.6,2.2l-2.6-0.8v-2.7l2.6-0.8L-207.4-52.8z"/>
		<path class="st7" d="M-205.3-52.7l-1.6,2.2l-2.6-0.8V-54l2.6-0.8L-205.3-52.7z"/>
		<path class="st7" d="M-185-145.2l-1.6,2.2l-2.6-0.8v-2.7l2.6-0.8L-185-145.2z"/>
		<path class="st7" d="M-172-145.7l-1.6,2.2l-2.6-0.8v-2.7l2.6-0.8L-172-145.7z"/>
		<path class="st0" d="M-342.7-225.5c0-6.9,117.1,1.3,117.9,2.9"/>
		<path class="st0" d="M-224.8-222.6c0.8,1.6,8.2-53.1,10.8-51.7"/>
		<path class="st0" d="M-214-274.3c2.6,1.5,4.5,221.5,5.3,221.5"/>
		<path class="st0" d="M-208.7-52.7c0.8,0.1,23-92.5,27.9-92.7"/>
		<path class="st0" d="M-180.8-145.5c4.9-0.2-161.8-73.1-161.9-80"/>
		<path class="st8" d="M-340-218.5l-1.8,2.5l-2.9-0.9v-3.1l2.9-0.9L-340-218.5z"/>
		<path class="st8" d="M-340.1-232.4l-1.8,2.5l-2.9-0.9v-3.1l2.9-0.9L-340.1-232.4z"/>
		<path class="st8" d="M-222.9-224.2l-1.8,2.5l-2.9-0.9v-3.1l2.9-0.9L-222.9-224.2z"/>
		<path class="st8" d="M-221.4-221l-1.8,2.5l-2.9-0.9v-3.1l2.9-0.9L-221.4-221z"/>
		<path class="st8" d="M-213.9-275.7l-1.8,2.5l-2.9-0.9v-3.1l2.9-0.9L-213.9-275.7z"/>
		<path class="st8" d="M-208.8-272.8l-1.8,2.5l-2.9-0.9v-3.1l2.9-0.9L-208.8-272.8z"/>
		<path class="st8" d="M-206.9-52.8l-1.8,2.5l-2.9-0.9v-3.1l2.9-0.9L-206.9-52.8z"/>
		<path class="st8" d="M-205.3-52.7l-1.8,2.5l-2.9-0.9v-3.1l2.9-0.9L-205.3-52.7z"/>
		<path class="st8" d="M-183.1-145.2l-1.8,2.5l-2.9-0.9v-3.1l2.9-0.9L-183.1-145.2z"/>
		<path class="st8" d="M-173.4-145.7l-1.8,2.5l-2.9-0.9v-3.1l2.9-0.9L-173.4-145.7z"/>
		<path class="st0" d="M-342.7-225.5c0-5.2,117.3,1.7,117.9,2.9"/>
		<path class="st0" d="M-224.8-222.6c0.6,1.2,8.9-52.8,10.8-51.7"/>
		<path class="st0" d="M-214-274.3c1.9,1.1,4.7,221.5,5.3,221.5"/>
		<path class="st0" d="M-208.7-52.7c0.6,0.1,24.2-92.6,27.9-92.7"/>
		<path class="st0" d="M-180.8-145.5c3.6-0.2-161.8-74.8-161.9-80"/>
		<path class="st9" d="M-339.8-220.3l-2,2.8l-3.2-1.1l0-3.4l3.2-1.1L-339.8-220.3z"/>
		<path class="st9" d="M-339.8-230.7l-2,2.8l-3.2-1.1v-3.4l3.2-1.1L-339.8-230.7z"/>
		<path class="st9" d="M-222.5-223.8l-2,2.8l-3.2-1.1v-3.4l3.2-1.1L-222.5-223.8z"/>
		<path class="st9" d="M-221.3-221.4l-2,2.8l-3.2-1.1v-3.4l3.2-1.1L-221.3-221.4z"/>
		<path class="st9" d="M-213-275.4l-2,2.8l-3.2-1.1v-3.4l3.2-1.1L-213-275.4z"/>
		<path class="st9" d="M-209.2-273.2l-2,2.8l-3.2-1.1v-3.4l3.2-1.1L-209.2-273.2z"/>
		<path class="st9" d="M-206.4-52.8l-2,2.8l-3.2-1.1v-3.4l3.2-1.1L-206.4-52.8z"/>
		<path class="st9" d="M-205.2-52.7l-2,2.8l-3.2-1.1v-3.4l3.2-1.1L-205.2-52.7z"/>
		<path class="st9" d="M-181.6-145.3l-2,2.8l-3.2-1.1v-3.4l3.2-1.1L-181.6-145.3z"/>
		<path class="st9" d="M-174.3-145.6l-2,2.8l-3.2-1.1v-3.4l3.2-1.1L-174.3-145.6z"/>
		<path class="st0" d="M-342.7-225.5c0-3.9,117.5,2,117.9,2.9"/>
		<path class="st0" d="M-224.8-222.6c0.4,0.9,9.3-52.5,10.8-51.7"/>
		<path class="st0" d="M-214-274.3c1.4,0.8,4.9,221.5,5.3,221.5"/>
		<path class="st0" d="M-208.7-52.7c0.4,0,25.1-92.6,27.9-92.7"/>
		<path class="st0" d="M-180.8-145.5c2.7-0.1-161.8-76.1-161.9-80"/>
		<path class="st10" d="M-339.5-221.6l-2.2,3l-3.6-1.2v-3.8l3.6-1.2L-339.5-221.6z"/>
		<path class="st10" d="M-339.5-229.4l-2.2,3l-3.6-1.2v-3.8l3.6-1.2L-339.5-229.4z"/>
		<path class="st10" d="M-222-223.5l-2.2,3l-3.6-1.2v-3.8l3.6-1.2L-222-223.5z"/>
		<path class="st10" d="M-221.1-221.7l-2.2,3l-3.6-1.2v-3.8l3.6-1.2L-221.1-221.7z"/>
		<path class="st10" d="M-212.2-275.1l-2.2,3l-3.6-1.2v-3.8l3.6-1.2L-212.2-275.1z"/>
		<path class="st10" d="M-209.4-273.5l-2.2,3l-3.6-1.2v-3.8l3.6-1.2L-209.4-273.5z"/>
		<path class="st10" d="M-205.9-52.8l-2.2,3l-3.6-1.2v-3.8l3.6-1.2L-205.9-52.8z"/>
		<path class="st10" d="M-205-52.7l-2.2,3l-3.6-1.2v-3.8l3.6-1.2L-205-52.7z"/>
		<path class="st10" d="M-180.4-145.3l-2.2,3l-3.6-1.2v-3.8l3.6-1.2L-180.4-145.3z"/>
		<path class="st10" d="M-174.9-145.6l-2.2,3l-3.6-1.2v-3.8l3.6-1.2L-174.9-145.6z"/>
		<path class="st0" d="M-473.1-331c-2.3,5.4,38.3,23.9,33.6,31.3"/>
		<path class="st0" d="M-439.4-299.8c-4.7,7.3-31.3-36.7-33.6-31.3"/>
		<path class="st11" d="M-468.5-336.4l-1.6,2.2l-2.6-0.8v-2.7l2.6-0.8L-468.5-336.4z"/>
		<path class="st11" d="M-473.1-325.6l-1.6,2.2l-2.6-0.8v-2.7l2.6-0.8L-473.1-325.6z"/>
		<path class="st11" d="M-432.5-307.1l-1.6,2.2l-2.6-0.8v-2.7l2.6-0.8L-432.5-307.1z"/>
		<path class="st11" d="M-441.8-292.4l-1.6,2.2l-2.6-0.8v-2.7l2.6-0.8L-441.8-292.4z"/>
		<path class="st0" d="M-448.5-228.7c-27.1-7.7-5.3,1.5-13.5,9"/>
		<path class="st0" d="M-462-219.7c-8.1,7.5,40.6-1.2,13.5-9"/>
		<path class="st12" d="M-419.1-221l-1.6,2.2l-2.6-0.8v-2.7l2.6-0.8L-419.1-221z"/>
		<path class="st12" d="M-473.3-236.4l-1.6,2.2l-2.6-0.8v-2.7l2.6-0.8L-473.3-236.4z"/>
		<path class="st12" d="M-451.6-227.2l-1.6,2.2l-2.6-0.8v-2.7l2.6-0.8L-451.6-227.2z"/>
		<path class="st12" d="M-467.8-212.3l-1.6,2.2l-2.6-0.8v-2.7l2.6-0.8L-467.8-212.3z"/>
		<path class="st0" d="M-421.8-136c2.2,13.5-56-7.1-61-14.2"/>
		<path class="st0" d="M-482.8-150.2c-5.1-7.1,58.8,0.7,61,14.2"/>
		<path class="st13" d="M-421.7-149.5l-1.6,2.2l-2.6-0.8v-2.7l2.6-0.8L-421.7-149.5z"/>
		<path class="st13" d="M-417.3-122.5l-1.6,2.2l-2.6-0.8v-2.7l2.6-0.8L-417.3-122.5z"/>
		<path class="st13" d="M-475.5-143.1l-1.6,2.2l-2.6-0.8v-2.7l2.6-0.8L-475.5-143.1z"/>
		<path class="st13" d="M-485.6-157.3l-1.6,2.2l-2.6-0.8v-2.7l2.6-0.8L-485.6-157.3z"/>
		<path class="st0" d="M-465.1-39.7c-3.4-14,33.7-31.5,24.4-33.9"/>
		<path class="st0" d="M-440.7-73.6c-9.3-2.4-21,47.9-24.4,33.9"/>
		<path class="st14" d="M-459.4-25.7l-1.6,2.2l-2.6-0.8V-27l2.6-0.8L-459.4-25.7z"/>
		<path class="st14" d="M-466.2-53.7l-1.6,2.2l-2.6-0.8V-55l2.6-0.8L-466.2-53.7z"/>
		<path class="st14" d="M-429.1-71.2l-1.6,2.2l-2.6-0.8v-2.7l2.6-0.8L-429.1-71.2z"/>
		<path class="st14" d="M-447.7-76l-1.6,2.2l-2.6-0.8v-2.7l2.6-0.8L-447.7-76z"/>
		<path class="st0" d="M-377.7-292.3c-5.4-3.1,56.3-41.1,51.9-36.8"/>
		<path class="st0" d="M-325.8-329.1c-4.3,4.3-46.6,39.9-51.9,36.8"/>
		<path class="st15" d="M-370.1-289.2l-1.6,2.2l-2.6-0.8v-2.7l2.6-0.8L-370.1-289.2z"/>
		<path class="st15" d="M-380.8-295.4l-1.6,2.2l-2.6-0.8v-2.7l2.6-0.8L-380.8-295.4z"/>
		<path class="st15" d="M-319.2-333.4l-1.6,2.2l-2.6-0.8v-2.7l2.6-0.8L-319.2-333.4z"/>
		<path class="st15" d="M-327.8-324.8l-1.6,2.2l-2.6-0.8v-2.7l2.6-0.8L-327.8-324.8z"/>
		<path class="st0" d="M-366-64.5c-12.4,10.5,41.6,38.4,32.8,13.1"/>
		<path class="st0" d="M-333.2-51.3c-8.8-25.2-20.3-23.6-32.8-13.1"/>
		<path class="st16" d="M-351.3-74.9l-1.6,2.2l-2.6-0.8v-2.7l2.6-0.8L-351.3-74.9z"/>
		<path class="st16" d="M-376.1-54l-1.6,2.2l-2.6-0.8v-2.7l2.6-0.8L-376.1-54z"/>
		<path class="st16" d="M-322.1-26.1l-1.6,2.2l-2.6-0.8v-2.7l2.6-0.8L-322.1-26.1z"/>
		<path class="st16" d="M-339.7-76.6l-1.6,2.2l-2.6-0.8v-2.7l2.6-0.8L-339.7-76.6z"/>
		<path class="st0" d="M-224.1-297.5c3.6-4.4,2,9.4,2.1-15.5"/>
		<path class="st0" d="M-221.9-312.9c0.1-24.9-5.7,19.9-2.1,15.5"/>
		<path class="st17" d="M-225.4-293l-1.6,2.2l-2.6-0.8v-2.7l2.6-0.8L-225.4-293z"/>
		<path class="st17" d="M-218.2-301.9l-1.6,2.2l-2.6-0.8v-2.7l2.6-0.8L-218.2-301.9z"/>
		<path class="st17" d="M-219.8-288l-1.6,2.2l-2.6-0.8v-2.7l2.6-0.8L-219.8-288z"/>
		<path class="st17" d="M-219.5-337.8l-1.6,2.2l-2.6-0.8v-2.7l2.6-0.8L-219.5-337.8z"/>
		<path class="st0" d="M-236.8-46.8c9.4,9.7,4.9,7.3,10.3-5"/>
		<path class="st0" d="M-226.5-51.9c5.5-12.3-19.7-4.7-10.3,5"/>
		<path class="st18" d="M-243.9-56.6l-1.6,2.2l-2.6-0.8v-2.7l2.6-0.8L-243.9-56.6z"/>
		<path class="st18" d="M-225.1-37.1l-1.6,2.2l-2.6-0.8v-2.7l2.6-0.8L-225.1-37.1z"/>
		<path class="st18" d="M-229.7-39.6l-1.6,2.2l-2.6-0.8v-2.7l2.6-0.8L-229.7-39.6z"/>
		<path class="st18" d="M-218.7-64.2l-1.6,2.2l-2.6-0.8v-2.7l2.6-0.8L-218.7-64.2z"/>
		<path class="st0" d="M-137.6-35.7c13.9-1.8-47.5,9.3-39.9,0.4"/>
		<path class="st0" d="M-177.5-35.3c7.6-8.9,26,1.4,39.9-0.4"/>
		<path class="st19" d="M-149.2-34l-1.6,2.2l-2.6-0.8v-2.7l2.6-0.8L-149.2-34z"/>
		<path class="st19" d="M-121.5-37.5l-1.6,2.2l-2.6-0.8v-2.7l2.6-0.8L-121.5-37.5z"/>
		<path class="st19" d="M-182.8-26.4l-1.6,2.2l-2.6-0.8v-2.7l2.6-0.8L-182.8-26.4z"/>
		<path class="st19" d="M-167.6-44.2l-1.6,2.2l-2.6-0.8v-2.7l2.6-0.8L-167.6-44.2z"/>
		<path class="st0" d="M-52.8-309.6c12.9-2.1-9.1-15.4-14.9-0.9"/>
		<path class="st0" d="M-67.7-310.4c-5.8,14.5,2,3,14.9,0.9"/>
		<path class="st20" d="M-63.5-307.4l-1.6,2.2l-2.6-0.8v-2.7l2.6-0.8L-63.5-307.4z"/>
		<path class="st20" d="M-37.6-311.7l-1.6,2.2l-2.6-0.8v-2.7l2.6-0.8L-37.6-311.7z"/>
		<path class="st20" d="M-59.7-325l-1.6,2.2l-2.6-0.8v-2.7l2.6-0.8L-59.7-325z"/>
		<path class="st20" d="M-71.2-295.9l-1.6,2.2l-2.6-0.8v-2.7l2.6-0.8L-71.2-295.9z"/>
		<path class="st0" d="M-81-212.3c-1.7,7.9,45.6-19.6,25.1-16.6"/>
		<path class="st0" d="M-55.9-228.9c-20.5,3-23.4,8.7-25.1,16.6"/>
		<path class="st21" d="M-77-220.2l-1.6,2.2l-2.6-0.8v-2.7l2.6-0.8L-77-220.2z"/>
		<path class="st21" d="M-80.4-204.4l-1.6,2.2l-2.6-0.8v-2.7l2.6-0.8L-80.4-204.4z"/>
		<path class="st21" d="M-33.1-231.9l-1.6,2.2l-2.6-0.8v-2.7l2.6-0.8L-33.1-231.9z"/>
		<path class="st21" d="M-74-226l-1.6,2.2l-2.6-0.8v-2.7l2.6-0.8L-74-226z"/>
		<path class="st0" d="M-33.8-139.6c10.1-3-13.9,23.1-8.3,13.5"/>
		<path class="st0" d="M-42.1-126c5.6-9.6-1.7-10.5,8.3-13.5"/>
		<path class="st22" d="M-41.5-136.5l-1.6,2.2l-2.6-0.8v-2.7l2.6-0.8L-41.5-136.5z"/>
		<path class="st22" d="M-21.4-142.6l-1.6,2.2l-2.6-0.8v-2.7l2.6-0.8L-21.4-142.6z"/>
		<path class="st22" d="M-45.4-116.4l-1.6,2.2l-2.6-0.8v-2.7l2.6-0.8L-45.4-116.4z"/>
		<path class="st22" d="M-34.2-135.7l-1.6,2.2l-2.6-0.8v-2.7l2.6-0.8L-34.2-135.7z"/>
		<path class="st0" d="M-76.4-55.9c17.2,4.6,54-10.6,52.2,3.9"/>
		<path class="st0" d="M-24.2-52.1c-1.7,14.5-69.4-8.4-52.2-3.9"/>
		<path class="st23" d="M-91.3-60.5l-1.6,2.2l-2.6-0.8v-2.7l2.6-0.8L-91.3-60.5z"/>
		<path class="st23" d="M-56.9-51.4l-1.6,2.2l-2.6-0.8v-2.7l2.6-0.8L-56.9-51.4z"/>
		<path class="st23" d="M-20.1-66.6l-1.6,2.2l-2.6-0.8v-2.7l2.6-0.8L-20.1-66.6z"/>
		<path class="st23" d="M-23.6-37.5l-1.6,2.2l-2.6-0.8v-2.7l2.6-0.8L-23.6-37.5z"/>
	</g>
</g>
</svg>
