<?xml version="1.0" encoding="utf-8"?>
<!-- Generator: Adobe Illustrator 26.1.0, SVG Export Plug-In . SVG Version: 6.00 Build 0)  -->
<svg version="1.1" id="Ebene_1" xmlns="http://www.w3.org/2000/svg" xmlns:xlink="http://www.w3.org/1999/xlink" x="0px" y="0px"
	 viewBox="0 0 990 700" style="enable-background:new 0 0 990 700;" xml:space="preserve">
<style type="text/css">
	.st0{fill:none;stroke:#FFFFFF;stroke-width:2;stroke-linecap:round;stroke-miterlimit:20;}
	.st1{fill:none;stroke:#0053FF;stroke-width:2;stroke-linecap:round;stroke-miterlimit:20;}
	.st2{fill:none;stroke:#FFC200;stroke-width:2;stroke-linecap:round;stroke-miterlimit:20;}
	.st3{fill:none;stroke:#00FFF6;stroke-width:2;stroke-linecap:round;stroke-miterlimit:20;}
	.st4{fill:none;stroke:#FFED00;stroke-width:2;stroke-linecap:round;stroke-miterlimit:20;}
	.st5{fill:none;stroke:#FF005E;stroke-width:2;stroke-linecap:round;stroke-miterlimit:20;}
	.st6{fill:none;stroke:#FF9C00;stroke-width:2;stroke-linecap:round;stroke-miterlimit:20;}
	.st7{fill:none;stroke:#AA00FF;stroke-width:2;stroke-linecap:round;stroke-miterlimit:20;}
	.st8{fill:none;stroke:#AB00FF;stroke-width:2;stroke-linecap:round;stroke-miterlimit:20;}
	.st9{fill:none;stroke:#00FF9C;stroke-width:2;stroke-linecap:round;stroke-miterlimit:20;}
	.st10{fill:none;stroke:#6700FF;stroke-width:2;stroke-linecap:round;stroke-miterlimit:20;}
	.st11{fill:none;stroke:#FFDE00;stroke-width:2;stroke-linecap:round;stroke-miterlimit:20;}
	.st12{fill:none;stroke:#ABFF00;stroke-width:2;stroke-linecap:round;stroke-miterlimit:20;}
	.st13{fill:none;stroke:#00E3FF;stroke-width:2;stroke-linecap:round;stroke-miterlimit:20;}
	.st14{fill:none;stroke:#9DFF00;stroke-width:2;stroke-linecap:round;stroke-miterlimit:20;}
	.st15{fill:none;stroke:#D1FF00;stroke-width:2;stroke-linecap:round;stroke-miterlimit:20;}
	.st16{fill:none;stroke:#00FF0B;stroke-width:2;stroke-linecap:round;stroke-miterlimit:20;}
	.st17{fill:none;stroke:#FF0083;stroke-width:2;stroke-linecap:round;stroke-miterlimit:20;}
	.st18{fill:none;stroke:#5700FF;stroke-width:2;stroke-linecap:round;stroke-miterlimit:20;}
	.st19{fill:none;stroke:#6000FF;stroke-width:2;stroke-linecap:round;stroke-miterlimit:20;}
	.st20{fill:none;stroke:#00FF8D;stroke-width:2;stroke-linecap:round;stroke-miterlimit:20;}
	.st21{fill:none;stroke:#00FF1F;stroke-width:2;stroke-linecap:round;stroke-miterlimit:20;}
	.st22{fill:none;stroke:#FF6100;stroke-width:2;stroke-linecap:round;stroke-miterlimit:20;}
	.st23{fill:none;stroke:#5900FF;stroke-width:2;stroke-linecap:round;stroke-miterlimit:20;}
	.st24{fill:none;stroke:#00FFE6;stroke-width:2;stroke-linecap:round;stroke-miterlimit:20;}
</style>
<g>
	<g transform="scale(2,2)">
		<rect y="0" width="495.7" height="350.5"/>
	</g>
	<g transform="matrix(2,0,0,2,0,0) translate(495,350)">
		<path class="st0" d="M-217-145.9c-2.5,90.3,73.1-130.2,39.3-98.3"/>
		<path class="st0" d="M-177.7-244.2c-33.8,31.9-16.7,45.5,9.1,24.3"/>
		<path class="st0" d="M-168.6-219.9c25.8-21.2-178.6-5.9-155.1-20.6"/>
		<path class="st0" d="M-323.7-240.5c23.5-14.8,170.1-51.1,91.2-6.5"/>
		<path class="st0" d="M-232.5-247c-78.9,44.6,18,10.7,15.5,101"/>
		<path class="st1" d="M-214-236.2l-0.3,0.5l-0.6-0.2v-0.6l0.6-0.2L-214-236.2z"/>
		<path class="st1" d="M-219-55.6l-0.3,0.5l-0.6-0.2v-0.6l0.6-0.2L-219-55.6z"/>
		<path class="st1" d="M-143.4-276.1l-0.3,0.5l-0.6-0.2v-0.6l0.6-0.2L-143.4-276.1z"/>
		<path class="st1" d="M-211-212.3l-0.3,0.5l-0.6-0.2v-0.6l0.6-0.2L-211-212.3z"/>
		<path class="st1" d="M-193.9-198.7l-0.3,0.5l-0.6-0.2v-0.6l0.6-0.2L-193.9-198.7z"/>
		<path class="st1" d="M-142.3-241.1l-0.3,0.5l-0.6-0.2v-0.6l0.6-0.2L-142.3-241.1z"/>
		<path class="st1" d="M-346.7-225.7l-0.3,0.5l-0.6-0.2v-0.6l0.6-0.2L-346.7-225.7z"/>
		<path class="st1" d="M-299.7-255.2l-0.3,0.5l-0.6-0.2v-0.6l0.6-0.2L-299.7-255.2z"/>
		<path class="st1" d="M-153.1-291.5l-0.3,0.5l-0.6-0.2v-0.6l0.6-0.2L-153.1-291.5z"/>
		<path class="st1" d="M-310.9-202.4l-0.3,0.5l-0.6-0.2v-0.6l0.6-0.2L-310.9-202.4z"/>
		<path class="st0" d="M-217-145.9c-1.9,67.7,64.7-122.2,39.3-98.3"/>
		<path class="st0" d="M-177.7-244.2c-25.3,23.9-10.2,40.2,9.1,24.3"/>
		<path class="st0" d="M-168.6-219.9c19.3-15.9-172.7-9.5-155.1-20.6"/>
		<path class="st0" d="M-323.7-240.5c17.6-11.1,150.4-39.9,91.2-6.5"/>
		<path class="st0" d="M-232.5-247c-59.2,33.4,17.3,33.3,15.5,101"/>
		<path class="st2" d="M-214.4-213.6l-0.6,0.8l-0.9-0.3v-0.9l0.9-0.3L-214.4-213.6z"/>
		<path class="st2" d="M-218.1-78.2l-0.6,0.8l-0.9-0.3v-0.9l0.9-0.3L-218.1-78.2z"/>
		<path class="st2" d="M-151.6-268.1l-0.6,0.8l-0.9-0.3v-0.9l0.9-0.3L-151.6-268.1z"/>
		<path class="st2" d="M-202.2-220.3l-0.6,0.8l-0.9-0.3v-0.9l0.9-0.3L-202.2-220.3z"/>
		<path class="st2" d="M-187.1-204l-0.6,0.8l-0.9-0.3v-0.9l0.9-0.3L-187.1-204z"/>
		<path class="st2" d="M-148.5-235.8l-0.6,0.8l-0.9-0.3v-0.9l0.9-0.3L-148.5-235.8z"/>
		<path class="st2" d="M-340.5-229.4l-0.6,0.8l-0.9-0.3v-0.9l0.9-0.3L-340.5-229.4z"/>
		<path class="st2" d="M-305.3-251.5l-0.6,0.8l-0.9-0.3v-0.9l0.9-0.3L-305.3-251.5z"/>
		<path class="st2" d="M-172.5-280.4l-0.6,0.8l-0.9-0.3v-0.9l0.9-0.3L-172.5-280.4z"/>
		<path class="st2" d="M-290.9-213.5l-0.6,0.8l-0.9-0.3v-0.9l0.9-0.3L-290.9-213.5z"/>
		<path class="st0" d="M-217-145.9c-1.4,50.8,58.3-116.2,39.3-98.3"/>
		<path class="st0" d="M-177.7-244.2c-19,17.9-5.4,36.3,9.1,24.3"/>
		<path class="st0" d="M-168.6-219.9c14.5-11.9-168.3-12.3-155.1-20.6"/>
		<path class="st0" d="M-323.7-240.5c13.2-8.3,135.6-31.6,91.2-6.5"/>
		<path class="st0" d="M-232.5-247c-44.4,25.1,16.9,50.2,15.5,101"/>
		<path class="st3" d="M-214.5-196.7l-0.8,1l-1.2-0.4v-1.3l1.2-0.4L-214.5-196.7z"/>
		<path class="st3" d="M-217.3-95.1l-0.8,1l-1.2-0.4v-1.3l1.2-0.4L-217.3-95.1z"/>
		<path class="st3" d="M-157.6-262.1l-0.8,1l-1.2-0.4v-1.3l1.2-0.4L-157.6-262.1z"/>
		<path class="st3" d="M-195.6-226.3l-0.8,1l-1.2-0.4v-1.3l1.2-0.4L-195.6-226.3z"/>
		<path class="st3" d="M-182-207.9l-0.8,1l-1.2-0.4v-1.3l1.2-0.4L-182-207.9z"/>
		<path class="st3" d="M-153-231.8l-0.8,1l-1.2-0.4v-1.3l1.2-0.4L-153-231.8z"/>
		<path class="st3" d="M-335.8-232.2l-0.8,1l-1.2-0.4v-1.3l1.2-0.4L-335.8-232.2z"/>
		<path class="st3" d="M-309.4-248.8l-0.8,1l-1.2-0.4v-1.3l1.2-0.4L-309.4-248.8z"/>
		<path class="st3" d="M-187-272l-0.8,1l-1.2-0.4v-1.3l1.2-0.4L-187-272z"/>
		<path class="st3" d="M-275.8-221.9l-0.8,1l-1.2-0.4v-1.3l1.2-0.4L-275.8-221.9z"/>
		<path class="st0" d="M-217-145.9c-1.1,38.1,53.6-111.8,39.3-98.3"/>
		<path class="st0" d="M-177.7-244.2c-14.3,13.4-1.8,33.3,9.1,24.3"/>
		<path class="st0" d="M-168.6-219.9c10.9-8.9-165-14.4-155.1-20.6"/>
		<path class="st0" d="M-323.7-240.5c9.9-6.2,124.5-25.3,91.2-6.5"/>
		<path class="st0" d="M-232.5-247c-33.3,18.8,16.5,62.9,15.5,101"/>
		<path class="st4" d="M-214.6-184l-1,1.3l-1.6-0.5v-1.6l1.6-0.5L-214.6-184z"/>
		<path class="st4" d="M-216.7-107.8l-1,1.3l-1.6-0.5v-1.6l1.6-0.5L-216.7-107.8z"/>
		<path class="st4" d="M-162.1-257.7l-1,1.3l-1.6-0.5v-1.6l1.6-0.5L-162.1-257.7z"/>
		<path class="st4" d="M-190.6-230.8l-1,1.3l-1.6-0.5v-1.6l1.6-0.5L-190.6-230.8z"/>
		<path class="st4" d="M-178.1-210.9l-1,1.3l-1.6-0.5v-1.6l1.6-0.5L-178.1-210.9z"/>
		<path class="st4" d="M-156.3-228.8l-1,1.3l-1.6-0.5v-1.6l1.6-0.5L-156.3-228.8z"/>
		<path class="st4" d="M-332.2-234.3l-1,1.3l-1.6-0.5v-1.6l1.6-0.5L-332.2-234.3z"/>
		<path class="st4" d="M-312.4-246.7l-1,1.3l-1.6-0.5v-1.6l1.6-0.5L-312.4-246.7z"/>
		<path class="st4" d="M-197.8-265.8l-1,1.3l-1.6-0.5v-1.6l1.6-0.5L-197.8-265.8z"/>
		<path class="st4" d="M-264.4-228.1l-1,1.3l-1.6-0.5v-1.6l1.6-0.5L-264.4-228.1z"/>
		<path class="st0" d="M-217-145.9c-0.8,28.6,50-108.4,39.3-98.3"/>
		<path class="st0" d="M-177.7-244.2c-10.7,10.1,1,31.1,9.1,24.3"/>
		<path class="st0" d="M-168.6-219.9c8.2-6.7-162.5-15.9-155.1-20.6"/>
		<path class="st0" d="M-323.7-240.5c7.4-4.7,116.2-20.6,91.2-6.5"/>
		<path class="st0" d="M-232.5-247c-25,14.1,16.3,72.5,15.5,101"/>
		<path class="st5" d="M-214.5-174.5l-1.2,1.6l-1.9-0.6v-2l1.9-0.6L-214.5-174.5z"/>
		<path class="st5" d="M-216.1-117.3l-1.2,1.6l-1.9-0.6v-2l1.9-0.6L-216.1-117.3z"/>
		<path class="st5" d="M-165.3-254.3l-1.2,1.6l-1.9-0.6v-2l1.9-0.6L-165.3-254.3z"/>
		<path class="st5" d="M-186.7-234.1l-1.2,1.6l-1.9-0.6v-2l1.9-0.6L-186.7-234.1z"/>
		<path class="st5" d="M-175-213.2l-1.2,1.6l-1.9-0.6v-2l1.9-0.6L-175-213.2z"/>
		<path class="st5" d="M-158.7-226.6l-1.2,1.6l-1.9-0.6v-2l1.9-0.6L-158.7-226.6z"/>
		<path class="st5" d="M-329.4-235.8l-1.2,1.6l-1.9-0.6v-2l1.9-0.6L-329.4-235.8z"/>
		<path class="st5" d="M-314.6-245.1l-1.2,1.6l-1.9-0.6v-2l1.9-0.6L-314.6-245.1z"/>
		<path class="st5" d="M-205.8-261.1l-1.2,1.6l-1.9-0.6v-2l1.9-0.6L-205.8-261.1z"/>
		<path class="st5" d="M-255.8-232.8l-1.2,1.6l-1.9-0.6v-2l1.9-0.6L-255.8-232.8z"/>
		<path class="st0" d="M-217-145.9c-0.6,21.4,47.3-105.9,39.3-98.3"/>
		<path class="st0" d="M-177.7-244.2c-8,7.6,3,29.4,9.1,24.3"/>
		<path class="st0" d="M-168.6-219.9c6.1-5-160.7-17.1-155.1-20.6"/>
		<path class="st0" d="M-323.7-240.5c5.6-3.5,109.9-17.1,91.2-6.5"/>
		<path class="st0" d="M-232.5-247c-18.7,10.6,16.1,79.6,15.5,101"/>
		<path class="st6" d="M-214.4-167.3l-1.4,1.9l-2.2-0.7v-2.4l2.2-0.7L-214.4-167.3z"/>
		<path class="st6" d="M-215.6-124.5l-1.4,1.9l-2.2-0.7v-2.4l2.2-0.7L-215.6-124.5z"/>
		<path class="st6" d="M-167.7-251.8l-1.4,1.9l-2.2-0.7v-2.4l2.2-0.7L-167.7-251.8z"/>
		<path class="st6" d="M-183.7-236.6l-1.4,1.9l-2.2-0.7v-2.4l2.2-0.7L-183.7-236.6z"/>
		<path class="st6" d="M-172.7-214.8l-1.4,1.9l-2.2-0.7v-2.4l2.2-0.7L-172.7-214.8z"/>
		<path class="st6" d="M-160.5-224.9l-1.4,1.9l-2.2-0.7v-2.4l2.2-0.7L-160.5-224.9z"/>
		<path class="st6" d="M-327.3-237l-1.4,1.9l-2.2-0.7v-2.4l2.2-0.7L-327.3-237z"/>
		<path class="st6" d="M-316.1-244l-1.4,1.9l-2.2-0.7v-2.4l2.2-0.7L-316.1-244z"/>
		<path class="st6" d="M-211.8-257.5l-1.4,1.9l-2.2-0.7v-2.4l2.2-0.7L-211.8-257.5z"/>
		<path class="st6" d="M-249.2-236.4l-1.4,1.9l-2.2-0.7v-2.4l2.2-0.7L-249.2-236.4z"/>
		<path class="st0" d="M-217-145.9c-0.4,16.1,45.3-104,39.3-98.3"/>
		<path class="st0" d="M-177.7-244.2c-6,5.7,4.5,28.1,9.1,24.3"/>
		<path class="st0" d="M-168.6-219.9c4.6-3.8-159.3-18-155.1-20.6"/>
		<path class="st0" d="M-323.7-240.5c4.2-2.6,105.2-14.4,91.2-6.5"/>
		<path class="st0" d="M-232.5-247c-14,7.9,15.9,85,15.5,101"/>
		<path class="st7" d="M-214.3-162l-1.6,2.2l-2.6-0.8v-2.7l2.6-0.8L-214.3-162z"/>
		<path class="st7" d="M-215.2-129.8l-1.6,2.2l-2.6-0.8v-2.7l2.6-0.8L-215.2-129.8z"/>
		<path class="st7" d="M-169.4-249.9l-1.6,2.2l-2.6-0.8v-2.7l2.6-0.8L-169.4-249.9z"/>
		<path class="st7" d="M-181.4-238.5l-1.6,2.2l-2.6-0.8v-2.7l2.6-0.8L-181.4-238.5z"/>
		<path class="st7" d="M-170.9-216.1l-1.6,2.2l-2.6-0.8v-2.7l2.6-0.8L-170.9-216.1z"/>
		<path class="st7" d="M-161.7-223.6l-1.6,2.2l-2.6-0.8v-2.7l2.6-0.8L-161.7-223.6z"/>
		<path class="st7" d="M-325.6-237.9l-1.6,2.2l-2.6-0.8v-2.7l2.6-0.8L-325.6-237.9z"/>
		<path class="st7" d="M-317.2-243.1l-1.6,2.2l-2.6-0.8v-2.7l2.6-0.8L-317.2-243.1z"/>
		<path class="st7" d="M-216.2-254.9l-1.6,2.2l-2.6-0.8v-2.7l2.6-0.8L-216.2-254.9z"/>
		<path class="st7" d="M-244.2-239l-1.6,2.2l-2.6-0.8v-2.7l2.6-0.8L-244.2-239z"/>
		<path class="st0" d="M-217-145.9c-0.3,12.1,43.8-102.6,39.3-98.3"/>
		<path class="st0" d="M-177.7-244.2c-4.5,4.3,5.7,27.2,9.1,24.3"/>
		<path class="st0" d="M-168.6-219.9c3.4-2.8-158.2-18.6-155.1-20.6"/>
		<path class="st0" d="M-323.7-240.5c3.1-2,101.7-12.4,91.2-6.5"/>
		<path class="st0" d="M-232.5-247c-10.5,6,15.8,89,15.5,101"/>
		<path class="st8" d="M-214.1-158l-1.8,2.5l-2.9-0.9v-3.1l2.9-0.9L-214.1-158z"/>
		<path class="st8" d="M-214.8-133.9l-1.8,2.5l-2.9-0.9v-3.1l2.9-0.9L-214.8-133.9z"/>
		<path class="st8" d="M-170.6-248.5l-1.8,2.5l-2.9-0.9v-3.1l2.9-0.9L-170.6-248.5z"/>
		<path class="st8" d="M-179.6-240l-1.8,2.5l-2.9-0.9v-3.1l2.9-0.9L-179.6-240z"/>
		<path class="st8" d="M-169.4-217l-1.8,2.5l-2.9-0.9v-3.1l2.9-0.9L-169.4-217z"/>
		<path class="st8" d="M-162.6-222.7l-1.8,2.5l-2.9-0.9v-3.1l2.9-0.9L-162.6-222.7z"/>
		<path class="st8" d="M-324.2-238.5l-1.8,2.5l-2.9-0.9v-3.1l2.9-0.9L-324.2-238.5z"/>
		<path class="st8" d="M-318-242.4l-1.8,2.5l-2.9-0.9v-3.1l2.9-0.9L-318-242.4z"/>
		<path class="st8" d="M-219.4-252.9l-1.8,2.5l-2.9-0.9v-3.1l2.9-0.9L-219.4-252.9z"/>
		<path class="st8" d="M-240.4-241l-1.8,2.5l-2.9-0.9v-3.1l2.9-0.9L-240.4-241z"/>
		<path class="st0" d="M-217-145.9c-0.3,9,42.7-101.5,39.3-98.3"/>
		<path class="st0" d="M-177.7-244.2c-3.4,3.2,6.5,26.5,9.1,24.3"/>
		<path class="st0" d="M-168.6-219.9c2.6-2.1-157.5-19.1-155.1-20.6"/>
		<path class="st0" d="M-323.7-240.5c2.3-1.5,99.1-10.9,91.2-6.5"/>
		<path class="st0" d="M-232.5-247c-7.9,4.5,15.7,92,15.5,101"/>
		<path class="st9" d="M-213.9-155l-2,2.8l-3.2-1.1v-3.4l3.2-1.1L-213.9-155z"/>
		<path class="st9" d="M-214.4-136.9l-2,2.8l-3.2-1.1v-3.4l3.2-1.1L-214.4-136.9z"/>
		<path class="st9" d="M-171.4-247.4l-2,2.8l-3.2-1.1v-3.4l3.2-1.1L-171.4-247.4z"/>
		<path class="st9" d="M-178.2-241l-2,2.8l-3.2-1.1v-3.4l3.2-1.1L-178.2-241z"/>
		<path class="st9" d="M-168.3-217.7l-2,2.8l-3.2-1.1l0-3.4l3.2-1.1L-168.3-217.7z"/>
		<path class="st9" d="M-163.1-222l-2,2.8l-3.2-1.1v-3.4l3.2-1.1L-163.1-222z"/>
		<path class="st9" d="M-323.1-239l-2,2.8l-3.2-1.1v-3.4l3.2-1.1L-323.1-239z"/>
		<path class="st9" d="M-318.5-242l-2,2.8l-3.2-1.1v-3.4l3.2-1.1L-318.5-242z"/>
		<path class="st9" d="M-221.7-251.4l-2,2.8l-3.2-1.1v-3.4l3.2-1.1L-221.7-251.4z"/>
		<path class="st9" d="M-237.5-242.5l-2,2.8l-3.2-1.1v-3.4l3.2-1.1L-237.5-242.5z"/>
		<path class="st0" d="M-217-145.9c-0.2,6.8,41.9-100.7,39.3-98.3"/>
		<path class="st0" d="M-177.7-244.2c-2.5,2.4,7.2,25.9,9.1,24.3"/>
		<path class="st0" d="M-168.6-219.9c1.9-1.6-156.9-19.5-155.1-20.6"/>
		<path class="st0" d="M-323.7-240.5c1.8-1.1,97.1-9.8,91.2-6.5"/>
		<path class="st0" d="M-232.5-247c-5.9,3.3,15.6,94.3,15.5,101"/>
		<path class="st10" d="M-213.6-152.7l-2.2,3l-3.6-1.2v-3.8l3.6-1.2L-213.6-152.7z"/>
		<path class="st10" d="M-214-139.1l-2.2,3l-3.6-1.2v-3.8l3.6-1.2L-214-139.1z"/>
		<path class="st10" d="M-172-246.6l-2.2,3l-3.6-1.2v-3.8l3.6-1.2L-172-246.6z"/>
		<path class="st10" d="M-177-241.8l-2.2,3l-3.6-1.2v-3.8l3.6-1.2L-177-241.8z"/>
		<path class="st10" d="M-167.3-218.3l-2.2,3l-3.6-1.2v-3.8l3.6-1.2L-167.3-218.3z"/>
		<path class="st10" d="M-163.5-221.5l-2.2,3l-3.6-1.2v-3.8l3.6-1.2L-163.5-221.5z"/>
		<path class="st10" d="M-322.3-239.4l-2.2,3l-3.6-1.2v-3.8l3.6-1.2L-322.3-239.4z"/>
		<path class="st10" d="M-318.7-241.6l-2.2,3l-3.6-1.2v-3.8l3.6-1.2L-318.7-241.6z"/>
		<path class="st10" d="M-223.4-250.3l-2.2,3l-3.6-1.2v-3.8l3.6-1.2L-223.4-250.3z"/>
		<path class="st10" d="M-235.2-243.6l-2.2,3l-3.6-1.2v-3.8l3.6-1.2L-235.2-243.6z"/>
		<path class="st0" d="M-453.4-315.4c9.1-13.4-8.4,25.5-9.1,18.2"/>
		<path class="st0" d="M-462.4-297.2c-0.6-7.3-0.1-4.7,9.1-18.2"/>
		<path class="st11" d="M-460.2-301.9l-1.6,2.2l-2.6-0.8v-2.7l2.6-0.8L-460.2-301.9z"/>
		<path class="st11" d="M-442-328.8l-1.6,2.2l-2.6-0.8v-2.7l2.6-0.8L-442-328.8z"/>
		<path class="st11" d="M-459.5-289.9l-1.6,2.2l-2.6-0.8v-2.7l2.6-0.8L-459.5-289.9z"/>
		<path class="st11" d="M-460.7-304.5l-1.6,2.2l-2.6-0.8v-2.7l2.6-0.8L-460.7-304.5z"/>
		<path class="st0" d="M-440.6-211.7c-21.5-12.3,18.7-1.6,14.5-16.2"/>
		<path class="st0" d="M-426.1-227.9c-4.1-14.6,6.9,28.5-14.5,16.2"/>
		<path class="st12" d="M-416.9-199.4l-1.6,2.2l-2.6-0.8v-2.7l2.6-0.8L-416.9-199.4z"/>
		<path class="st12" d="M-459.8-224l-1.6,2.2l-2.6-0.8v-2.7l2.6-0.8L-459.8-224z"/>
		<path class="st12" d="M-419.6-213.3l-1.6,2.2l-2.6-0.8v-2.7l2.6-0.8L-419.6-213.3z"/>
		<path class="st12" d="M-427.9-242.5l-1.6,2.2l-2.6-0.8v-2.7l2.6-0.8L-427.9-242.5z"/>
		<path class="st0" d="M-430.4-120.6c2.3-7.3-25.4-4.9-38.2-20.7"/>
		<path class="st0" d="M-468.6-141.3c-12.9-15.8,35.9,28,38.2,20.7"/>
		<path class="st13" d="M-430.5-113.2l-1.6,2.2l-2.6-0.8v-2.7l2.6-0.8L-430.5-113.2z"/>
		<path class="st13" d="M-425.8-127.9l-1.6,2.2l-2.6-0.8v-2.7l2.6-0.8L-425.8-127.9z"/>
		<path class="st13" d="M-453.5-125.5l-1.6,2.2l-2.6-0.8v-2.7l2.6-0.8L-453.5-125.5z"/>
		<path class="st13" d="M-479.2-157l-1.6,2.2l-2.6-0.8v-2.7l2.6-0.8L-479.2-157z"/>
		<path class="st0" d="M-423.9-63c4-3.7-57,5.7-57.6,16.5"/>
		<path class="st0" d="M-481.5-46.6c-0.6,10.8,53.5-12.7,57.6-16.5"/>
		<path class="st14" d="M-425.6-59.3l-1.6,2.2l-2.6-0.8v-2.7l2.6-0.8L-425.6-59.3z"/>
		<path class="st14" d="M-417.6-66.8l-1.6,2.2l-2.6-0.8v-2.7l2.6-0.8L-417.6-66.8z"/>
		<path class="st14" d="M-478.5-57.3l-1.6,2.2l-2.6-0.8v-2.7l2.6-0.8L-478.5-57.3z"/>
		<path class="st14" d="M-479.8-35.8l-1.6,2.2l-2.6-0.8v-2.7l2.6-0.8L-479.8-35.8z"/>
		<path class="st0" d="M-360.2-307.4c17.5-11.2,8.8,20.1,17.3,19.7"/>
		<path class="st0" d="M-342.9-287.8c8.5-0.4-34.8-8.4-17.3-19.7"/>
		<path class="st15" d="M-375.4-296.2l-1.6,2.2l-2.6-0.8v-2.7l2.6-0.8L-375.4-296.2z"/>
		<path class="st15" d="M-340.4-318.6l-1.6,2.2l-2.6-0.8v-2.7l2.6-0.8L-340.4-318.6z"/>
		<path class="st15" d="M-349.1-287.3l-1.6,2.2l-2.6-0.8v-2.7l2.6-0.8L-349.1-287.3z"/>
		<path class="st15" d="M-332.1-288.2l-1.6,2.2l-2.6-0.8v-2.7l2.6-0.8L-332.1-288.2z"/>
		<path class="st0" d="M-358.4-47.1c7.9,15.9-21.3-23.5,8.6-22"/>
		<path class="st0" d="M-349.9-69.1c29.9,1.5-16.5,6.1-8.6,22"/>
		<path class="st16" d="M-364.1-63l-1.6,2.2l-2.6-0.8v-2.7l2.6-0.8L-364.1-63z"/>
		<path class="st16" d="M-348.2-31.2l-1.6,2.2l-2.6-0.8v-2.7l2.6-0.8L-348.2-31.2z"/>
		<path class="st16" d="M-377.5-70.6l-1.6,2.2l-2.6-0.8v-2.7l2.6-0.8L-377.5-70.6z"/>
		<path class="st16" d="M-317.7-67.5l-1.6,2.2l-2.6-0.8v-2.7l2.6-0.8L-317.7-67.5z"/>
		<path class="st0" d="M-267.1-290.8c14.8-2.9,23.7-50.9,31.4-50.6"/>
		<path class="st0" d="M-235.7-341.4c7.7,0.3-46.2,53.4-31.4,50.6"/>
		<path class="st17" d="M-279.5-288l-1.6,2.2l-2.6-0.8v-2.7l2.6-0.8L-279.5-288z"/>
		<path class="st17" d="M-250-293.7l-1.6,2.2l-2.6-0.8v-2.7l2.6-0.8L-250-293.7z"/>
		<path class="st17" d="M-241.1-341.7l-1.6,2.2l-2.6-0.8v-2.7l2.6-0.8L-241.1-341.7z"/>
		<path class="st17" d="M-225.6-341.1l-1.6,2.2l-2.6-0.8v-2.7l2.6-0.8L-225.6-341.1z"/>
		<path class="st0" d="M-270.4-33.6c-2.6,8,12.6,7.3,26.4,8.4"/>
		<path class="st0" d="M-243.9-25.2c13.8,1-23.8-16.3-26.4-8.4"/>
		<path class="st18" d="M-265.5-41.6l-1.6,2.2l-2.6-0.8v-2.7l2.6-0.8L-265.5-41.6z"/>
		<path class="st18" d="M-270.7-25.6l-1.6,2.2l-2.6-0.8V-27l2.6-0.8L-270.7-25.6z"/>
		<path class="st18" d="M-255.5-26.3l-1.6,2.2l-2.6-0.8v-2.7l2.6-0.8L-255.5-26.3z"/>
		<path class="st18" d="M-227.8-24.2l-1.6,2.2l-2.6-0.8v-2.7l2.6-0.8L-227.8-24.2z"/>
		<path class="st0" d="M-152.9-302.2c10.9,7.8,28.1-25.1,27.1-6.4"/>
		<path class="st0" d="M-125.8-308.6c-1,18.7-38-1.5-27.1,6.4"/>
		<path class="st19" d="M-161.5-310l-1.6,2.2l-2.6-0.8v-2.7l2.6-0.8L-161.5-310z"/>
		<path class="st19" d="M-139.7-294.4l-1.6,2.2l-2.6-0.8v-2.7l2.6-0.8L-139.7-294.4z"/>
		<path class="st19" d="M-122.5-327.3l-1.6,2.2l-2.6-0.8v-2.7l2.6-0.8L-122.5-327.3z"/>
		<path class="st19" d="M-124.6-289.8l-1.6,2.2l-2.6-0.8v-2.7l2.6-0.8L-124.6-289.8z"/>
		<path class="st0" d="M-142.4-42.7c17.2-6.6-45.9,8.4-22.7-0.5"/>
		<path class="st0" d="M-165-43.2c23.2-8.9,5.5,7.1,22.7,0.5"/>
		<path class="st20" d="M-157.3-36.1l-1.6,2.2l-2.6-0.8v-2.7l2.6-0.8L-157.3-36.1z"/>
		<path class="st20" d="M-122.9-49.2l-1.6,2.2l-2.6-0.8v-2.7l2.6-0.8L-122.9-49.2z"/>
		<path class="st20" d="M-186-34.3l-1.6,2.2l-2.6-0.8v-2.7l2.6-0.8L-186-34.3z"/>
		<path class="st20" d="M-139.5-52.1l-1.6,2.2l-2.6-0.8v-2.7l2.6-0.8L-139.5-52.1z"/>
		<path class="st0" d="M-32.8-298.1c6.7-2.1,3.2-33.9-10.3-14.2"/>
		<path class="st0" d="M-43.1-312.2c-13.5,19.7,3.6,16.3,10.3,14.2"/>
		<path class="st21" d="M-37.2-296l-1.6,2.2l-2.6-0.8v-2.7l2.6-0.8L-37.2-296z"/>
		<path class="st21" d="M-23.7-300.1l-1.6,2.2l-2.6-0.8v-2.7l2.6-0.8L-23.7-300.1z"/>
		<path class="st21" d="M-27.3-331.9l-1.6,2.2l-2.6-0.8v-2.7l2.6-0.8L-27.3-331.9z"/>
		<path class="st21" d="M-54.3-292.6l-1.6,2.2l-2.6-0.8v-2.7l2.6-0.8L-54.3-292.6z"/>
		<path class="st0" d="M-21.8-223.4c0.1-21.7-73.8,2.8-38.9,4.7"/>
		<path class="st0" d="M-60.7-218.7c34.9,2,38.8,17,38.9-4.7"/>
		<path class="st22" d="M-19.6-201.7l-1.6,2.2l-2.6-0.8v-2.7l2.6-0.8L-19.6-201.7z"/>
		<path class="st22" d="M-19.4-245.1l-1.6,2.2l-2.6-0.8v-2.7l2.6-0.8L-19.4-245.1z"/>
		<path class="st22" d="M-93.3-220.7l-1.6,2.2l-2.6-0.8v-2.7l2.6-0.8L-93.3-220.7z"/>
		<path class="st22" d="M-23.4-216.7l-1.6,2.2l-2.6-0.8v-2.7l2.6-0.8L-23.4-216.7z"/>
		<path class="st0" d="M-86.4-138.9c0.8-19.7,40,10.9,48.6,17.7"/>
		<path class="st0" d="M-37.8-121.2c8.7,6.8-49.5,2-48.6-17.7"/>
		<path class="st23" d="M-85-119.2l-1.6,2.2l-2.6-0.8v-2.7l2.6-0.8L-85-119.2z"/>
		<path class="st23" d="M-83.3-158.6l-1.6,2.2l-2.6-0.8v-2.7l2.6-0.8L-83.3-158.6z"/>
		<path class="st23" d="M-44.2-128l-1.6,2.2l-2.6-0.8v-2.7l2.6-0.8L-44.2-128z"/>
		<path class="st23" d="M-26.8-114.4l-1.6,2.2L-31-113v-2.7l2.6-0.8L-26.8-114.4z"/>
		<path class="st0" d="M-36.3-38c8.2-4.3-18.5-9.9-31.7-18.9"/>
		<path class="st0" d="M-68-56.9c-13.3-9,23.5,23.2,31.7,18.9"/>
		<path class="st24" d="M-42.2-33.7l-1.6,2.2l-2.6-0.8V-35l2.6-0.8L-42.2-33.7z"/>
		<path class="st24" d="M-25.7-42.2l-1.6,2.2l-2.6-0.8v-2.7l2.6-0.8L-25.7-42.2z"/>
		<path class="st24" d="M-52.4-47.8l-1.6,2.2l-2.6-0.8v-2.7L-54-50L-52.4-47.8z"/>
		<path class="st24" d="M-79-65.9l-1.6,2.2l-2.6-0.8v-2.7l2.6-0.8L-79-65.9z"/>
	</g>
</g>
</svg>
