<?xml version="1.0" encoding="utf-8"?>
<!-- Generator: Adobe Illustrator 26.1.0, SVG Export Plug-In . SVG Version: 6.00 Build 0)  -->
<svg version="1.1" id="Ebene_1" xmlns="http://www.w3.org/2000/svg" xmlns:xlink="http://www.w3.org/1999/xlink" x="0px" y="0px"
	 viewBox="0 0 990 700" style="enable-background:new 0 0 990 700;" xml:space="preserve">
<style type="text/css">
	.st0{fill:none;stroke:#FFFFFF;stroke-width:2;stroke-linecap:round;stroke-miterlimit:20;}
	.st1{fill:none;stroke:#FF00B5;stroke-width:2;stroke-linecap:round;stroke-miterlimit:20;}
	.st2{fill:none;stroke:#5900FF;stroke-width:2;stroke-linecap:round;stroke-miterlimit:20;}
	.st3{fill:none;stroke:#FF4900;stroke-width:2;stroke-linecap:round;stroke-miterlimit:20;}
	.st4{fill:none;stroke:#FF0086;stroke-width:2;stroke-linecap:round;stroke-miterlimit:20;}
	.st5{fill:none;stroke:#FFD100;stroke-width:2;stroke-linecap:round;stroke-miterlimit:20;}
	.st6{fill:none;stroke:#00A9FF;stroke-width:2;stroke-linecap:round;stroke-miterlimit:20;}
	.st7{fill:none;stroke:#FF4A00;stroke-width:2;stroke-linecap:round;stroke-miterlimit:20;}
	.st8{fill:none;stroke:#13FF00;stroke-width:2;stroke-linecap:round;stroke-miterlimit:20;}
	.st9{fill:none;stroke:#00FFB9;stroke-width:2;stroke-linecap:round;stroke-miterlimit:20;}
	.st10{fill:none;stroke:#FFAA00;stroke-width:2;stroke-linecap:round;stroke-miterlimit:20;}
	.st11{fill:none;stroke:#FF7200;stroke-width:2;stroke-linecap:round;stroke-miterlimit:20;}
	.st12{fill:none;stroke:#FF00C9;stroke-width:2;stroke-linecap:round;stroke-miterlimit:20;}
	.st13{fill:none;stroke:#0200FF;stroke-width:2;stroke-linecap:round;stroke-miterlimit:20;}
	.st14{fill:none;stroke:#59FF00;stroke-width:2;stroke-linecap:round;stroke-miterlimit:20;}
	.st15{fill:none;stroke:#00B8FF;stroke-width:2;stroke-linecap:round;stroke-miterlimit:20;}
	.st16{fill:none;stroke:#FF001C;stroke-width:2;stroke-linecap:round;stroke-miterlimit:20;}
	.st17{fill:none;stroke:#0C00FF;stroke-width:2;stroke-linecap:round;stroke-miterlimit:20;}
	.st18{fill:none;stroke:#FF1800;stroke-width:2;stroke-linecap:round;stroke-miterlimit:20;}
	.st19{fill:none;stroke:#FFC200;stroke-width:2;stroke-linecap:round;stroke-miterlimit:20;}
	.st20{fill:none;stroke:#A9FF00;stroke-width:2;stroke-linecap:round;stroke-miterlimit:20;}
	.st21{fill:none;stroke:#3800FF;stroke-width:2;stroke-linecap:round;stroke-miterlimit:20;}
	.st22{fill:none;stroke:#FF1900;stroke-width:2;stroke-linecap:round;stroke-miterlimit:20;}
	.st23{fill:none;stroke:#FFE400;stroke-width:2;stroke-linecap:round;stroke-miterlimit:20;}
</style>
<g>
	<g transform="scale(2,2)">
		<rect y="0" width="495" height="350"/>
	</g>
	<g transform="matrix(2,0,0,2,0,0) translate(495,350)">
		<path class="st0" d="M-282.5-111.5c-19.9,44.4-28.9,54.6-30.9-43.1"/>
		<path class="st0" d="M-313.4-154.6c-1.9-97.8,36.7,95.7,86.4,3"/>
		<path class="st0" d="M-226.9-151.6c49.7-92.6,22.6-122.1-34.1-107.4"/>
		<path class="st0" d="M-261-259c-56.7,14.7,89.9,163.4,55.4,68.4"/>
		<path class="st0" d="M-205.6-190.5c-34.5-95-57,34.7-76.9,79.1"/>
		<path class="st1" d="M-262.1-155.8l-0.3,0.5l-0.6-0.2v-0.6l0.6-0.2L-262.1-155.8z"/>
		<path class="st1" d="M-302-67.1l-0.3,0.5l-0.6-0.2v-0.6l0.6-0.2L-302-67.1z"/>
		<path class="st1" d="M-310.9-56.9l-0.3,0.5l-0.6-0.2v-0.6l0.6-0.2L-310.9-56.9z"/>
		<path class="st1" d="M-314.8-252.4l-0.3,0.5l-0.6-0.2v-0.6l0.6-0.2L-314.8-252.4z"/>
		<path class="st1" d="M-276.2-58.9l-0.3,0.5l-0.6-0.2v-0.6l0.6-0.2L-276.2-58.9z"/>
		<path class="st1" d="M-176.7-244.2l-0.3,0.5l-0.6-0.2v-0.6l0.6-0.2L-176.7-244.2z"/>
		<path class="st1" d="M-203.8-273.7l-0.3,0.5l-0.6-0.2v-0.6l0.6-0.2L-203.8-273.7z"/>
		<path class="st1" d="M-317.2-244.3l-0.3,0.5l-0.6-0.2v-0.6l0.6-0.2L-317.2-244.3z"/>
		<path class="st1" d="M-170.6-95.5l-0.3,0.5l-0.6-0.2v-0.6l0.6-0.2L-170.6-95.5z"/>
		<path class="st1" d="M-239.6-285.5l-0.3,0.5l-0.6-0.2v-0.6l0.6-0.2L-239.6-285.5z"/>
		<path class="st0" d="M-282.5-111.5c-14.9,33.3-29.4,30.2-30.9-43.1"/>
		<path class="st0" d="M-313.4-154.6c-1.5-73.3,49.1,72.5,86.4,3"/>
		<path class="st0" d="M-226.9-151.6C-189.7-221-218.5-270-261-259"/>
		<path class="st0" d="M-261-259c-42.5,11,81.3,139.7,55.4,68.4"/>
		<path class="st0" d="M-205.6-190.5c-25.9-71.3-62,45.8-76.9,79.1"/>
		<path class="st2" d="M-266.8-144.7l-0.6,0.8l-0.9-0.3v-0.9l0.9-0.3L-266.8-144.7z"/>
		<path class="st2" d="M-296.7-78.2l-0.6,0.8l-0.9-0.3v-0.9l0.9-0.3L-296.7-78.2z"/>
		<path class="st2" d="M-311.1-81.3l-0.6,0.8l-0.9-0.3v-0.9l0.9-0.3L-311.1-81.3z"/>
		<path class="st2" d="M-314-227.9l-0.6,0.8l-0.9-0.3v-0.9l0.9-0.3L-314-227.9z"/>
		<path class="st2" d="M-263.4-82.1l-0.6,0.8l-0.9-0.3v-0.9l0.9-0.3L-263.4-82.1z"/>
		<path class="st2" d="M-188.9-221l-0.6,0.8l-0.9-0.3v-0.9l0.9-0.3L-188.9-221z"/>
		<path class="st2" d="M-217.7-270l-0.6,0.8l-0.9-0.3v-0.9l0.9-0.3L-217.7-270z"/>
		<path class="st2" d="M-302.7-248l-0.6,0.8l-0.9-0.3v-0.9l0.9-0.3L-302.7-248z"/>
		<path class="st2" d="M-178.9-119.3l-0.6,0.8l-0.9-0.3v-0.9l0.9-0.3L-178.9-119.3z"/>
		<path class="st2" d="M-230.7-261.8l-0.6,0.8l-0.9-0.3v-0.9l0.9-0.3L-230.7-261.8z"/>
		<path class="st0" d="M-282.5-111.5c-11.2,25-29.8,11.9-30.9-43.1"/>
		<path class="st0" d="M-313.4-154.6c-1.1-55,58.5,55.1,86.4,3"/>
		<path class="st0" d="M-226.9-151.6c28-52.1-2.2-115.7-34.1-107.4"/>
		<path class="st0" d="M-261-259c-31.9,8.3,74.8,121.9,55.4,68.4"/>
		<path class="st0" d="M-205.6-190.5c-19.4-53.4-65.7,54.1-76.9,79.1"/>
		<path class="st3" d="M-270.2-136.4l-0.8,1l-1.2-0.4v-1.3l1.2-0.4L-270.2-136.4z"/>
		<path class="st3" d="M-292.6-86.5l-0.8,1l-1.2-0.4v-1.3l1.2-0.4L-292.6-86.5z"/>
		<path class="st3" d="M-311.2-99.6l-0.8,1l-1.2-0.4v-1.3l1.2-0.4L-311.2-99.6z"/>
		<path class="st3" d="M-313.4-209.6l-0.8,1l-1.2-0.4v-1.3l1.2-0.4L-313.4-209.6z"/>
		<path class="st3" d="M-253.8-99.5l-0.8,1l-1.2-0.4v-1.3l1.2-0.4L-253.8-99.5z"/>
		<path class="st3" d="M-197.9-203.7l-0.8,1l-1.2-0.4v-1.3l1.2-0.4L-197.9-203.7z"/>
		<path class="st3" d="M-228-267.2l-0.8,1l-1.2-0.4v-1.3l1.2-0.4L-228-267.2z"/>
		<path class="st3" d="M-291.8-250.7l-0.8,1l-1.2-0.4v-1.3l1.2-0.4L-291.8-250.7z"/>
		<path class="st3" d="M-185.1-137.1l-0.8,1l-1.2-0.4v-1.3l1.2-0.4L-185.1-137.1z"/>
		<path class="st3" d="M-223.9-244l-0.8,1l-1.2-0.4v-1.3l1.2-0.4L-223.9-244z"/>
		<path class="st0" d="M-282.5-111.5c-8.4,18.7-30-1.9-30.9-43.1"/>
		<path class="st0" d="M-313.4-154.6c-0.8-41.2,65.5,42.1,86.4,3"/>
		<path class="st0" d="M-226.9-151.6c21-39.1-10.1-113.6-34.1-107.4"/>
		<path class="st0" d="M-261-259c-23.9,6.2,70,108.5,55.4,68.4"/>
		<path class="st0" d="M-205.6-190.5c-14.6-40.1-68.5,60.3-76.9,79.1"/>
		<path class="st4" d="M-272.7-130.2l-1,1.3l-1.6-0.5v-1.6l1.6-0.5L-272.7-130.2z"/>
		<path class="st4" d="M-289.5-92.8l-1,1.3l-1.6-0.5v-1.6l1.6-0.5L-289.5-92.8z"/>
		<path class="st4" d="M-311.2-113.4l-1,1.3l-1.6-0.5v-1.6l1.6-0.5L-311.2-113.4z"/>
		<path class="st4" d="M-312.8-195.9l-1,1.3l-1.6-0.5v-1.6l1.6-0.5L-312.8-195.9z"/>
		<path class="st4" d="M-246.5-112.5l-1,1.3l-1.6-0.5v-1.6l1.6-0.5L-246.5-112.5z"/>
		<path class="st4" d="M-204.6-190.6l-1,1.3l-1.6-0.5v-1.6l1.6-0.5L-204.6-190.6z"/>
		<path class="st4" d="M-235.7-265.2l-1,1.3l-1.6-0.5v-1.6l1.6-0.5L-235.7-265.2z"/>
		<path class="st4" d="M-283.5-252.8l-1,1.3l-1.6-0.5v-1.6l1.6-0.5L-283.5-252.8z"/>
		<path class="st4" d="M-189.6-150.5l-1,1.3l-1.6-0.5v-1.6l1.6-0.5L-189.6-150.5z"/>
		<path class="st4" d="M-218.8-230.6l-1,1.3l-1.6-0.5v-1.6l1.6-0.5L-218.8-230.6z"/>
		<path class="st0" d="M-282.5-111.5c-6.3,14-30.2-12.2-30.9-43.1"/>
		<path class="st0" d="M-313.4-154.6c-0.6-30.9,70.7,32.4,86.4,3"/>
		<path class="st0" d="M-226.9-151.6c15.7-29.3-16.1-112.1-34.1-107.4"/>
		<path class="st0" d="M-261-259c-17.9,4.6,66.3,98.5,55.4,68.4"/>
		<path class="st0" d="M-205.6-190.5c-10.9-30.1-70.6,65-76.9,79.1"/>
		<path class="st5" d="M-274.5-125.5l-1.2,1.6l-1.9-0.6v-2l1.9-0.6L-274.5-125.5z"/>
		<path class="st5" d="M-287.1-97.4l-1.2,1.6l-1.9-0.6v-2l1.9-0.6L-287.1-97.4z"/>
		<path class="st5" d="M-311.1-123.7l-1.2,1.6l-1.9-0.6v-2l1.9-0.6L-311.1-123.7z"/>
		<path class="st5" d="M-312.3-185.5l-1.2,1.6l-1.9-0.6v-2l1.9-0.6L-312.3-185.5z"/>
		<path class="st5" d="M-241-122.3l-1.2,1.6l-1.9-0.6v-2l1.9-0.6L-241-122.3z"/>
		<path class="st5" d="M-209.5-180.9l-1.2,1.6l-1.9-0.6v-2l1.9-0.6L-209.5-180.9z"/>
		<path class="st5" d="M-241.4-263.6l-1.2,1.6l-1.9-0.6v-2l1.9-0.6L-241.4-263.6z"/>
		<path class="st5" d="M-277.2-254.3l-1.2,1.6l-1.9-0.6v-2l1.9-0.6L-277.2-254.3z"/>
		<path class="st5" d="M-193-160.5l-1.2,1.6l-1.9-0.6v-2l1.9-0.6L-193-160.5z"/>
		<path class="st5" d="M-214.8-220.6l-1.2,1.6l-1.9-0.6v-2l1.9-0.6L-214.8-220.6z"/>
		<path class="st0" d="M-282.5-111.5c-4.7,10.5-30.4-19.9-30.9-43.1"/>
		<path class="st0" d="M-313.4-154.6c-0.5-23.2,74.6,25,86.4,3"/>
		<path class="st0" d="M-226.9-151.6c11.8-22-20.6-110.9-34.1-107.4"/>
		<path class="st0" d="M-261-259c-13.5,3.5,63.6,91,55.4,68.4"/>
		<path class="st0" d="M-205.6-190.5c-8.2-22.5-72.2,68.5-76.9,79.1"/>
		<path class="st6" d="M-275.8-122l-1.4,1.9l-2.2-0.7v-2.4l2.2-0.7L-275.8-122z"/>
		<path class="st6" d="M-285.3-100.9l-1.4,1.9l-2.2-0.7v-2.4l2.2-0.7L-285.3-100.9z"/>
		<path class="st6" d="M-310.9-131.4l-1.4,1.9l-2.2-0.7v-2.4l2.2-0.7L-310.9-131.4z"/>
		<path class="st6" d="M-311.8-177.8l-1.4,1.9l-2.2-0.7v-2.4l2.2-0.7L-311.8-177.8z"/>
		<path class="st6" d="M-236.7-129.6l-1.4,1.9l-2.2-0.7v-2.4l2.2-0.7L-236.7-129.6z"/>
		<path class="st6" d="M-213.1-173.5l-1.4,1.9l-2.2-0.7v-2.4l2.2-0.7L-213.1-173.5z"/>
		<path class="st6" d="M-245.5-262.5l-1.4,1.9l-2.2-0.7v-2.4l2.2-0.7L-245.5-262.5z"/>
		<path class="st6" d="M-272.5-255.5l-1.4,1.9l-2.2-0.7v-2.4l2.2-0.7L-272.5-255.5z"/>
		<path class="st6" d="M-195.4-168l-1.4,1.9l-2.2-0.7v-2.4l2.2-0.7L-195.4-168z"/>
		<path class="st6" d="M-211.8-213.1l-1.4,1.9l-2.2-0.7v-2.4l2.2-0.7L-211.8-213.1z"/>
		<path class="st0" d="M-282.5-111.5c-3.5,7.9-30.5-25.7-30.9-43.1"/>
		<path class="st0" d="M-313.4-154.6c-0.3-17.4,77.6,19.5,86.4,3"/>
		<path class="st0" d="M-226.9-151.6c8.9-16.5-24-110-34.1-107.4"/>
		<path class="st0" d="M-261-259c-10.1,2.6,61.6,85.4,55.4,68.4"/>
		<path class="st0" d="M-205.6-190.5c-6.1-16.9-73.4,71.2-76.9,79.1"/>
		<path class="st7" d="M-276.7-119.4l-1.6,2.2l-2.6-0.8v-2.7l2.6-0.8L-276.7-119.4z"/>
		<path class="st7" d="M-283.8-103.6l-1.6,2.2l-2.6-0.8v-2.7l2.6-0.8L-283.8-103.6z"/>
		<path class="st7" d="M-310.7-137.2l-1.6,2.2l-2.6-0.8v-2.7l2.6-0.8L-310.7-137.2z"/>
		<path class="st7" d="M-311.4-172l-1.6,2.2l-2.6-0.8v-2.7l2.6-0.8L-311.4-172z"/>
		<path class="st7" d="M-233.5-135.1l-1.6,2.2l-2.6-0.8v-2.7l2.6-0.8L-233.5-135.1z"/>
		<path class="st7" d="M-215.8-168l-1.6,2.2l-2.6-0.8v-2.7l2.6-0.8L-215.8-168z"/>
		<path class="st7" d="M-248.6-261.6l-1.6,2.2l-2.6-0.8v-2.7l2.6-0.8L-248.6-261.6z"/>
		<path class="st7" d="M-268.8-256.4l-1.6,2.2l-2.6-0.8v-2.7l2.6-0.8L-268.8-256.4z"/>
		<path class="st7" d="M-197.1-173.6l-1.6,2.2l-2.6-0.8v-2.7l2.6-0.8L-197.1-173.6z"/>
		<path class="st7" d="M-209.4-207.4l-1.6,2.2l-2.6-0.8v-2.7l2.6-0.8L-209.4-207.4z"/>
		<path class="st0" d="M-282.5-111.5c-2.7,5.9-30.6-30.1-30.9-43.1"/>
		<path class="st0" d="M-313.4-154.6c-0.3-13,79.8,15.4,86.4,3"/>
		<path class="st0" d="M-226.9-151.6c6.6-12.4-26.5-109.4-34.1-107.4"/>
		<path class="st0" d="M-261-259c-7.6,2,60,81.1,55.4,68.4"/>
		<path class="st0" d="M-205.6-190.5c-4.6-12.7-74.3,73.1-76.9,79.1"/>
		<path class="st8" d="M-277.3-117.4l-1.8,2.5l-2.9-0.9v-3.1l2.9-0.9L-277.3-117.4z"/>
		<path class="st8" d="M-282.6-105.6l-1.8,2.5l-2.9-0.9v-3.1l2.9-0.9L-282.6-105.6z"/>
		<path class="st8" d="M-310.5-141.6l-1.8,2.5l-2.9-0.9v-3.1l2.9-0.9L-310.5-141.6z"/>
		<path class="st8" d="M-311-167.7l-1.8,2.5l-2.9-0.9v-3.1l2.9-0.9L-311-167.7z"/>
		<path class="st8" d="M-231-139.2l-1.8,2.5l-2.9-0.9v-3.1l2.9-0.9L-231-139.2z"/>
		<path class="st8" d="M-217.7-163.9l-1.8,2.5l-2.9-0.9v-3.1l2.9-0.9L-217.7-163.9z"/>
		<path class="st8" d="M-250.8-260.9l-1.8,2.5l-2.9-0.9v-3.1l2.9-0.9L-250.8-260.9z"/>
		<path class="st8" d="M-266-257l-1.8,2.5l-2.9-0.9v-3.1l2.9-0.9L-266-257z"/>
		<path class="st8" d="M-198.4-177.9l-1.8,2.5l-2.9-0.9v-3.1l2.9-0.9L-198.4-177.9z"/>
		<path class="st8" d="M-207.6-203.2l-1.8,2.5l-2.9-0.9v-3.1l2.9-0.9L-207.6-203.2z"/>
		<path class="st0" d="M-282.5-111.5c-2,4.4-30.7-33.4-30.9-43.1"/>
		<path class="st0" d="M-313.4-154.6c-0.2-9.8,81.5,12.3,86.4,3"/>
		<path class="st0" d="M-226.9-151.6c5-9.3-28.4-108.9-34.1-107.4"/>
		<path class="st0" d="M-261-259c-5.7,1.5,58.9,78,55.4,68.4"/>
		<path class="st0" d="M-205.6-190.5c-3.5-9.5-74.9,74.6-76.9,79.1"/>
		<path class="st9" d="M-277.6-115.9l-2,2.8l-3.2-1.1v-3.4l3.2-1.1L-277.6-115.9z"/>
		<path class="st9" d="M-281.6-107l-2,2.8l-3.2-1.1v-3.4l3.2-1.1L-281.6-107z"/>
		<path class="st9" d="M-310.3-144.8l-2,2.8l-3.2-1.1v-3.4l3.2-1.1L-310.3-144.8z"/>
		<path class="st9" d="M-310.7-164.4l-2,2.8l-3.2-1.1v-3.4l3.2-1.1L-310.7-164.4z"/>
		<path class="st9" d="M-229-142.3l-2,2.8l-3.2-1.1v-3.4l3.2-1.1L-229-142.3z"/>
		<path class="st9" d="M-219.1-160.8l-2,2.8l-3.2-1.1v-3.4l3.2-1.1L-219.1-160.8z"/>
		<path class="st9" d="M-252.4-260.5l-2,2.8l-3.2-1.1v-3.4l3.2-1.1L-252.4-260.5z"/>
		<path class="st9" d="M-263.8-257.5l-2,2.8l-3.2-1.1v-3.4l3.2-1.1L-263.8-257.5z"/>
		<path class="st9" d="M-199.2-181l-2,2.8l-3.2-1.1v-3.4l3.2-1.1L-199.2-181z"/>
		<path class="st9" d="M-206.1-200l-2,2.8l-3.2-1.1v-3.4l3.2-1.1L-206.1-200z"/>
		<path class="st0" d="M-282.5-111.5c-1.5,3.3-30.7-35.8-30.9-43.1"/>
		<path class="st0" d="M-313.4-154.6c-0.1-7.3,82.7,10,86.4,3"/>
		<path class="st0" d="M-226.9-151.6c3.7-7-29.8-108.5-34.1-107.4"/>
		<path class="st0" d="M-261-259c-4.3,1.1,58,75.6,55.4,68.4"/>
		<path class="st0" d="M-205.6-190.5c-2.6-7.1-75.4,75.7-76.9,79.1"/>
		<path class="st10" d="M-277.8-114.8l-2.2,3l-3.6-1.2v-3.8l3.6-1.2L-277.8-114.8z"/>
		<path class="st10" d="M-280.8-108.1l-2.2,3l-3.6-1.2v-3.8l3.6-1.2L-280.8-108.1z"/>
		<path class="st10" d="M-310-147.3l-2.2,3l-3.6-1.2v-3.8l3.6-1.2L-310-147.3z"/>
		<path class="st10" d="M-310.3-162l-2.2,3l-3.6-1.2v-3.8l3.6-1.2L-310.3-162z"/>
		<path class="st10" d="M-227.5-144.6l-2.2,3l-3.6-1.2v-3.8l3.6-1.2L-227.5-144.6z"/>
		<path class="st10" d="M-220-158.5l-2.2,3l-3.6-1.2v-3.8l3.6-1.2L-220-158.5z"/>
		<path class="st10" d="M-253.5-260.1l-2.2,3l-3.6-1.2v-3.8l3.6-1.2L-253.5-260.1z"/>
		<path class="st10" d="M-262.1-257.9l-2.2,3l-3.6-1.2v-3.8l3.6-1.2L-262.1-257.9z"/>
		<path class="st10" d="M-199.8-183.4l-2.2,3l-3.6-1.2v-3.8l3.6-1.2L-199.8-183.4z"/>
		<path class="st10" d="M-205-197.7l-2.2,3l-3.6-1.2v-3.8l3.6-1.2L-205-197.7z"/>
		<path class="st0" d="M-471.5-288.7c8.3-1.2,41.9-44.8,47.3-37.2"/>
		<path class="st0" d="M-424.2-325.9c5.4,7.6-55.6,38.4-47.3,37.2"/>
		<path class="st11" d="M-477.4-287.5l-1.6,2.2l-2.6-0.8v-2.7l2.6-0.8L-477.4-287.5z"/>
		<path class="st11" d="M-460.9-289.9l-1.6,2.2l-2.6-0.8v-2.7l2.6-0.8L-460.9-289.9z"/>
		<path class="st11" d="M-427.3-333.5l-1.6,2.2l-2.6-0.8v-2.7l2.6-0.8L-427.3-333.5z"/>
		<path class="st11" d="M-416.5-318.3l-1.6,2.2l-2.6-0.8v-2.7l2.6-0.8L-416.5-318.3z"/>
		<path class="st0" d="M-453.7-209.3c-32.4-4.4-34.5-27.1-30.3-31.7"/>
		<path class="st0" d="M-484-240.9c4.3-4.6,62.6,36.1,30.3,31.7"/>
		<path class="st12" d="M-419-204.9l-1.6,2.2l-2.6-0.8v-2.7l2.6-0.8L-419-204.9z"/>
		<path class="st12" d="M-483.8-213.7l-1.6,2.2l-2.6-0.8v-2.7l2.6-0.8L-483.8-213.7z"/>
		<path class="st12" d="M-485.9-236.4l-1.6,2.2l-2.6-0.8v-2.7l2.6-0.8L-485.9-236.4z"/>
		<path class="st12" d="M-477.4-245.5l-1.6,2.2l-2.6-0.8v-2.7l2.6-0.8L-477.4-245.5z"/>
		<path class="st0" d="M-421-136.1c0.6-15.1,1.1,22.4-8.3,17.2"/>
		<path class="st0" d="M-429.3-118.9c-9.4-5.2,7.7-2.1,8.3-17.2"/>
		<path class="st13" d="M-419.3-121l-1.6,2.2l-2.6-0.8v-2.7l2.6-0.8L-419.3-121z"/>
		<path class="st13" d="M-418.2-151.2l-1.6,2.2l-2.6-0.8v-2.7l2.6-0.8L-418.2-151.2z"/>
		<path class="st13" d="M-417.6-113.7l-1.6,2.2l-2.6-0.8v-2.7l2.6-0.8L-417.6-113.7z"/>
		<path class="st13" d="M-436.4-124.1l-1.6,2.2l-2.6-0.8v-2.7l2.6-0.8L-436.4-124.1z"/>
		<path class="st0" d="M-475.6-46.4c9.5-11.4,16.6-4.2,34.8,1.6"/>
		<path class="st0" d="M-440.8-44.8c18.2,5.7-44.3,9.8-34.8-1.6"/>
		<path class="st14" d="M-482.8-35l-1.6,2.2l-2.6-0.8v-2.7l2.6-0.8L-482.8-35z"/>
		<path class="st14" d="M-463.8-57.7l-1.6,2.2l-2.6-0.8v-2.7l2.6-0.8L-463.8-57.7z"/>
		<path class="st14" d="M-456.7-50.5l-1.6,2.2l-2.6-0.8v-2.7l2.6-0.8L-456.7-50.5z"/>
		<path class="st14" d="M-420.2-39.1l-1.6,2.2l-2.6-0.8v-2.7l2.6-0.8L-420.2-39.1z"/>
		<path class="st0" d="M-390.5-323.2c1.2,5.4,55.3,22,63,11.7"/>
		<path class="st0" d="M-327.4-311.4c7.8-10.3-64.3-17.1-63-11.7"/>
		<path class="st15" d="M-389.4-328.6l-1.6,2.2l-2.6-0.8v-2.7l2.6-0.8L-389.4-328.6z"/>
		<path class="st15" d="M-386.9-317.7l-1.6,2.2l-2.6-0.8v-2.7l2.6-0.8L-386.9-317.7z"/>
		<path class="st15" d="M-332.9-301.2l-1.6,2.2l-2.6-0.8v-2.7l2.6-0.8L-332.9-301.2z"/>
		<path class="st15" d="M-317.4-321.7l-1.6,2.2l-2.6-0.8v-2.7l2.6-0.8L-317.4-321.7z"/>
		<path class="st0" d="M-319.6-51.9c0.1-23.1-65.3,22.5-68.3,17.4"/>
		<path class="st0" d="M-387.8-34.5c-3-5.1,68.2,5.6,68.3-17.4"/>
		<path class="st16" d="M-317.4-28.8l-1.6,2.2l-2.6-0.8v-2.7l2.6-0.8L-317.4-28.8z"/>
		<path class="st16" d="M-317.2-74.9l-1.6,2.2l-2.6-0.8v-2.7l2.6-0.8L-317.2-74.9z"/>
		<path class="st16" d="M-382.6-29.4l-1.6,2.2l-2.6-0.8v-2.7l2.6-0.8L-382.6-29.4z"/>
		<path class="st16" d="M-388.5-39.5l-1.6,2.2l-2.6-0.8v-2.7l2.6-0.8L-388.5-39.5z"/>
		<path class="st0" d="M-258.5-302.6c7.5-1.2,2.3-13.9,9.1-0.2"/>
		<path class="st0" d="M-249.4-302.8c6.7,13.6-16.6,1.4-9.1,0.2"/>
		<path class="st17" d="M-263.7-301.4l-1.6,2.2l-2.6-0.8v-2.7l2.6-0.8L-263.7-301.4z"/>
		<path class="st17" d="M-248.7-303.7l-1.6,2.2l-2.6-0.8v-2.7l2.6-0.8L-248.7-303.7z"/>
		<path class="st17" d="M-253.8-316.4l-1.6,2.2l-2.6-0.8v-2.7l2.6-0.8L-253.8-316.4z"/>
		<path class="st17" d="M-240.4-289.2l-1.6,2.2l-2.6-0.8v-2.7l2.6-0.8L-240.4-289.2z"/>
		<path class="st0" d="M-244.4-49.4c0.1,24.8-20.1-19-10.3-23.7"/>
		<path class="st0" d="M-254.7-73.1c9.8-4.7,10.2-1.1,10.3,23.7"/>
		<path class="st18" d="M-242.2-74.2l-1.6,2.2l-2.6-0.8v-2.7l2.6-0.8L-242.2-74.2z"/>
		<path class="st18" d="M-242-24.6l-1.6,2.2l-2.6-0.8v-2.7l2.6-0.8L-242-24.6z"/>
		<path class="st18" d="M-262.2-68.4l-1.6,2.2l-2.6-0.8v-2.7l2.6-0.8L-262.2-68.4z"/>
		<path class="st18" d="M-242.6-77.7l-1.6,2.2l-2.6-0.8v-2.7l2.6-0.8L-242.6-77.7z"/>
		<path class="st0" d="M-172.9-306.3c-3.5,15.8,20.7-10.5,34.6,3.9"/>
		<path class="st0" d="M-138.3-302.4c14,14.4-31.2-19.7-34.6-3.9"/>
		<path class="st19" d="M-167.2-322.1l-1.6,2.2l-2.6-0.8v-2.7l2.6-0.8L-167.2-322.1z"/>
		<path class="st19" d="M-174.1-290.4l-1.6,2.2l-2.6-0.8v-2.7l2.6-0.8L-174.1-290.4z"/>
		<path class="st19" d="M-150-316.7l-1.6,2.2l-2.6-0.8v-2.7l2.6-0.8L-150-316.7z"/>
		<path class="st19" d="M-122-288l-1.6,2.2l-2.6-0.8v-2.7l2.6-0.8L-122-288z"/>
		<path class="st0" d="M-183.4-29.8c-6.6,5.1,60-14.4,59.1-31.3"/>
		<path class="st0" d="M-124.3-61.1c-0.8-16.8-52.5,26.2-59.1,31.3"/>
		<path class="st20" d="M-174.5-34.9l-1.6,2.2l-2.6-0.8v-2.7l2.6-0.8L-174.5-34.9z"/>
		<path class="st20" d="M-187.8-24.8l-1.6,2.2l-2.6-0.8v-2.7l2.6-0.8L-187.8-24.8z"/>
		<path class="st20" d="M-121.2-44.3l-1.6,2.2l-2.6-0.8v-2.7l2.6-0.8L-121.2-44.3z"/>
		<path class="st20" d="M-122.9-78l-1.6,2.2l-2.6-0.8v-2.7l2.6-0.8L-122.9-78z"/>
		<path class="st0" d="M-71.6-309.8c-12.4-15.4,48.7-6.5,20.6,6.1"/>
		<path class="st0" d="M-51-303.7c-28.1,12.5-8.2,9.4-20.6-6.1"/>
		<path class="st21" d="M-56.9-294.3l-1.6,2.2L-61-293v-2.7l2.6-0.8L-56.9-294.3z"/>
		<path class="st21" d="M-81.8-325.2l-1.6,2.2l-2.6-0.8v-2.7l2.6-0.8L-81.8-325.2z"/>
		<path class="st21" d="M-20.6-316.3l-1.6,2.2l-2.6-0.8v-2.7l2.6-0.8L-20.6-316.3z"/>
		<path class="st21" d="M-76.8-291.2l-1.6,2.2l-2.6-0.8v-2.7l2.6-0.8L-76.8-291.2z"/>
		<path class="st0" d="M-55.7-209.6c19.3-7.2,21.5-15.4,23.4-23.3"/>
		<path class="st0" d="M-32.3-232.9c1.9-7.9-42.7,30.5-23.4,23.3"/>
		<path class="st22" d="M-72.7-202.4l-1.6,2.2l-2.6-0.8v-2.7l2.6-0.8L-72.7-202.4z"/>
		<path class="st22" d="M-34-216.8l-1.6,2.2l-2.6-0.8v-2.7l2.6-0.8L-34-216.8z"/>
		<path class="st22" d="M-31.9-225l-1.6,2.2l-2.6-0.8v-2.7l2.6-0.8L-31.9-225z"/>
		<path class="st22" d="M-28.1-240.9l-1.6,2.2l-2.6-0.8v-2.7l2.6-0.8L-28.1-240.9z"/>
		<path class="st0" d="M-57.7-139.8c-1.7-14.5-3-8.9-1.3-2.3"/>
		<path class="st0" d="M-59.1-142.2c1.7,6.6,3,16.8,1.3,2.3"/>
		<path class="st16" d="M-53.8-125.3l-1.6,2.2L-58-124v-2.7l2.6-0.8L-53.8-125.3z"/>
		<path class="st16" d="M-57.1-154.4l-1.6,2.2l-2.6-0.8v-2.7l2.6-0.8L-57.1-154.4z"/>
		<path class="st16" d="M-58.4-148.7l-1.6,2.2l-2.6-0.8v-2.7l2.6-0.8L-58.4-148.7z"/>
		<path class="st16" d="M-55.1-135.6l-1.6,2.2l-2.6-0.8v-2.7l2.6-0.8L-55.1-135.6z"/>
		<path class="st0" d="M-51.2-29.2c5.7-3.7-10.6-29.4-13.2-15.7"/>
		<path class="st0" d="M-64.4-44.9c-2.6,13.7,7.5,19.5,13.2,15.7"/>
		<path class="st23" d="M-54.6-25.5l-1.6,2.2l-2.6-0.8v-2.7l2.6-0.8L-54.6-25.5z"/>
		<path class="st23" d="M-43.2-32.9l-1.6,2.2l-2.6-0.8v-2.7l2.6-0.8L-43.2-32.9z"/>
		<path class="st23" d="M-59.5-58.6l-1.6,2.2l-2.6-0.8v-2.7l2.6-0.8L-59.5-58.6z"/>
		<path class="st23" d="M-64.7-31.3l-1.6,2.2l-2.6-0.8v-2.7l2.6-0.8L-64.7-31.3z"/>
	</g>
</g>
</svg>
