<?xml version="1.0" encoding="utf-8"?>
<!-- Generator: Adobe Illustrator 26.1.0, SVG Export Plug-In . SVG Version: 6.00 Build 0)  -->
<svg version="1.1" id="Ebene_1" xmlns="http://www.w3.org/2000/svg" xmlns:xlink="http://www.w3.org/1999/xlink" x="0px" y="0px"
	 viewBox="0 0 2100 1400" style="enable-background:new 0 0 2100 1400;" xml:space="preserve">
<style type="text/css">
	.st0{fill:none;stroke:#FFFFFF;stroke-width:2;stroke-linecap:round;stroke-miterlimit:20;}
	.st1{fill:none;stroke:#FFA100;stroke-width:2;stroke-linecap:round;stroke-miterlimit:20;}
	.st2{fill:none;stroke:#FFA000;stroke-width:2;stroke-linecap:round;stroke-miterlimit:20;}
	.st3{fill:none;stroke:#FF0092;stroke-width:2;stroke-linecap:round;stroke-miterlimit:20;}
	.st4{fill:none;stroke:#009EFF;stroke-width:2;stroke-linecap:round;stroke-miterlimit:20;}
	.st5{fill:none;stroke:#B4FF00;stroke-width:2;stroke-linecap:round;stroke-miterlimit:20;}
	.st6{fill:none;stroke:#0048FF;stroke-width:2;stroke-linecap:round;stroke-miterlimit:20;}
	.st7{fill:none;stroke:#1900FF;stroke-width:2;stroke-linecap:round;stroke-miterlimit:20;}
	.st8{fill:none;stroke:#00FF96;stroke-width:2;stroke-linecap:round;stroke-miterlimit:20;}
	.st9{fill:none;stroke:#BDFF00;stroke-width:2;stroke-linecap:round;stroke-miterlimit:20;}
	.st10{fill:none;stroke:#FF9000;stroke-width:2;stroke-linecap:round;stroke-miterlimit:20;}
	.st11{fill:none;stroke:#C800FF;stroke-width:2;stroke-linecap:round;stroke-miterlimit:20;}
	.st12{fill:none;stroke:#0038FF;stroke-width:2;stroke-linecap:round;stroke-miterlimit:20;}
	.st13{fill:none;stroke:#FF2100;stroke-width:2;stroke-linecap:round;stroke-miterlimit:20;}
	.st14{fill:none;stroke:#00FFC5;stroke-width:2;stroke-linecap:round;stroke-miterlimit:20;}
	.st15{fill:none;stroke:#4900FF;stroke-width:2;stroke-linecap:round;stroke-miterlimit:20;}
	.st16{fill:none;stroke:#FFB000;stroke-width:2;stroke-linecap:round;stroke-miterlimit:20;}
	.st17{fill:none;stroke:#39FF00;stroke-width:2;stroke-linecap:round;stroke-miterlimit:20;}
	.st18{fill:none;stroke:#00FF7F;stroke-width:2;stroke-linecap:round;stroke-miterlimit:20;}
	.st19{fill:none;stroke:#FFBB00;stroke-width:2;stroke-linecap:round;stroke-miterlimit:20;}
	.st20{fill:none;stroke:#0B00FF;stroke-width:2;stroke-linecap:round;stroke-miterlimit:20;}
	.st21{fill:none;stroke:#29FF00;stroke-width:2;stroke-linecap:round;stroke-miterlimit:20;}
	.st22{fill:none;stroke:#A500FF;stroke-width:2;stroke-linecap:round;stroke-miterlimit:20;}
	.st23{fill:none;stroke:#FF0097;stroke-width:2;stroke-linecap:round;stroke-miterlimit:20;}
	.st24{fill:none;stroke:#00FF29;stroke-width:2;stroke-linecap:round;stroke-miterlimit:20;}
</style>
<g>
	<g transform="scale(2,2)">
		<rect y="0" width="1050" height="700"/>
	</g>
	<g transform="matrix(2,0,0,2,0,0) translate(525,350)">
		<path class="st0" d="M204.6,84.4c-5.1-173.5-37.3-45.9-70.3-129.4"/>
		<path class="st0" d="M134.3-44.9c-33-83.5,33.7,159.1-17.2,17"/>
		<path class="st0" d="M117.1-28c-51-142.1,41.2,163.2,48.4-2.2"/>
		<path class="st0" d="M165.5-30.2c7.2-165.4-368-62.2-304.4,81.1"/>
		<path class="st0" d="M-138.9,50.9c63.6,143.3,348.6,207.1,343.5,33.5"/>
		<path class="st1" d="M210.7,257.9l-0.7,1l-1.1-0.4v-1.2l1.1-0.4L210.7,257.9z"/>
		<path class="st1" d="M200.5-89.1l-0.7,1l-1.1-0.4v-1.2l1.1-0.4L200.5-89.1z"/>
		<path class="st1" d="M168.4,38.6l-0.7,1l-1.1-0.4V38l1.1-0.4L168.4,38.6z"/>
		<path class="st1" d="M102.3-128.4l-0.7,1l-1.1-0.4v-1.2l1.1-0.4L102.3-128.4z"/>
		<path class="st1" d="M169.1,114.2l-0.7,1l-1.1-0.4v-1.2l1.1-0.4L169.1,114.2z"/>
		<path class="st1" d="M67.1-170.1l-0.7,1l-1.1-0.4v-1.2l1.1-0.4L67.1-170.1z"/>
		<path class="st1" d="M159.3,135.2l-0.7,1l-1.1-0.4v-1.2l1.1-0.4L159.3,135.2z"/>
		<path class="st1" d="M173.6-195.6l-0.7,1l-1.1-0.4v-1.2l1.1-0.4L173.6-195.6z"/>
		<path class="st1" d="M-201.5-92.4l-0.7,1l-1.1-0.4V-93l1.1-0.4L-201.5-92.4z"/>
		<path class="st1" d="M-74.3,194.2l-0.7,1l-1.1-0.4v-1.2l1.1-0.4L-74.3,194.2z"/>
		<path class="st0" d="M204.6,84.4c-3.8-130.1-45.5-66.7-70.3-129.4"/>
		<path class="st0" d="M134.3-44.9c-24.8-62.6,21,123.6-17.2,17"/>
		<path class="st0" d="M117.1-28c-38.2-106.6,43,121.8,48.4-2.2"/>
		<path class="st0" d="M165.5-30.2c5.4-124.1-352.1-26.4-304.4,81.1"/>
		<path class="st0" d="M-138.9,50.9c47.7,107.5,347.4,163.7,343.5,33.5"/>
		<path class="st2" d="M210.1,214.6l-1.1,1.5l-1.8-0.6v-1.9l1.8-0.6L210.1,214.6z"/>
		<path class="st2" d="M202.4-45.7l-1.1,1.5l-1.8-0.6v-1.9l1.8-0.6L202.4-45.7z"/>
		<path class="st2" d="M160.7,17.7l-1.1,1.5l-1.8-0.6v-1.9l1.8-0.6L160.7,17.7z"/>
		<path class="st2" d="M111.2-107.6l-1.1,1.5l-1.8-0.6v-1.9l1.8-0.6L111.2-107.6z"/>
		<path class="st2" d="M156.9,78.6l-1.1,1.5l-1.8-0.6v-1.9l1.8-0.6L156.9,78.6z"/>
		<path class="st2" d="M80.5-134.6l-1.1,1.5l-1.8-0.6v-1.9l1.8-0.6L80.5-134.6z"/>
		<path class="st2" d="M161.7,93.9l-1.1,1.5l-1.8-0.6v-1.9l1.8-0.6L161.7,93.9z"/>
		<path class="st2" d="M172.5-154.3l-1.1,1.5l-1.8-0.6v-1.9l1.8-0.6L172.5-154.3z"/>
		<path class="st2" d="M-185-56.6l-1.1,1.5l-1.8-0.6v-1.9l1.8-0.6L-185-56.6z"/>
		<path class="st2" d="M-89.6,158.4l-1.1,1.5l-1.8-0.6v-1.9l1.8-0.6L-89.6,158.4z"/>
		<path class="st0" d="M204.6,84.4C201.8-13.2,152.9,2,134.3-44.9"/>
		<path class="st0" d="M134.3-44.9c-18.6-47,11.4,96.9-17.2,17"/>
		<path class="st0" d="M117.1-28c-28.7-80,44.4,90.8,48.4-2.2"/>
		<path class="st0" d="M165.5-30.2c4-93-340.2,0.5-304.4,81.1"/>
		<path class="st0" d="M-138.9,50.9c35.8,80.6,346.4,131.1,343.5,33.5"/>
		<path class="st3" d="M209.7,182l-1.5,2.1l-2.5-0.8v-2.6l2.5-0.8L209.7,182z"/>
		<path class="st3" d="M204-13.2l-1.5,2.1l-2.5-0.8v-2.6l2.5-0.8L204-13.2z"/>
		<path class="st3" d="M155.1,2l-1.5,2.1l-2.5-0.8V0.7l2.5-0.8L155.1,2z"/>
		<path class="st3" d="M118-91.9l-1.5,2.1l-2.5-0.8v-2.6l2.5-0.8L118-91.9z"/>
		<path class="st3" d="M148,52l-1.5,2.1l-2.5-0.8v-2.6l2.5-0.8L148,52z"/>
		<path class="st3" d="M90.6-107.9l-1.5,2.1l-2.5-0.8v-2.6l2.5-0.8L90.6-107.9z"/>
		<path class="st3" d="M163.7,62.8l-1.5,2.1l-2.5-0.8v-2.6l2.5-0.8L163.7,62.8z"/>
		<path class="st3" d="M171.7-123.2l-1.5,2.1l-2.5-0.8v-2.6l2.5-0.8L171.7-123.2z"/>
		<path class="st3" d="M-172.5-29.7l-1.5,2.1l-2.5-0.8V-31l2.5-0.8L-172.5-29.7z"/>
		<path class="st3" d="M-100.9,131.5l-1.5,2.1l-2.5-0.8v-2.6l2.5-0.8L-100.9,131.5z"/>
		<path class="st0" d="M204.6,84.4c-2.1-73.2-56.4-94.1-70.3-129.4"/>
		<path class="st0" d="M134.3-44.9c-13.9-35.2,4.3,76.9-17.2,17"/>
		<path class="st0" d="M117.1-28c-21.5-60,45.4,67.6,48.4-2.2"/>
		<path class="st0" d="M165.5-30.2c3-69.8-331.2,20.6-304.4,81.1"/>
		<path class="st0" d="M-138.9,50.9c26.8,60.5,345.7,106.7,343.5,33.5"/>
		<path class="st4" d="M209.6,157.6l-1.9,2.7l-3.1-1V156l3.1-1L209.6,157.6z"/>
		<path class="st4" d="M205.3,11.2l-1.9,2.7l-3.1-1V9.6l3.1-1L205.3,11.2z"/>
		<path class="st4" d="M151.1-9.7L149.1-7l-3.1-1v-3.3l3.1-1L151.1-9.7z"/>
		<path class="st4" d="M123.2-80.2l-1.9,2.7l-3.1-1v-3.3l3.1-1L123.2-80.2z"/>
		<path class="st4" d="M141.4,32l-1.9,2.7l-3.1-1v-3.3l3.1-1L141.4,32z"/>
		<path class="st4" d="M98.4-88l-1.9,2.7l-3.1-1v-3.3l3.1-1L98.4-88z"/>
		<path class="st4" d="M165.3,39.6l-1.9,2.7l-3.1-1v-3.3l3.1-1L165.3,39.6z"/>
		<path class="st4" d="M171.3-100l-1.9,2.7l-3.1-1v-3.3l3.1-1L171.3-100z"/>
		<path class="st4" d="M-163-9.6l-1.9,2.7l-3.1-1v-3.3l3.1-1L-163-9.6z"/>
		<path class="st4" d="M-109.3,111.4l-1.9,2.7l-3.1-1v-3.3l3.1-1L-109.3,111.4z"/>
		<path class="st0" d="M204.6,84.4c-1.6-54.9-59.9-103-70.3-129.4"/>
		<path class="st0" d="M134.3-44.9c-10.4-26.4-1.1,61.9-17.2,17"/>
		<path class="st0" d="M117.1-28c-16.1-45,46.1,50.1,48.4-2.2"/>
		<path class="st0" d="M165.5-30.2C167.8-82.5-159,5.5-138.9,50.9"/>
		<path class="st0" d="M-138.9,50.9c20.1,45.3,345.2,88.4,343.5,33.5"/>
		<path class="st5" d="M209.6,139.3l-2.3,3.2l-3.8-1.2v-4l3.8-1.2L209.6,139.3z"/>
		<path class="st5" d="M206.4,29.5l-2.3,3.2l-3.8-1.2v-4l3.8-1.2L206.4,29.5z"/>
		<path class="st5" d="M148.2-18.5l-2.3,3.2l-3.8-1.2v-4l3.8-1.2L148.2-18.5z"/>
		<path class="st5" d="M127.3-71.4l-2.3,3.2l-3.8-1.2v-4l3.8-1.2L127.3-71.4z"/>
		<path class="st5" d="M136.6,17l-2.3,3.2l-3.8-1.2v-4l3.8-1.2L136.6,17z"/>
		<path class="st5" d="M104.4-73l-2.3,3.2L98.2-71v-4l3.8-1.2L104.4-73z"/>
		<path class="st5" d="M166.6,22.1l-2.3,3.2l-3.8-1.2v-4l3.8-1.2L166.6,22.1z"/>
		<path class="st5" d="M171.2-82.5l-2.3,3.2l-3.8-1.2v-4l3.8-1.2L171.2-82.5z"/>
		<path class="st5" d="M-155.6,5.5l-2.3,3.2l-3.8-1.2v-4l3.8-1.2L-155.6,5.5z"/>
		<path class="st5" d="M-115.4,96.2l-2.3,3.2l-3.8-1.2v-4l3.8-1.2L-115.4,96.2z"/>
		<path class="st0" d="M204.6,84.4c-1.2-41.2-62.5-109.6-70.3-129.4"/>
		<path class="st0" d="M134.3-44.9c-7.8-19.8-5.1,50.7-17.2,17"/>
		<path class="st0" d="M117.1-28c-12.1-33.7,46.7,37,48.4-2.2"/>
		<path class="st0" d="M165.5-30.2c1.7-39.3-319.5,47.1-304.4,81.1"/>
		<path class="st0" d="M-138.9,50.9c15.1,34,344.8,74.7,343.5,33.5"/>
		<path class="st6" d="M209.8,125.6l-2.8,3.8l-4.5-1.5v-4.7l4.5-1.5L209.8,125.6z"/>
		<path class="st6" d="M207.4,43.3l-2.8,3.8l-4.5-1.5v-4.7l4.5-1.5L207.4,43.3z"/>
		<path class="st6" d="M146.2-25.1l-2.8,3.8l-4.5-1.5v-4.7l4.5-1.5L146.2-25.1z"/>
		<path class="st6" d="M130.5-64.8l-2.8,3.8l-4.5-1.5v-4.7l4.5-1.5L130.5-64.8z"/>
		<path class="st6" d="M133.2,5.7l-2.8,3.8l-4.5-1.5V3.4l4.5-1.5L133.2,5.7z"/>
		<path class="st6" d="M109-61.7l-2.8,3.8l-4.5-1.5v-4.7l4.5-1.5L109-61.7z"/>
		<path class="st6" d="M167.8,9.1l-2.8,3.8l-4.5-1.5V6.7l4.5-1.5L167.8,9.1z"/>
		<path class="st6" d="M171.2-69.5l-2.8,3.8l-4.5-1.5v-4.7l4.5-1.5L171.2-69.5z"/>
		<path class="st6" d="M-150,16.9l-2.8,3.8l-4.5-1.5v-4.7l4.5-1.5L-150,16.9z"/>
		<path class="st6" d="M-119.8,84.9l-2.8,3.8l-4.5-1.5v-4.7l4.5-1.5L-119.8,84.9z"/>
		<path class="st0" d="M204.6,84.4c-0.9-30.9-64.4-114.5-70.3-129.4"/>
		<path class="st0" d="M134.3-44.9c-5.9-14.9-8.2,42.3-17.2,17"/>
		<path class="st0" d="M117.1-28c-9.1-25.3,47.1,27.2,48.4-2.2"/>
		<path class="st0" d="M165.5-30.2c1.3-29.4-315.7,55.6-304.4,81.1"/>
		<path class="st0" d="M-138.9,50.9c11.3,25.5,344.5,64.4,343.5,33.5"/>
		<path class="st7" d="M210.1,115.3l-3.2,4.4l-5.1-1.7v-5.4l5.1-1.7L210.1,115.3z"/>
		<path class="st7" d="M208.3,53.6l-3.2,4.4l-5.1-1.7v-5.4l5.1-1.7L208.3,53.6z"/>
		<path class="st7" d="M144.8-30.1l-3.2,4.4l-5.1-1.7v-5.4l5.1-1.7L144.8-30.1z"/>
		<path class="st7" d="M133.1-59.8l-3.2,4.4l-5.1-1.7v-5.4l5.1-1.7L133.1-59.8z"/>
		<path class="st7" d="M130.8-2.7l-3.2,4.4L122.4,0v-5.4l5.1-1.7L130.8-2.7z"/>
		<path class="st7" d="M112.6-53.3l-3.2,4.4l-5.1-1.7V-56l5.1-1.7L112.6-53.3z"/>
		<path class="st7" d="M168.8-0.8l-3.2,4.4l-5.1-1.7v-5.4l5.1-1.7L168.8-0.8z"/>
		<path class="st7" d="M171.4-59.6l-3.2,4.4l-5.1-1.7v-5.4l5.1-1.7L171.4-59.6z"/>
		<path class="st7" d="M-145.6,25.4l-3.2,4.4l-5.1-1.7v-5.4l5.1-1.7L-145.6,25.4z"/>
		<path class="st7" d="M-123,76.4l-3.2,4.4l-5.1-1.7v-5.4l5.1-1.7L-123,76.4z"/>
		<path class="st0" d="M204.6,84.4C204,61.3,138.7-33.8,134.3-44.9"/>
		<path class="st0" d="M134.3-44.9c-4.4-11.1-10.4,35.9-17.2,17"/>
		<path class="st0" d="M117.1-28c-6.8-19,47.4,19.9,48.4-2.2"/>
		<path class="st0" d="M165.5-30.2c1-22.1-312.9,62-304.4,81.1"/>
		<path class="st0" d="M-138.9,50.9c8.5,19.1,344.2,56.7,343.5,33.5"/>
		<path class="st8" d="M210.5,107.6l-3.6,4.9l-5.8-1.9v-6.1l5.8-1.9L210.5,107.6z"/>
		<path class="st8" d="M209.2,61.3l-3.6,4.9l-5.8-1.9v-6.1l5.8-1.9L209.2,61.3z"/>
		<path class="st8" d="M143.9-33.8l-3.6,4.9l-5.8-1.9v-6.1l5.8-1.9L143.9-33.8z"/>
		<path class="st8" d="M135.1-56.1l-3.6,4.9l-5.8-1.9v-6.1l5.8-1.9L135.1-56.1z"/>
		<path class="st8" d="M129.1-9l-3.6,4.9L119.7-6v-6.1l5.8-1.9L129.1-9z"/>
		<path class="st8" d="M115.5-47l-3.6,4.9l-5.8-1.9V-50l5.8-1.9L115.5-47z"/>
		<path class="st8" d="M169.7-8.1l-3.6,4.9l-5.8-1.9v-6.1l5.8-1.9L169.7-8.1z"/>
		<path class="st8" d="M171.6-52.3l-3.6,4.9l-5.8-1.9v-6.1l5.8-1.9L171.6-52.3z"/>
		<path class="st8" d="M-142.2,31.8l-3.6,4.9l-5.8-1.9v-6.1l5.8-1.9L-142.2,31.8z"/>
		<path class="st8" d="M-125.2,70l-3.6,4.9l-5.8-1.9V67l5.8-1.9L-125.2,70z"/>
		<path class="st0" d="M204.6,84.4c-0.5-17.4-67-121-70.3-129.4"/>
		<path class="st0" d="M134.3-44.9c-3.3-8.4-12.1,31.2-17.2,17"/>
		<path class="st0" d="M117.1-28c-5.1-14.2,47.7,14.3,48.4-2.2"/>
		<path class="st0" d="M165.5-30.2c0.7-16.6-310.8,66.7-304.4,81.1"/>
		<path class="st0" d="M-138.9,50.9c6.4,14.3,344.1,50.9,343.5,33.5"/>
		<path class="st9" d="M210.9,101.8l-4,5.5l-6.5-2.1v-6.8l6.5-2.1L210.9,101.8z"/>
		<path class="st9" d="M209.9,67.1l-4,5.5l-6.5-2.1v-6.8l6.5-2.1L209.9,67.1z"/>
		<path class="st9" d="M143.4-36.6l-4,5.5l-6.5-2.1V-40l6.5-2.1L143.4-36.6z"/>
		<path class="st9" d="M136.8-53.3l-4,5.5l-6.5-2.1v-6.8l6.5-2.1L136.8-53.3z"/>
		<path class="st9" d="M128-13.8l-4,5.5l-6.5-2.1v-6.8l6.5-2.1L128-13.8z"/>
		<path class="st9" d="M117.8-42.2l-4,5.5l-6.5-2.1v-6.8l6.5-2.1L117.8-42.2z"/>
		<path class="st9" d="M170.6-13.6l-4,5.5l-6.5-2.1l0-6.8l6.5-2.1L170.6-13.6z"/>
		<path class="st9" d="M172-46.8l-4,5.5l-6.5-2.1v-6.8l6.5-2.1L172-46.8z"/>
		<path class="st9" d="M-139.5,36.5l-4,5.5L-150,40v-6.8l6.5-2.1L-139.5,36.5z"/>
		<path class="st9" d="M-126.7,65.2l-4,5.5l-6.5-2.1v-6.8l6.5-2.1L-126.7,65.2z"/>
		<path class="st0" d="M204.6,84.4c-0.4-13-67.8-123.1-70.3-129.4"/>
		<path class="st0" d="M134.3-44.9c-2.5-6.3-13.4,27.6-17.2,17"/>
		<path class="st0" d="M117.1-28c-3.8-10.7,47.9,10.2,48.4-2.2"/>
		<path class="st0" d="M165.5-30.2c0.5-12.4-309.2,70.3-304.4,81.1"/>
		<path class="st0" d="M-138.9,50.9c4.8,10.8,343.9,46.6,343.5,33.5"/>
		<path class="st10" d="M211.4,97.5l-4.4,6.1l-7.2-2.3v-7.5l7.2-2.3L211.4,97.5z"/>
		<path class="st10" d="M210.7,71.4l-4.4,6.1l-7.2-2.3v-7.5l7.2-2.3L210.7,71.4z"/>
		<path class="st10" d="M143.2-38.7l-4.4,6.1l-7.2-2.3v-7.5l7.2-2.3L143.2-38.7z"/>
		<path class="st10" d="M138.3-51.2l-4.4,6.1l-7.2-2.3V-55l7.2-2.3L138.3-51.2z"/>
		<path class="st10" d="M127.3-17.3l-4.4,6.1l-7.2-2.3v-7.5l7.2-2.3L127.3-17.3z"/>
		<path class="st10" d="M119.7-38.7l-4.4,6.1l-7.2-2.3v-7.5l7.2-2.3L119.7-38.7z"/>
		<path class="st10" d="M171.3-17.8l-4.4,6.1l-7.2-2.3v-7.5l7.2-2.3L171.3-17.8z"/>
		<path class="st10" d="M172.4-42.6l-4.4,6.1l-7.2-2.3v-7.5l7.2-2.3L172.4-42.6z"/>
		<path class="st10" d="M-137.3,40.1l-4.4,6.1l-7.2-2.3v-7.5l7.2-2.3L-137.3,40.1z"/>
		<path class="st10" d="M-127.7,61.7l-4.4,6.1l-7.2-2.3v-7.5l7.2-2.3L-127.7,61.7z"/>
		<path class="st0" d="M-386-263.3c4.5-38-60.9-63.6-29.5-53.1"/>
		<path class="st0" d="M-415.5-316.4c31.4,10.6,25,91,29.5,53.1"/>
		<path class="st11" d="M-385.9-225.3l-3.2,4.4l-5.1-1.7v-5.4l5.1-1.7L-385.9-225.3z"/>
		<path class="st11" d="M-376.9-301.3l-3.2,4.4l-5.1-1.7v-5.4l5.1-1.7L-376.9-301.3z"/>
		<path class="st11" d="M-442.3-326.9l-3.2,4.4l-5.1-1.7v-5.4l5.1-1.7L-442.3-326.9z"/>
		<path class="st11" d="M-379.5-305.8l-3.2,4.4l-5.1-1.7v-5.4l5.1-1.7L-379.5-305.8z"/>
		<path class="st0" d="M-377.2-101.3c-15.3-11.2-5.7-32.8-14.3-1.1"/>
		<path class="st0" d="M-391.5-102.3c-8.6,31.8,29.6,12.2,14.3,1.1"/>
		<path class="st12" d="M-357.4-90.1l-3.2,4.4l-5.1-1.7v-5.4l5.1-1.7L-357.4-90.1z"/>
		<path class="st12" d="M-387.9-112.4l-3.2,4.4l-5.1-1.7v-5.4l5.1-1.7L-387.9-112.4z"/>
		<path class="st12" d="M-378.3-134.1l-3.2,4.4l-5.1-1.7v-5.4l5.1-1.7L-378.3-134.1z"/>
		<path class="st12" d="M-395.6-70.5l-3.2,4.4l-5.1-1.7v-5.4l5.1-1.7L-395.6-70.5z"/>
		<path class="st0" d="M-440.3,106.8c46.2,7.1-15.7-36.3-29.3-38.5"/>
		<path class="st0" d="M-469.6,68.4c-13.6-2.2-16.9,31.4,29.3,38.5"/>
		<path class="st13" d="M-481.9,99.7l-3.2,4.4l-5.1-1.7V97l5.1-1.7L-481.9,99.7z"/>
		<path class="st13" d="M-389.5,113.9l-3.2,4.4l-5.1-1.7v-5.4l5.1-1.7L-389.5,113.9z"/>
		<path class="st13" d="M-451.4,70.5l-3.2,4.4l-5.1-1.7v-5.4l5.1-1.7L-451.4,70.5z"/>
		<path class="st13" d="M-478.5,66.2l-3.2,4.4l-5.1-1.7v-5.4l5.1-1.7L-478.5,66.2z"/>
		<path class="st0" d="M-363.9,286.8c1.7,12.1-150.8-66.1-152.6-80.2"/>
		<path class="st0" d="M-516.6,206.6c-1.8-14.1,150.9,68.1,152.6,80.2"/>
		<path class="st14" d="M-361.1,274.7l-3.2,4.4l-5.1-1.7V272l5.1-1.7L-361.1,274.7z"/>
		<path class="st14" d="M-357.6,298.9l-3.2,4.4l-5.1-1.7v-5.4l5.1-1.7L-357.6,298.9z"/>
		<path class="st14" d="M-510.1,220.7l-3.2,4.4l-5.1-1.7V218l5.1-1.7L-510.1,220.7z"/>
		<path class="st14" d="M-513.8,192.5l-3.2,4.4l-5.1-1.7v-5.4l5.1-1.7L-513.8,192.5z"/>
		<path class="st0" d="M-182.4-261c12.8,6-92.7-13.5-94.9,1.5"/>
		<path class="st0" d="M-277.3-259.5c-2.2,15,82.2-7.5,94.9-1.5"/>
		<path class="st15" d="M-190.6-267l-3.2,4.4l-5.1-1.7v-5.4l5.1-1.7L-190.6-267z"/>
		<path class="st15" d="M-165.1-255l-3.2,4.4l-5.1-1.7v-5.4l5.1-1.7L-165.1-255z"/>
		<path class="st15" d="M-270.5-274.5l-3.2,4.4l-5.1-1.7v-5.4l5.1-1.7L-270.5-274.5z"/>
		<path class="st15" d="M-274.9-244.5l-3.2,4.4l-5.1-1.7v-5.4l5.1-1.7L-274.9-244.5z"/>
		<path class="st0" d="M-162.1,268.1c5.1,15.5-114.3-61.3-123.5-55.8"/>
		<path class="st0" d="M-285.6,212.3c-9.2,5.6,118.5,40.3,123.5,55.8"/>
		<path class="st16" d="M-162.6,252.6l-3.2,4.4l-5.1-1.7v-5.4l5.1-1.7L-162.6,252.6z"/>
		<path class="st16" d="M-152.4,283.6l-3.2,4.4l-5.1-1.7v-5.4l5.1-1.7L-152.4,283.6z"/>
		<path class="st16" d="M-271.8,206.8l-3.2,4.4l-5.1-1.7v-5.4l5.1-1.7L-271.8,206.8z"/>
		<path class="st16" d="M-290.2,217.9l-3.2,4.4l-5.1-1.7v-5.4l5.1-1.7L-290.2,217.9z"/>
		<path class="st0" d="M-57.7-270c37.3-44.7,81.1,26.1,98,20.8"/>
		<path class="st0" d="M40.4-249.1c17-5.2-135.3,23.9-98-20.8"/>
		<path class="st17" d="M-90.3-225.3l-3.2,4.4l-5.1-1.7v-5.4l5.1-1.7L-90.3-225.3z"/>
		<path class="st17" d="M-15.8-314.7l-3.2,4.4l-5.1-1.7v-5.4l5.1-1.7L-15.8-314.7z"/>
		<path class="st17" d="M28-243.9l-3.2,4.4l-5.1-1.7v-5.4l5.1-1.7L28-243.9z"/>
		<path class="st17" d="M61.9-254.3l-3.2,4.4l-5.1-1.7v-5.4l5.1-1.7L61.9-254.3z"/>
		<path class="st0" d="M13.4,204.8c-42.7-5.4,31.4,95.9,1.9,50.5"/>
		<path class="st0" d="M15.3,255.3c-29.4-45.4,40.8-45.1-1.9-50.5"/>
		<path class="st18" d="M60.7,210.2l-3.2,4.4l-5.1-1.7v-5.4l5.1-1.7L60.7,210.2z"/>
		<path class="st18" d="M-24.7,199.4l-3.2,4.4l-5.1-1.7v-5.4l5.1-1.7L-24.7,199.4z"/>
		<path class="st18" d="M49.3,300.7l-3.2,4.4l-5.1-1.7V298l5.1-1.7L49.3,300.7z"/>
		<path class="st18" d="M-9.5,209.9l-3.2,4.4l-5.1-1.7v-5.4l5.1-1.7L-9.5,209.9z"/>
		<path class="st0" d="M217.1-282.9c34.4-20.8,3.1,57.7,15.9,46.6"/>
		<path class="st0" d="M233-236.3c12.7-11.1-50.3-25.8-15.9-46.6"/>
		<path class="st19" d="M187.3-262.1l-3.2,4.4l-5.1-1.7v-5.4l5.1-1.7L187.3-262.1z"/>
		<path class="st19" d="M256.1-303.7l-3.2,4.4l-5.1-1.7v-5.4l5.1-1.7L256.1-303.7z"/>
		<path class="st19" d="M224.9-225.2l-3.2,4.4l-5.1-1.7v-5.4l5.1-1.7L224.9-225.2z"/>
		<path class="st19" d="M250.3-247.4l-3.2,4.4l-5.1-1.7v-5.4l5.1-1.7L250.3-247.4z"/>
		<path class="st0" d="M163.9,260.5c13.2,34.1,98.1-12.4,99.7-32.9"/>
		<path class="st0" d="M263.6,227.6c1.6-20.5-112.9-1.2-99.7,32.9"/>
		<path class="st20" d="M155.3,226.4l-3.2,4.4l-5.1-1.7v-5.4l5.1-1.7L155.3,226.4z"/>
		<path class="st20" d="M181.6,294.7l-3.2,4.4l-5.1-1.7V292l5.1-1.7L181.6,294.7z"/>
		<path class="st20" d="M266.5,248.2l-3.2,4.4l-5.1-1.7v-5.4l5.1-1.7L266.5,248.2z"/>
		<path class="st20" d="M269.8,207.1l-3.2,4.4l-5.1-1.7v-5.4l5.1-1.7L269.8,207.1z"/>
		<path class="st0" d="M401.4-272.1c-54.2,17.9,68.5-6.5,72.5,10"/>
		<path class="st0" d="M473.9-262.1c4.1,16.5-18.4-27.9-72.5-10"/>
		<path class="st21" d="M460.2-290.1l-3.2,4.4l-5.1-1.7v-5.4l5.1-1.7L460.2-290.1z"/>
		<path class="st21" d="M351.9-254.2l-3.2,4.4l-5.1-1.7v-5.4l5.1-1.7L351.9-254.2z"/>
		<path class="st21" d="M474.5-278.6l-3.2,4.4l-5.1-1.7v-5.4l5.1-1.7L474.5-278.6z"/>
		<path class="st21" d="M482.6-245.6l-3.2,4.4l-5.1-1.7v-5.4l5.1-1.7L482.6-245.6z"/>
		<path class="st0" d="M467.2-81.7c11.2,11.1-7.1-55.4-22.4-53.6"/>
		<path class="st0" d="M444.7-135.3c-15.4,1.9,11.2,42.5,22.4,53.6"/>
		<path class="st22" d="M460.5-92.8l-3.2,4.4l-5.1-1.7v-5.4l5.1-1.7L460.5-92.8z"/>
		<path class="st22" d="M483-70.6l-3.2,4.4l-5.1-1.7v-5.4l5.1-1.7L483-70.6z"/>
		<path class="st22" d="M464.7-137.1l-3.2,4.4l-5.1-1.7v-5.4l5.1-1.7L464.7-137.1z"/>
		<path class="st22" d="M433.9-133.4l-3.2,4.4l-5.1-1.7v-5.4l5.1-1.7L433.9-133.4z"/>
		<path class="st0" d="M385.7,92.3c-2.3-31.2,31.3,32,21.1,30.7"/>
		<path class="st0" d="M406.7,123c-10.2-1.3-18.8,0.5-21.1-30.7"/>
		<path class="st23" d="M392.6,123.5l-3.2,4.4l-5.1-1.7v-5.4l5.1-1.7L392.6,123.5z"/>
		<path class="st23" d="M388,61.1l-3.2,4.4l-5.1-1.7v-5.4l5.1-1.7L388,61.1z"/>
		<path class="st23" d="M421.6,124.3l-3.2,4.4l-5.1-1.7v-5.4l5.1-1.7L421.6,124.3z"/>
		<path class="st23" d="M401.1,121.7l-3.2,4.4l-5.1-1.7V119l5.1-1.7L401.1,121.7z"/>
		<path class="st0" d="M442,251.6c-31.1-36.5-102.5,12.5-78.8-3.2"/>
		<path class="st0" d="M363.2,248.4c23.7-15.7,109.9,39.7,78.8,3.2"/>
		<path class="st24" d="M477.7,288.1l-3.2,4.4l-5.1-1.7v-5.4l5.1-1.7L477.7,288.1z"/>
		<path class="st24" d="M415.5,215.1l-3.2,4.4l-5.1-1.7v-5.4l5.1-1.7L415.5,215.1z"/>
		<path class="st24" d="M344.1,264.2l-3.2,4.4l-5.1-1.7v-5.4l5.1-1.7L344.1,264.2z"/>
		<path class="st24" d="M391.5,232.7l-3.2,4.4l-5.1-1.7V230l5.1-1.7L391.5,232.7z"/>
	</g>
</g>
</svg>
