<?xml version="1.0" encoding="utf-8"?>
<!-- Generator: Adobe Illustrator 26.1.0, SVG Export Plug-In . SVG Version: 6.00 Build 0)  -->
<svg version="1.1" id="Ebene_1" xmlns="http://www.w3.org/2000/svg" xmlns:xlink="http://www.w3.org/1999/xlink" x="0px" y="0px"
	 viewBox="0 0 1600 1600" style="enable-background:new 0 0 1600 1600;" xml:space="preserve">
<style type="text/css">
	.st0{fill:#FFFFFF;}
	.st1{fill:none;stroke:#000000;stroke-width:2;stroke-linecap:round;stroke-miterlimit:20;}
</style>
<g>
	<g transform="scale(2,2)">
		<rect y="0" class="st0" width="800" height="800"/>
	</g>
	<g transform="matrix(2,0,0,2,0,0)">
		<path class="st1" d="M50,75l8,8l8-8l0,0l6,6l0,0l6-6l0,0l6,6l0,0l6,6l0,0h8v8l0,0h8v-8v-8h8v8v8h8v-8v-8l0,0l4,4l0,0v6v6l0,0h2h2
			l0,0v-2v-2l0,0v-6v-6l0,0l8,8l8,8l0,0v-6v-6v-6v-6l0,0h4v4h4v-4l0,0l8-8l0,0l4,4l4-4l0,0v-2l0,0l8,8l8-8l8,8l8-8l8,8l8-8l0,0v6
			l0,0l6,6l6-6l6,6l6-6l6,6l6-6l6,6l6-6l0,0v-2v-2l0,0l2-2l2-2l2-2l2-2l0,0l6,6l6,6l0,0l8,8l8,8l8,8l0,0v-6v-6l0,0v-4l0,0l6-6l6-6
			l0,0l4,4l0,0v6l0,0h8v8h8v-8h8v8h8v-8l0,0l6-6l6-6l0,0h2h2l0,0v6v6l0,0v-4l0,0l4,4l4,4l4,4l0,0v4v4v4v4l0,0h4h4l0,0h4l4-4l0,0h8
			l8-8l8,8l8-8l0,0h8v8h8v-8h8v8h8v-8l0,0l2,2l2,2l0,0v-2v-2l0,0l4-4l4-4l4-4l4-4l0,0h6h6h6h6l0,0h6v6v6h6v-6v-6h6v6v6h6v-6v-6l0,0
			v-6v-6v-6l0,0h6h6h6l0,0v4v4v4l0,0l6,6l6,6l0,0l4,4l0,0h4v4h4v-4h4v4h4v-4l0,0h4v4h4v-4l0,0h8v8h8v-8h8v8h8v-8l0,0h2v2h2v-2h2v2h2
			v-2l0,0l8,8l8-8l8,8l8-8l8,8l8-8l0,0l4-4l4-4l4-4l4-4l0,0l6-6l0,0h8v8h8v-8l0,0v-4l0,0l8,8l8-8l0,0l2,2l2-2l0,0h6v6v6h6v-6v-6v6v6
			v-6v-6"/>
		<path class="st1" d="M50,167l8-8l0,0v4v4l0,0h8v8v8h8v-8v-8l0,0v-8v-8l0,0v-4v-4l0,0l2,2l2-2l0,0h8l0,0l2,2l0,0h6v6h6v-6h6v6h6v-6
			h6v6h6v-6l0,0l6,6l6,6l0,0h6v6v6h6v-6v-6h6v6v6h6v-6v-6l0,0l6-6l0,0v-4l0,0h4v4v4h4v-4v-4h4v4v4h4v-4v-4l0,0h-2h-2h-2h-2l0,0v6v6
			l0,0h6h6l0,0h2v2h2v-2h2v2h2v-2l0,0l4-4l4-4l4-4l0,0h6h6l0,0l0,0l0,0l0,0l-4,4l-4-4l0,0h4v4v4h4v-4v-4h4v4v4h4v-4v-4l0,0h6v6v6h6
			v-6v-6h6v6v6h6v-6v-6h6v6v6h6v-6v-6l0,0l8,8l8-8l8,8l8-8l0,0h6l0,0v4v4l0,0v-4l0,0v6v6l0,0l4,4l0,0v-6v-6l0,0l4,4l4-4l4,4l4-4l0,0
			h-4v4v4h-4v-4v-4l0,0l4-4l0,0l4,4l4,4l0,0h6h6h6h6l0,0v4l0,0v-6v-6l0,0h4v4v4h4v-4v-4h4v4v4h4v-4v-4h4v4v4h4v-4v-4l0,0l-2-2l0,0
			v-6l0,0l0,0l0,0l0,0v6v6l0,0v2l0,0l4-4l4-4l4-4l0,0l0,0l0,0l2,2l2-2l2,2l2-2l0,0h2v2h2v-2l0,0h2v2h2v-2l0,0h2v2v2h2v-2v-2h2v2v2h2
			v-2v-2h2v2v2h2v-2v-2h2v2v2h2v-2v-2l0,0h4v4v4h4v-4v-4h4v4v4h4v-4v-4l0,0h4h4h4l0,0h6v6h6v-6h6v6h6v-6l0,0l0,0l0,0l0,0h6v6v6h6v-6
			v-6h6v6v6h6v-6v-6l0,0h8v8h8v-8h8v8h8v-8l0,0l0,0l0,0v2v2l0,0l2,2l0,0v2v2l0,0h8v8v8h8v-8v-8h8v8v8h8v-8v-8h8v8v8h8v-8v-8l0,0l6,6
			l6-6l6,6l6-6l0,0l4,4l0,0l6-6l6-6l0,0h6v6h6v-6h6v6h6v-6l0,0v-4l0,0l0,0l0,0l0,0l0,0l0,0l6,6l6-6l6,6l6-6l6,6l6-6l6,6l6-6l0,0h4v4
			v4h4v-4v-4h4v4v4h4v-4v-4h4v4v4h4v-4v-4l0,0l4,4l4,4l0,0h6v6h6v-6l0,0h-8v8h-8v-8h-8v8h-8v-8l0,0l4,4l4-4l0,0l6,6l6-6l0,0l8-8h8
			l0,0h2h2l0,0v2v2v2v2l0,0v2l0,0l8,8l0,0l4,4l0,0l0,0v6l0,0l0,0v4v4l0,0l2-2"/>
		<path class="st1" d="M50,259v-4v-4v-4l0,0v6l0,0v4v4v4l0,0l6,6l6,6l6,6l0,0l0,0l0,0l0,0l0,0l0,0h-6h-6h-6l0,0l6-6l0,0l6,6h6h6l0,0
			l8-8l8-8l8-8l8-8l0,0l6,6l6-6l6,6l6-6l0,0l6,6l6,6l0,0v-2l0,0l-6,6l-6-6l-6,6l-6-6l0,0v-2l0,0v-6v-6v-6v-6l0,0h2h2h2h2l0,0h6h6
			l0,0h4h4h4l0,0h-6h-6h-6l0,0h6v6h6v-6l0,0l6,6l6-6l6,6l6-6l0,0h6v6h6v-6h6v6h6v-6h6v6h6v-6l0,0h4h4l0,0h4l0,0v8l0,0l4,4l4-4l4,4
			l4-4l4,4l4-4l4,4l4-4l0,0l6-6h6h6l0,0l0,0l0,0l0,0h2l0,0h4l0,0l-6,6l0,0l4-4l4-4h4l0,0h6v6h6v-6l0,0h6h6h6h6l0,0h8h8h8h8l0,0h2
			l0,0h8h8l0,0h2h2h2h2l0,0v4l0,0l6,6l6-6l6,6l6-6l0,0h6v6h6v-6h6v6h6v-6l0,0v-4l0,0l0,0l0,0l0,0h6l0,0h4h4l0,0l4,4l4-4l4,4l4-4l4,4
			l4-4l4,4l4-4l0,0l-6,6l-6,6l0,0l6-6l6-6l0,0v6v6l0,0l6,6l0,0l8,8l8-8l8,8l8-8l0,0h8v8h8v-8l0,0v2v2l0,0l-8-8l0,0v2v2l0,0l8,8l8-8
			l8,8l8-8l8,8l8-8l0,0v-6l0,0v6l0,0h4v4h4v-4l0,0h4v4v4h4v-4v-4h4v4v4h4v-4v-4l0,0l4,4l0,0l6,6l6-6l0,0l4,4l0,0l6,6l6,6l0,0h8h8h8
			l0,0l4,4l4-4l0,0v-6l0,0v-4l0,0v6v6l0,0l4,4l4,4h4l0,0h4l0,0h4l4-4l4,4l4-4l4,4l4-4l4,4l4-4l0,0v-2v-2l0,0l8-8l0,0l4-4l4-4l0,0
			l4-4l0,0v-4v-4v-4v-4l0,0l4,4l4-4l0,0l8,8l8,8l0,0l8,8l0,0l0,0l0,0l0,0l0,0v4v-4l0,0v4v-4v4v-4v4v-4l0,0l0,0l-2,2l-2,2l0,0v-4l0,0
			v8v-8v8v-8l0,0l4,4l0,0l0,0l2-8"/>
		<path class="st1" d="M50,351v2v2l0,0v6v6v6l0,0l0,0l2,2l2-2l2,2l2-2l0,0h6l0,0h-6l0,0h-6v-6h6v6h-6v-6h6v6h-6v-6h6v6h-6v-6l0,0
			l4-4l0,0h4l0,0v-6l0,0h4v4h4v-4h4v4h4v-4h4v4h4v-4l0,0h6v6h6v-6h6v6h6v-6h6v6h6v-6h6v6h6v-6l0,0l6-6l6-6l6-6l0,0v6v6l0,0h6h6l0,0
			v-4l0,0h8v8h8v-8h8v8h8v-8l0,0l2,2l2,2l0,0v-4v-4v-4l0,0l6-6l0,0l2,2l2-2l2,2l2-2l2,2l2-2l0,0v4v4v4v4l0,0v-2v-2l0,0l4-4l4-4l4-4
			l0,0v2v2l0,0l6,6l0,0l4-4l0,0l-4-4l-4-4l-4-4h-4l0,0l6,6l6-6l0,0h-8v8h-8v-8h-8v8h-8v-8h-8v8h-8v-8l0,0l0,0l0,0l0,0l0,0l8,8l0,0v2
			v2l0,0h6v6h6v-6h6v6h6v-6h6v6h6v-6l0,0v2l0,0v-4v-4v-4l0,0l0,0v4v4l0,0v6l0,0l-4-4l-4-4l0,0h4v4h4v-4l0,0l6,6l6-6l6,6l6-6l0,0v-4
			v-4l0,0l4,4l4-4l4,4l4-4l4,4l4-4l0,0v4v4l0,0v-8l0,0l0,0l0,0l0,0h2v2h2v-2h2v2h2v-2l0,0l0,0l0,0l0,0l0,0l0,0h6v6v6h6v-6v-6l0,0
			l6,6l0,0l4,4l4-4l4,4l4-4l0,0v4v4v4l0,0l2-2l2-2l2-2l0,0h8v8v8h8v-8v-8h8v8v8h8v-8v-8h8v8v8h8v-8v-8l0,0v6v6v6l0,0h-4v4h-4v-4h-4
			v4h-4v-4h-4v4h-4v-4h-4v4h-4v-4l0,0l4,4l4-4l0,0l-4,4l-4-4l-4,4l-4-4l-4,4l-4-4l-4,4l-4-4l0,0l6,6l0,0l4,4l4,4l0,0l4-4l0,0l4,4
			l4-4l0,0v2v2l0,0v-2v-2l0,0l2-2l2-2l0,0v2v2l0,0l2,2l2,2l0,0l-4-4l-4-4l0,0l4-4l4-4l0,0l2,2l0,0l2,2l2-2l2,2l2-2l0,0h4v4h4v-4h4v4
			h4v-4l0,0h4v4h4v-4h4v4h4v-4l0,0h4v4h4v-4h4v4h4v-4l0,0l-4,4l0,0l-6,6l-6-6l0,0h2l0,0l6-6l6-6l0,0l2,2l2-2l2,2l2-2l2,2l2-2l2,2
			l2-2l0,0v-4v-4v-4v-4l0,0l6-6h6l0,0l8,8l8-8l0,0h-6v6h-6v-6h-6v6h-6v-6l0,0l0,0l0,0l0,0l0,0l0,0l0,0l0,0l0,0l0,0l4,4l4,4l4,4l4,4
			l0,0h-6v6v6h-6v-6v-6h-6v6v6h-6v-6v-6h-6v6v6h-6v-6v-6l0,0h8l0,0h-6v6v6h-6v-6v-6h-6v6v6h-6v-6v-6l0,0l-4,4l-4-4l-4,4l-4-4l0,0h-6
			l0,0l6,6l6-6l0,0h6v6h6v-6l0,0v6l0,0l6,6l6-6l0,0l4-4l0,0v-6l0,0v6v6l0,0l2,2l2-2l0,0l2,2l2-2l2,2l2-2l2,2l2-2l2,2l2-2l0,0l6,6
			l6-6l0,0l-4-4l-4-4l-4-4l-4-4l0,0v-6l0,0l0,0h6v6v6h6v-6v-6l0,0h4v4h4v-4l0,0l6,6l6-6l0,0h8h8h8h8l0,0h4h4l0,0h4h4l0,0l-6,6l-6-6
			l0,0h8v8h8v-8h8v8h8v-8h8v8h8v-8l0,0h4h4l0,0v2l0,0h8h8h8l0,0h8h8h8l0,0v-4l0,0l0,0l0,0v6v6l0,0h4v4h4v-4l0,0v-6l0,0h6v6v6h6v-6
			v-6l0,0l4-4l0,0h4l0,0h-4v4h-4v-4l0,0v2v2l0,0l-4,4l-4,4l0,0v4l0,0l4,4l4,4l0,0h4v4h4v-4h4v4h4v-4l0,0l4,4l0,0h4l0,0l2,2l2,2l0,0
			l-6-6l-6-6l-6-6l-6-6l0,0h6l0,0h4h4h4l0,0l4,4l4,4l0,0v-4l0,0h4l0,0l6,6l6,6l0,0l6,6l6-6l0,0l-6,6l-6-6l-6,6l-6-6l0,0l4-4l4-4l0,0
			v6l0,0l8-8l8-8l0,0l6-6h6h6l0,0h6h6l0,0h6l0,0l6,6l6-6l6,6l6-6l6,6l6-6l0,0h-6v6h-6v-6h-6v6h-6v-6l0,0v6v6v6v6l0,0l2-2l2-2l2-2
			l0,0l4,4l4-4l0,0h-6v6v6h-6v-6v-6l0,0l2-2l0,0l8,8l8-8l0,0l6,6"/>
		<path class="st1" d="M50,443l6-6l0,0l2,2l2,2l0,0h8v8h8v-8h8v8h8v-8l0,0h-4v4v4h-4v-4v-4h-4v4v4h-4v-4v-4h-4v4v4h-4v-4v-4l0,0l2,2
			l0,0v4v4v4v4l0,0h-2h-2h-2l0,0l2,2l2,2l0,0h2v2v2h2v-2v-2h2v2v2h2v-2v-2l0,0l-2,2l-2,2l0,0h6h6h6h6l0,0h4l0,0h4v-4h4v4h4v-4l0,0
			v-4v-4v-4l0,0l2-2l2-2l0,0l6,6l6,6l0,0v4v4l0,0l0,0l0,0l0,0l4-4l4-4l0,0l4,4l4,4h4l0,0h8l0,0l0,0l0,0h-6h-6h-6l0,0h4l4-4l4,4l4-4
			l0,0h4v4l0,0h4v-4v-4h4v4v4h4v-4v-4l0,0l4-4l0,0l-2,2l-2,2l0,0h4h4h4l0,0l2-2l2-2l2-2l0,0l4-4l4-4l0,0v2v2l0,0v8v8l0,0h4l4-4l4,4
			l4-4l4,4l4-4l0,0h-2v2h-2v-2h-2v2h-2v-2h-2v2h-2v-2l0,0l-4,4h-4l0,0h4h4h4h4l0,0h-8l-8-8l0,0v2v2l0,0h8h8l0,0v6l0,0v-4l0,0l4-4
			l0,0l6,6h6l0,0l2,2l2-2l2,2l2-2l0,0h6l0,0v-4l0,0h4l0,0v2v2v2l0,0l0,0h-8l-8-8l0,0v-4l0,0l4,4l0,0v-2v-2l0,0h4v4h4v-4l0,0v-4v-4
			v-4v-4l0,0h8h8l0,0l4,4l4-4l4,4l4-4l4,4l4-4l0,0h-2v2v2h-2v-2v-2h-2v2v2h-2v-2v-2h-2v2v2h-2v-2v-2h-2v2v2h-2v-2v-2l0,0h-4v4v4h-4
			v-4v-4h-4v4v4h-4v-4v-4h-4v4v4h-4v-4v-4l0,0l4,4l4,4l0,0h6v6h6v-6h6v6h6v-6h6v6h6v-6l0,0v2v2v2l0,0l-6,6l-6-6l0,0h6v6h6v-6l0,0h-4
			h-4h-4l0,0h-2v2v2h-2v-2v-2l0,0h8v8h8v-8l0,0l2,2l2-2l0,0h-4h-4h-4l0,0h-2v2v2h-2v-2v-2l0,0v-4l0,0l6,6l6-6l6,6l6-6l0,0v-6l0,0v-8
			l0,0l8,8l8-8l0,0h4h4l0,0v-6l0,0v6l0,0h6h6h6l0,0l4,4l0,0h-6l0,0l-2-2l-2-2l0,0l6,6l6,6l0,0v2v2l0,0v2v2v2l0,0v-4v-4l0,0l4,4l4,4
			l0,0l2-2l0,0l6,6l0,0h8l0,0h8v-8l0,0v-4v-4v-4l0,0l6-6l6-6l6-6l0,0h2v2h2v-2h2v2h2v-2l0,0l4,4l4,4l4,4l0,0h4v4v4h4v-4v-4l0,0l4,4
			l4-4l0,0l4-4l4-4l0,0h6v6h6v-6l0,0v-2l0,0h-4v4h-4v-4h-4v4h-4v-4h-4v4h-4v-4l0,0v8v8v8l0,0v-6v-6l0,0h6l0,0h4l0,0h6v6v6h6v-6v-6h6
			v6v6h6v-6v-6l0,0l6-6l0,0l6-6l6-6l0,0l8,8l8,8l0,0h2v2h2v-2l0,0l4-4l0,0h6v6h6v-6h6v6h6v-6h6v6h6v-6l0,0l4,4l0,0l8-8l0,0l-6,6
			l-6,6l0,0l-6,6l-6,6l0,0l2,2l2-2l2,2l2-2l0,0v6l0,0l2-2l0,0l6,6l6-6l6,6l6-6l0,0l-8,8h-8l0,0v-8l0,0l2,2l2,2l2,2l0,0h6v6h6v-6l0,0
			v-6v-6v-6v-6l0,0v-6l0,0l6-6l6-6l0,0l-4,4l-4-4l-4,4l-4-4l-4,4l-4-4l-4,4l-4-4l0,0v4v4v4l0,0h-4v4h-4v-4h-4v4h-4v-4l0,0h4l0,0l4,4
			l0,0l-2,2l-2-2l0,0v-4l0,0l6,6l0,0h4v4h4v-4h4v4h4v-4l0,0h2v2h2v-2h2v2h2v-2l0,0l6,6l6,6l6,6l6,6l0,0l4,4l0,0h-6h-6l0,0l6-6l0,0
			l6,6l6-6l6,6l6-6l0,0v2l0,0l8-8l8-8l0,0l4,4l4-4l4,4l4-4l0,0h6v6v6h6v-6v-6l0,0h4v4v4h4v-4v-4h4v4v4h4v-4v-4l0,0h6h6l0,0v-6v-6v-6
			l0,0v-8l0,0h4h4l0,0h6l0,0l-4,4l-4,4l0,0v2l0,0h4v4v4h4v-4v-4h4v4v4h4v-4v-4h4v4v4h4v-4v-4h4v4v4h4v-4v-4l0,0v6v6v6l0,0v4l0,0l4,4
			l4-4l4,4l4-4l4,4l4-4l0,0h2v2h2v-2v2v-2"/>
		<path class="st1" d="M50,535h4v4h4v-4h4v4h4v-4l0,0l8,8l8-8l0,0v4v4l0,0v-4v-4v-4l0,0l4-4l4-4l4-4l0,0l8,8l8-8l8,8l8-8l0,0v-4v-4
			l0,0l-4,4l-4-4l-4,4l-4-4l-4,4l-4-4l0,0l-6,6l0,0v2v2v2v2l0,0v6l0,0h-4v4v4h-4v-4v-4l0,0l8,8l8-8l8,8l8-8l0,0l-6-6l-6-6l-6-6l0,0
			h-4v4v4h-4v-4v-4h-4v4v4h-4v-4v-4l0,0l0,0l0,0l0,0v2v2l0,0l0,0l0,0h6h6l0,0h-2l0,0l4-4h4l0,0h8h8l0,0l0,0l0,0h4v4v4h4v-4v-4l0,0h2
			h2h2l0,0h6h6l0,0v2v2l0,0l4,4l0,0h4l0,0l6,6l6,6l6,6l0,0l2-2l2-2l2-2l0,0v-8l0,0h-2l0,0l8,8l8,8l0,0v-6l0,0h-6v6h-6v-6h-6v6h-6v-6
			h-6v6h-6v-6l0,0v2v2l0,0v6v6l0,0h2v2h2v-2l0,0h8l0,0l6-6l0,0h2h2h2l0,0h-6l0,0l-6,6l-6-6l0,0h6v6h6v-6h6v6h6v-6l0,0l6-6l6-6l6-6
			l0,0l-2-2l0,0h6h6h6h6l0,0h4v4v4h4v-4v-4h4v4v4h4v-4v-4h4v4v4h4v-4v-4h4v4v4h4v-4v-4l0,0l4,4l4-4l4,4l4-4l0,0l4,4l4,4l4,4l0,0h8h8
			l0,0v2l0,0l8-8l8-8l0,0l-6,6l-6,6l-6,6l0,0l-4-4l0,0h-2v2h-2v-2h-2v2h-2v-2l0,0l8-8l8-8l8-8l0,0h8h8l0,0h2v2h2v-2h2v2h2v-2h2v2h2
			v-2l0,0l2-2h2h2l0,0l2,2l0,0h-8v8v8h-8v-8v-8h-8v8v8h-8v-8v-8h-8v8v8h-8v-8v-8l0,0l0,0l0,0h-4v4h-4v-4h-4v4h-4v-4h-4v4h-4v-4l0,0
			h-4v4v4h-4v-4v-4h-4v4v4h-4v-4v-4l0,0h4h4h4l0,0l2,2l2-2l2,2l2-2l0,0v4v4v4v4l0,0h2l0,0l6,6l6,6l0,0v4v4v4l0,0v-4l0,0v-2l0,0v6
			l0,0l-4,4l-4-4l0,0l6,6l6-6l0,0l6-6l6-6l0,0h6l0,0l2-2l2-2l2-2l0,0l4-4l4-4l4-4l0,0h-8v8h-8v-8l0,0v-2v-2v-2l0,0v-4l0,0l0,0h6v6h6
			v-6l0,0l6,6l6,6l0,0v4v4v4l0,0h8v8h8v-8h8v8h8v-8l0,0v-4v-4l0,0v4v4v4l0,0l-6,6l-6-6l-6,6l-6-6l0,0v6l0,0l-6,6l-6,6l0,0h8l0,0h8
			v-8h8v8h8v-8l0,0l4,4l4-4l0,0l-6,6l-6-6l0,0v6l0,0l0,0l0,0h6l6-6l6,6l6-6l6,6l6-6l6,6l6-6l0,0v-6v-6l0,0v8l0,0v-2l0,0v6l0,0h4v4h4
			v-4h4v4h4v-4h4v4h4v-4h4v4h4v-4l0,0l2-2l0,0h2v2h2v-2h2v2h2v-2h2v2h2v-2h2v2h2v-2l0,0h2v2h2v-2l0,0v2l0,0l8-8l0,0l-8,8l0,0l2-2
			l0,0v-2l0,0h4v4h4v-4h4v4h4v-4h4v4h4v-4l0,0v6v6l0,0l0,0l4-4l4-4l0,0v-4v-4v-4v-4l0,0l8,8l8-8l0,0v-6v-6l0,0l2,2l2,2l2,2l2,2l0,0
			v-2l0,0l-6,6l0,0l6,6l6-6l0,0l-8,8l-8-8l-8,8l-8-8l0,0l4,4l0,0l-2,2l-2-2l-2,2l-2-2l-2,2l-2-2l0,0v-6l0,0l-8,8l-8-8l0,0l6-6l6-6
			l6-6h6l0,0h6v6v6h6v-6v-6h6v6v6h6v-6v-6l0,0l6,6l0,0h8v8h8v-8h8v8h8v-8h8v8h8v-8l0,0h4v4v4h4v-4v-4h4v4v4h4v-4v-4h4v4v4h4v-4v-4h4
			v4v4h4v-4v-4l0,0l6,6l6,6l0,0l8,8l8,8l8,8h8l0,0l2,2l2-2l2,2l2-2l2,2l2-2l2,2l2-2l0,0h6l0,0h6v-6h6v6h6v-6l0,0l-2-2l-2-2l-2-2l0,0
			v-4v-4l0,0l8-8l8-8l0,0v4v4l0,0h4v4v4h4v-4v-4h4v4v4h4v-4v-4h4v4v4h4v-4v-4l0,0l-4,4l-4,4l-4,4l0,0h-8v8h-8v-8h-8v8h-8v-8l0,0h2v2
			h2v-2h2v2h2v-2l0,0h6v6v6h6v-6v-6h6v6v6h6v-6v-6l0,0h6l0,0l6,6l0,0h4v4v4h4v-4v-4l0,0h-4v4h-4v-4l0,0l6,6l6,6l0,0v-2l0,0h4l0,0h-6
			l0,0l0,0h-6v-6v-6l0,0l4-4l4-4l0,0l8,8l0,0l-8,8h-8h-8l0,0h8l8-8l8,8l0,0v4l0,0l0,0v2l0,0l0,0h-2l0,0h-2v-2h-2v2h-2v-2l0,0h6l0,0
			h4l0,0v-4v4v-4"/>
		<path class="st1" d="M50,627l4-4l0,0l8-8l0,0h6v6h6v-6h6v6h6v-6l0,0l-2,2l-2-2l-2,2l-2-2l-2,2l-2-2l0,0l-2,2l-2,2l0,0l4-4l4-4l4-4
			l0,0v-4l0,0l0,0l0,0l0,0h2v2v2h2v-2v-2h2v2v2h2v-2v-2l0,0h4v4v4h4v-4v-4h4v4v4h4v-4v-4h4v4v4h4v-4v-4l0,0l-8,8l-8-8l-8,8l-8-8
			l-8,8l-8-8l0,0v6v6l0,0l-6,6l-6-6l0,0h6v6h-6v-6l0,0l8,8l8-8l0,0l4,4l0,0l-8-8l0,0v4v4l0,0h-4v4h-4v-4h-4v4h-4v-4h4v4h-4v-4l0,0v6
			l0,0h6v6h-6v-6l0,0v-2l0,0h8v8v8h-8v-8v-8l0,0v-2l0,0v-2l0,0h8v8v8h8v-8v-8h8v8v8h8v-8v-8l0,0l8,8l8,8l8,8l0,0l-8-8l-8-8l0,0h8v8
			h8v-8l0,0l4-4l4-4l4-4l0,0l-2-2l0,0h-6h-6l0,0l-4-4l0,0v2v2v2l0,0l-2-2l-2-2l0,0h8h8l0,0l4,4l4-4l0,0l-4,4l0,0l-6,6l-6-6l0,0l-4-4
			l-4-4l0,0l0,0l0,0l0,0h-8h-8h-8h-8l0,0l-8,8l8-8l-8,8l8-8l0,0h6v6h6v-6h6v6h6v-6l0,0v-4l0,0h-6v6h-6v-6l0,0v4l0,0h-2v2h-2v-2h-2v2
			h-2v-2h-2v2h-2v-2l0,0l2,2l2-2l0,0l-4-4h-4h-4h-4l0,0l8,8l8,8l8,8l0,0l-8-8l-8-8l-8-8h8l0,0l6,6l6-6l6,6l6-6l6,6l6-6l6,6l6-6l0,0
			l8,8l8-8l8,8l8-8l0,0h4h4l0,0v4l0,0l6,6l6-6l6,6l6-6l0,0h6h6l0,0l2,2l2-2l0,0l-6,6l0,0l-2,2l0,0h2v2h2v-2l0,0l6,6l6,6l0,0l4,4l0,0
			l4-4l0,0l4,4l4,4l0,0v6l0,0l-2,2l-2-2l-2,2l-2-2l0,0v-8v-8l0,0h4v4h4v-4h4v4h4v-4h4v4h4v-4l0,0v-6v-6l0,0l-2-2l-2-2l-2-2l0,0v4v4
			l0,0h2h2l0,0l-4,4l-4,4l0,0l-8,8l-8-8l0,0v6l0,0l-4,4l0,0h4v4h4v-4h4v4h4v-4l0,0h-6l0,0h-4h-4l0,0h8l0,0l2,2l2-2l2,2l2-2l0,0h8h8
			l0,0l-8,8l-8-8l0,0l-4,4l0,0v8l0,0h6v6h6v-6l0,0l-4,4l-4-4l-4,4l-4-4l-4,4l-4-4l0,0v-6v-6v-6v-6l0,0v-8v-8l0,0v4v4v4v4l0,0l2,2
			l0,0l4-4l4-4l0,0v-6l0,0l-6,6l-6-6l0,0l6,6l6-6l6,6l6-6l0,0l-4,4l-4-4l0,0l-6,6l-6,6l0,0l-2,2l-2-2l0,0l-8,8l-8,8l0,0h6l0,0v8l0,0
			l2-2l2-2l2-2l2-2l0,0l4,4l0,0l4-4l4-4l0,0l8,8l8-8l8,8l8-8l0,0v6l0,0l6-6l0,0l6,6l6,6l6,6l0,0h4l0,0h4v-4h4v4h4v-4h4v4h4v-4l0,0v4
			l0,0l0,0l0,0h8h8h8l0,0h-8h-8h-8h-8l0,0h-2l0,0h6l6-6l0,0v-6l0,0l2,2l2-2l2,2l2-2l0,0l4,4l4-4l4,4l4-4l0,0l-8,8l0,0h-8l0,0h-8v-8
			h-8v8h-8v-8l0,0h6v6h6v-6l0,0h6v6h6v-6l0,0h-8v8h-8v-8l0,0v4v4l0,0v2v2l0,0h-4l-4-4l-4,4l-4-4l0,0v-4v-4v-4l0,0v4l0,0v-8v-8l0,0
			l8-8l8-8l0,0v4v4v4l0,0h4v4v4h4v-4v-4h4v4v4h4v-4v-4l0,0v4v4l0,0v-2l0,0l-6,6l-6,6l-6,6l0,0v-2v-2l0,0h-2v2h-2v-2l0,0l-4,4l-4-4
			l-4,4l-4-4l-4,4l-4-4l0,0l-6,6l-6,6l0,0h-4l-4-4l0,0l-4-4l-4-4l-4-4l0,0l-2-2l-2-2l0,0l4,4l4-4l0,0h-4l0,0l-6,6l0,0v-6l0,0v-4l0,0
			l4,4l4-4l4,4l4-4l4,4l4-4l0,0v-4l0,0v-4v-4l0,0h6v6h6v-6h6v6h6v-6l0,0v8l0,0l-6,6l-6,6l0,0v-2v-2v-2v-2l0,0v6v6l0,0h4v4h4v-4l0,0
			h-6h-6l0,0l6,6l6,6l0,0h-2l0,0l0,0h-2v-2v-2h-2v2v2h-2v-2v-2l0,0h6l6-6l6,6l6-6l6,6l6-6l0,0l2-2l2-2l0,0v-6l0,0l-4-4l0,0h-4v4h-4
			v-4h-4v4h-4v-4l0,0l-2,2l-2-2l0,0l4,4l4-4l4,4l4-4l4,4l4-4l0,0h4v4v4h4v-4v-4h4v4v4h4v-4v-4l0,0l6,6l6-6l0,0l6,6l6-6l0,0v6l0,0h4
			v4h4v-4h4v4h4v-4h4v4h4v-4l0,0v2l0,0l2,2l0,0l2,2l0,0h4v4v4h4v-4v-4h4v4v4h4v-4v-4l0,0l4,4l4-4l0,0h-2v2h-2v-2l0,0l6,6l6,6l0,0h4
			l4-4l0,0l-4,4l-4-4l-4,4l-4-4l-4,4l-4-4l-4,4l-4-4l0,0h8l0,0h8v-8h8v8h8v-8h8v8h8v-8l0,0h6l0,0l2,2l2,2l2,2l0,0v-8v-8v-8l0,0l2,2
			l0,0h-6v6h-6v-6h-6v6h-6v-6h-6v6h-6v-6l0,0l6,6l6-6l0,0l4-4l4-4l4-4l4-4l0,0l4,4l4-4l0,0l6,6l6,6l0,0v-2v-2l0,0v6v6l0,0l4-4l4-4
			l0,0l-4,4l-4,4l-4,4l0,0l6,6l0,0v-8v-8l0,0l-6,6l0,0l-4,4l0,0l8-8l0,0l4,4l4-4l0,0h-4v4h-4v-4l0,0l8,8l8-8l8,8l8-8l0,0v8v8l0,0
			l6,6l6-6l0,0h2v2h2v-2h2v2h2v-2l0,0l2,2l2-2l2,2l2-2l0,0l-4,4l0,0l4,4l4-4l4,4l4-4l0,0h6h6h6h6l0,0v-2l0,0l-6,6h-6l0,0h-6l0,0h-8
			h-8h-8l0,0l8-8l0,0l2,2l2-2l0,0v2l0,0v-8v-8v-8v-8l0,0l4,4l0,0l6,6l6,6l6,6l6,6l0,0v6l0,0h8h8l0,0l6-6l0,0v-6v-6l0,0h-4v4h-4v-4
			l0,0l4,4l4,4l0,0v6v6v6l0,0h2l0,0v-4l0,0l-4,4l-4-4l0,0l0,0l0,0l-4,4l0,0h-6l0,0l0,0h-6v-6v-6l0,0l4,4l4,4l4,4l0,0h8l8-8l8,8l8-8
			l0,0h-2v2h-2v-2h-2v2h-2v-2l0,0v-6v-6l0,0h6h6h6l0,0l4,4l4-4l4,4l4-4l0,0h-4v4h-4v-4l0,0l6-6l6-6l0,0l6,6l6-6l6,6l6-6l0,0l2,2l2,2
			l2,2l2,2l0,0h-8v8h-8v-8l0,0h4l0,0l2,2l0,0h8v8v8h8v-8v-8h8v8v8h8v-8v-8l0,0h6h6l0,0l-6-6l-6-6l0,0l-6-6l-6-6h-6l0,0h-8h-8h-8l0,0
			h-6h-6h-6l0,0l4,4l4-4l0,0l4,4l0,0h-8h-8l0,0v-2l0,0h-2v2h-2v-2h-2v2h-2v-2h-2v2h-2v-2l0,0l-2,2l-2,2l-2,2l-2,2l0,0l2-2l2-2l0,0v8
			l0,0l8,8l8,8l8,8l0,0v-4l0,0l4,4l0,0l-6,6l-6-6l0,0v-6l0,0l8,8h8l0,0v4l0,0l0,0h-6h-6l0,0l2,2h2h2h2l0,0h6l0,0l0,0h6v-6v-6l0,0
			l-6-6l0,0l-4,4l0,0h2v2h2v-2l0,0v-4l0,0l-4,4l-4-4l0,0l4,4l4-4l4,4l4-4l4,4l4-4l0,0h8v8h8v-8l0,0h2v2v2h2v-2v-2h2v2v2h2v-2v-2l0,0
			v4l0,0l-8,8l-8-8l-8,8l-8-8l-8,8l-8-8l0,0l-6-6l0,0l-8,8l-8-8l0,0h6v6h6v-6h6v6h6v-6h6v6h6v-6l0,0l4,4l4-4l0,0v-4v-4l0,0l4,4l4-4
			l4,4l4-4l0,0l6,6l6-6l6,6l6-6l6,6l6-6l0,0h6v6h6v-6l0,0v6l0,0v2v2l0,0h6v6v6h6v-6v-6h6v6v6h6v-6v-6h6v6v6h6v-6v-6h6v6v6h6v-6v-6
			l0,0l2,2l2,2l2,2l0,0h-6v6h-6v-6h-6v6h-6v-6l0,0l-4,4l-4-4l-4,4l-4-4l-4,4l-4-4l-4,4l-4-4l0,0l6-6l0,0l4,4l0,0l-2-2l-2-2l0,0l8,8
			l0,0h4v4v4h4v-4v-4h4v4v4h4v-4v-4l0,0h8v8h8v-8h8v8v-8l0,0l-6,6h-6l0,0h6h6l0,0l4,4"/>
		<path class="st1" d="M50,719h2v2v2h2v-2v-2l0,0l8-8l0,0v4v4v4l0,0l6,6l6-6l0,0l-2,2l-2-2l-2,2l-2-2l0,0v-4v-4l0,0l2,2l2-2l0,0l6,6
			l6-6l6,6l6-6l0,0l-2,2l0,0v-2l0,0h4v4v4h4v-4v-4h4v4v4h4v-4v-4l0,0l-4-4l0,0h2v2v2h2v-2v-2l0,0v-6l0,0v4v4v4v4l0,0h-4v4h-4v-4h-4
			v4h-4v-4h-4v4h-4v-4l0,0h4h4h4h4l0,0l2,2l2,2l0,0h4v4v4h4v-4v-4h4v4v4h4v-4v-4l0,0v6v6v6l0,0h-6l-6-6l-6,6l-6-6l0,0h8l8-8l0,0
			l-4,4l-4-4l-4,4l-4-4l0,0h-6v6v6h-6v-6v-6h-6v6v6h-6v-6v-6h-6v6v6h-6v-6v-6l0,0l2,2l0,0l8-8l8-8l8-8l8-8l0,0l2-2l2-2l0,0l0,0l0,0
			l0,0l0,0v6v6l0,0v-6l0,0l6,6l6-6l6,6l6-6l0,0v6l0,0l4,4l4-4l4,4l4-4l4,4l4-4l0,0l2,2l2-2l2,2l2-2l0,0l6,6l6-6l6,6l6-6l6,6l6-6l6,6
			l6-6l0,0v2v2v2v2l0,0l4-4l0,0v-6l0,0l-6,6l-6,6l0,0h-6v6h-6v-6l0,0v8l0,0h4h4h4h4l0,0l8-8l0,0v2v2l0,0h-4v4h-4v-4h-4v4h-4v-4h-4v4
			h-4v-4h-4v4h-4v-4l0,0l4-4l4-4l4-4l4-4l0,0v-2l0,0l-8,8l-8-8l-8,8l-8-8l-8,8l-8-8l0,0h-8v8h-8v-8h-8v8h-8v-8h-8v8h-8v-8h-8v8h-8
			v-8l0,0v8v8v8l0,0l-8,8l0,0v-8v-8v-8l0,0h-4v4h-4v-4l0,0h4v4h4v-4h4v4h4v-4l0,0h-8v8h-8v-8l0,0v6v6v6l0,0v2v2v2l0,0l2,2l2-2l0,0
			h-6v6h-6v-6h6v6h-6v-6l0,0h4v4h4v-4l0,0v8l0,0l0,0l0,0l0,0l-6-6l0,0v-4v-4v-4v-4l0,0v6l0,0v-4l0,0h4v4h4v-4h4v4h4v-4l0,0l4,4l4-4
			l0,0v-2v-2l0,0h-2h-2h-2l0,0l-6-6l-6-6l0,0h-6v6h-6v-6h6v6h-6v-6h6v6h-6v-6l0,0l6,6l6,6l0,0h-2v2h-2v-2h-2v2h-2v-2l0,0h4v4h4v-4h4
			v4h4v-4h4v4h4v-4l0,0l-8,8l0,0v8l0,0h8v8h8v-8h8v8h8v-8l0,0l-2,2l-2-2l-2,2l-2-2l-2,2l-2-2l0,0h6v6h6v-6h6v6h6v-6h6v6h6v-6l0,0
			l-2-2l0,0l6-6l6-6l0,0v4l0,0l-6-6l-6-6l0,0v-4v-4l0,0l-6,6l-6,6l0,0l4,4l4-4l4,4l4-4l0,0l-6-6l-6-6l0,0h-2l0,0v2l0,0l-8-8h-8h-8
			l0,0l8,8l8-8l8,8l8-8l8,8l8-8l0,0v6l0,0l4-4l4-4h4h4l0,0h-6v6v6h-6v-6v-6l0,0l4,4l0,0h4v4h4v-4l0,0h-8l0,0l6,6l6-6l6,6l6-6l6,6
			l6-6l6,6l6-6l0,0l4,4l4-4l0,0l4,4l4-4l4,4l4-4l0,0v6v6v6v6l0,0v8l0,0l6,6h6h6h6l0,0v-4v-4v-4l0,0l-6-6l-6-6l0,0l4-4l0,0v8l0,0
			l-4,4l0,0v6v6v6l0,0l4-4l4-4l0,0v6l0,0h8l0,0h8v-8h8v8h8v-8h8v8h8v-8l0,0h2l0,0h-6v6h-6v-6l0,0l4,4l4-4l0,0h-4v4h-4v-4h-4v4h-4v-4
			h-4v4h-4v-4l0,0h8l0,0l-4-4l0,0v-2l0,0l-8-8l0,0l8,8l8-8l8,8l8-8l8,8l8-8l8,8l8-8l0,0l8,8l0,0l-6,6l0,0l4-4l0,0l-4,4l0,0h8h8l0,0
			l-4-4l0,0l8,8l8-8l8,8l8-8l0,0l-4,4l-4,4l-4,4l0,0v4l0,0l0,0l0,0l0,0h4l0,0h-6l0,0h-6v-6l0,0v4l0,0l-6-6l0,0v2v2v2v2l0,0l0,0l0,0
			l-4-4l0,0l4,4l4-4l0,0h6l0,0h6v-6l0,0l8,8l8-8l0,0v6l0,0h8l0,0l0,0h8v-8v-8h8v8v8h8v-8v-8l0,0v-2l0,0v8v8l0,0l0,0v4l0,0h-6l0,0h-6
			v-6l0,0v2v2l0,0l-2,2l-2-2l-2,2l-2-2l0,0h-8h-8l0,0v-6l0,0l6-6l0,0l4-4l4-4l0,0h6h6l0,0l2,2l2-2l0,0h8v8h8v-8h8v8h8v-8l0,0h8v8v8
			h8v-8v-8h8v8v8h8v-8v-8h8v8v8h8v-8v-8l0,0h-2v2h-2v-2l0,0l-6,6l-6-6l-6,6l-6-6l-6,6l-6-6l0,0h6v6h6v-6l0,0v-8v-8l0,0h-2v2h-2v-2
			l0,0l4,4l4,4l0,0v-8l0,0l-2,2l0,0h-6v6v6h-6v-6v-6h-6v6v6h-6v-6v-6l0,0l-4,4l-4-4l0,0l6,6l6-6l6,6l6-6l6,6l6-6l6,6l6-6l0,0v-8l0,0
			l0,0l0,0l0,0h-6v6v6h-6v-6v-6h-6v6v6h-6v-6v-6l0,0l-8,8l-8-8l-8,8l-8-8l0,0h4l0,0h6h6h6l0,0l-6,6l-6-6l0,0v2l0,0v6l0,0h-8h-8h-8
			h-8l0,0v2v2l0,0l-6,6l-6-6l0,0l4,4l4-4l4,4l4-4l0,0v6v6l0,0v8v8l0,0v6l0,0l0,0l4-4l4-4l4-4l0,0l2,2l0,0v-6v-6v-6v-6l0,0l8-8h8h8h8
			l0,0l6-6h6l0,0h-2l0,0v2l0,0h8v8h8v-8h8v8h8v-8h8v8h8v-8h8v8h8v-8l0,0l6,6l6-6l6,6l6-6l6,6l6-6l0,0l-4,4l0,0h2v2h2v-2h2v2h2v-2
			l0,0l4,4l4,4l0,0h6v6h6v-6h6v6h6v-6l0,0v-4l0,0l4-4l0,0l0,0l0,0l0,0l-4,4l-4-4l0,0v-6l0,0l0,0l0,0h4v4h4v-4h4v4h4v-4l0,0l-4,4
			l-4-4l0,0l0,0l0,0l0,0l4,4l0,0h-6h-6l0,0h6v6h6v-6h6v6h6v-6l0,0h-6v6h-6v-6h-6v6h-6v-6l0,0h8v8v8h8v-8v-8l0,0v6l0,0l8,8l8-8l0,0
			l-2-2l-2-2l0,0l-4,4l-4-4l-4,4l-4-4l-4,4l-4-4l0,0h-8v8h-8v-8l0,0l-6-6l0,0l2,2l2,2l0,0v-2v-2l0,0l4,4l4-4l4,4l4-4l0,0l0,0l0,0v8
			v8l0,0l4,4l4-4l0,0l-6,6l-6,6l-6,6l-6,6l0,0l-6,6l-6-6l-6,6l-6-6l-6,6l-6-6l0,0l4-4l4-4l4-4l0,0v-6v-6v-6v-6l0,0h-2h-2l0,0l-4,4
			l-4-4l-4,4l-4-4l0,0h6l0,0h4v4v4h4v-4v-4h4v4v4h4v-4v-4l0,0v4v4l0,0l2,2l2-2l2,2l2-2l2,2l2-2l2,2l2-2l0,0v-8l0,0v-4l0,0l0,0h2l0,0
			l0,0l0,0l-8,8l0,0l-4-4l-4-4h-4h-4l0,0h-6v6h-6v-6h-6v6h-6v-6l0,0h-8l0,0l-6,6l0,0v-6l0,0h4v4h4v-4l0,0v8l0,0h4h4l0,0l4,4l4,4l0,0
			h8v8h8v-8h8v8h8v-8l0,0l2,2l2,2l0,0l4,4l4-4l4,4l4-4l4,4l4-4l4,4l4-4l0,0v-8v-8l0,0h8v8v8h8v-8v-8h8v8v8h8v-8v-8l0,0h8v8h8v-8h8v8
			h8v-8l0,0h4v4h4v-4h4v4h4v-4h4v4h4v-4l0,0h4v4h4v-4h4v4h4v-4h4v4h4v-4l0,0h6l0,0h4v4h4v-4l0,0l-8,8l-8-8l-8,8l-8-8l0,0h-2h-2l0,0
			h6h6h6l0,0l0,0l0,0v-4l0,0l0,0l0,0h-4v4h-4v-4l0,0l4,4l4,4l0,0v-4v-4l0,0l0,0l0,0l-6,6l-6-6l0,0v6l0,0l-8,8l-8-8l0,0h2v2h2v-2l0,0
			v2l0,0l-2-2l0,0l-6-6l0,0l0,0l0,0h-4l0,0l4,4l4,4l4,4l4,4l0,0l8,8l8-8l8,8l8-8l0,0l-4,4l-4-4l0,0v4v4l0,0h2v2h2v-2h2v2h2v-2l0,0h4
			v4h4v-4h4v4h4v-4l0,0h-6v6h-6v-6h-6v6h-6v-6h-6v6h-6v-6l0,0h4v4h4v-4h4v4h4v-4h4v4h4v-4l0,0l2,2l0,0v-6v-6l0,0v-8l0,0l0,0l0,0l0,0
			l2-2l2-2l2-2l0,0v6v6v6v6l0,0l2,2l2-2l2,2l2-2l2,2l2-2l0,0h6v6v6h6v-6v-6v6v6v-6v-6v6v6v-6v-6v6v6v-6v-6"/>
	</g>
</g>
</svg>
