<?xml version="1.0" encoding="utf-8"?>
<!-- Generator: Adobe Illustrator 26.1.0, SVG Export Plug-In . SVG Version: 6.00 Build 0)  -->
<svg version="1.1" id="Ebene_1" xmlns="http://www.w3.org/2000/svg" xmlns:xlink="http://www.w3.org/1999/xlink" x="0px" y="0px"
	 viewBox="0 0 660 900" style="enable-background:new 0 0 660 900;" xml:space="preserve">
<style type="text/css">
	.st0{fill:none;stroke:#FFFFFF;stroke-miterlimit:10;}
</style>
<g>
	<g>
		<rect y="0" width="660" height="900"/>
	</g>
	<g>
		<path class="st0" d="M72.2,67L72.2,67l-4.6,0L72.2,67z"/>
		<path class="st0" d="M108.7,67.6h-2.1v-1h4.1v2.2h-1L108.7,67.6z"/>
		<path class="st0" d="M149.6,70.1v-1.9h-3.3v-0.3h3.2v2.9H149v-3.1h-0.9L149.6,70.1z"/>
		<path class="st0" d="M189.1,67.6L189.1,67.6l-1.6,0v-1h2.2v0h-0.2v-0.2h-2.4v5.3h3.5v-0.2L189.1,67.6z"/>
		<path class="st0" d="M229.7,68.7v0.8h-3.3v-2.1h-0.1v4.1h5.5v-5h-1.4v0H229v-0.3h-1.2v0h2.9L229.7,68.7z"/>
		<path class="st0" d="M268.1,69.4v0.5h-0.6v-1.4h1.1v3.1H268v-5.1h-1.4v0.5h5.6v-0.5h-1.1v0h-3.7v0h-0.3v2.1L268.1,69.4z"/>
		<path class="st0" d="M307.4,69.3L307.4,69.3l0-0.9h0.4v-1.1h-1.1v-0.3h-0.3v-0.5h3v-0.1h-0.1v4.5h0v-2.2h-0.6v1.9h-0.5v-3.1h0.3v3
			L307.4,69.3z"/>
		<path class="st0" d="M348.5,69.7h-2.1v-0.2h2.9v-1h-0.1v-0.6h-0.3v-0.3h-2.5v-1.1h0v1.8h0v-0.6h2v4.1h1.2v-4.7h0.3v1.7h-2.3v-0.8
			h-0.2L348.5,69.7z"/>
		<path class="st0" d="M389.8,66.8v3.6h-0.7v-3.1h-0.6v-0.1h-1.8v3h6.3v-1.5h-6.3V71h-0.4v-2.9h5.1v-0.4h-3.3v-1.3h3V71h-0.2v-4.4
			h-3.6v-0.1h-0.5v-0.1h1.9L389.8,66.8z"/>
		<path class="st0" d="M426.4,68.2v1.5h5.7v-0.7h-5.4v-2.1h3.3v-0.2h-2.8v-0.2h0v6.9h5.6V70h-6v-2.7h-0.5v3.7h7.2v-2.9h-6.1v-1h3.9
			v-0.8h-4v-0.1h0v0h4.1v0L426.4,68.2z"/>
		<path class="st0" d="M467.8,70.3v-1.9h3.6v-2.1h-2.2v5.9h-2.8V67h0v-0.3h2.7v-0.3h1.6v5.3h-4.4v-4.9h-0.1v-0.2h0v-0.2h4.5v-0.1
			h-4.3v0h0v0.1h-0.1V69h0v0h5v-1.4h-4L467.8,70.3z"/>
		<path class="st0" d="M509,70.3h-2.2v-4h4.9v0h-0.2v2h-5.2v-0.8h6v2.4h-5.6V67h0.1v-0.4h3.3v4.5h-2.4V70h-1.2v-3.4h0v-0.3h1.9v0h0
			v4.2h-0.2v0h-1.7v-2.7h1.6v2.7h1.9v-4H509L509,70.3z"/>
		<path class="st0" d="M546.3,66.8L546.3,66.8l1.4-0.1v0.6h-0.3v3.5h3.7v-4.1h-3v2.9h-1v0.7H547v-2.5h-0.1v-1.2h5v0h-4v0h2.2v4.9h-1
			v-4.9h-1.6v0h1.2v0h1.5v0h-3.2v0h-0.2v0.9h-0.1v-0.8h5.9v0H547L546.3,66.8z"/>
		<path class="st0" d="M586.4,67.8v0.9h-0.1v-1.3h5.9v-0.7h-2.5v4.7h-1.9v-1h-1.2v-1.1h-0.3v-0.7h7.2v-0.7h-2.9v1.5h-4.1v-2h1.9v3.1
			h-0.2v-1.2h-0.6v-0.7h-0.8v-0.7h0.5v3.1H587v-1.9h-0.3v1.2h1.6v-4h2.6V71h-3.3v-2.2h-0.7v-1.2L586.4,67.8z"/>
		<path class="st0" d="M69.4,109.7v-2.6h-2L69.4,109.7z"/>
		<path class="st0" d="M107.2,110.6v-2.1h-0.2v-3.1h-0.6v0L107.2,110.6z"/>
		<path class="st0" d="M149,109.4h0.1v-0.8h-4.1V106h1.8v-1h-0.3v0L149,109.4z"/>
		<path class="st0" d="M185.8,108.2H185v3h2.6v-0.6h-1.9v-5.5h-0.3V105h2.6v8.8h-1.1L185.8,108.2z"/>
		<path class="st0" d="M228.1,107.1v-1.9h0v0h-2.4v6.9h7v-6.7h-5.6v-0.1h3.2v0h-1.1v-0.2h0.7L228.1,107.1z"/>
		<path class="st0" d="M265.9,110.7h5.1v-5.3h-3.7v-0.2H266V105h-0.3v7.9h-0.3v-6.4h7.2v-1.1h-5.7v6.7h3.2v-2.6h-2.9L265.9,110.7z"
			/>
		<path class="st0" d="M305.8,105.5v3.2h7.3v-2.3h-3.8v-1.2h0.1V105h-2.3v0h4.3v0h-5.4v0h-0.3v6.4h-0.7v-5.5H305v4.8h0L305.8,105.5z
			"/>
		<path class="st0" d="M349.1,109.4v-0.7h-2.5v-2.9h-0.8v0h-0.2V105h-0.1v6.2h-0.5v-5.4h0v2.1h0v1h8.9v-0.4H346V108h-0.1v0h-0.1v3.3
			L349.1,109.4z"/>
		<path class="st0" d="M390.1,106.6h-4.9v-0.7h1.4v4.4h-0.3v-1h-0.8v-0.6h0.7v-2.7H386v-0.9h-0.6v2.3h-0.3v-1.1h0v5.5h0v-0.4H385
			V105h0v0h1.9v0L390.1,106.6z"/>
		<path class="st0" d="M430.9,105.1h-4v0h0.5v0h4.4v4.6h-3.6v-2.9h-1.9v0h-1.2v4.5h4.1v-5.1h-1.7v1.8h-1.2v-1.1h5.4v-1.4h-4.7v5.1
			h-0.6v-3.9h-0.7V106h-0.4v7h0.8L430.9,105.1z"/>
		<path class="st0" d="M469.4,105.2h-1.6V105h-0.6v1.2H467v-0.9h-0.5v-0.1h-1.1v5.7h2.6V110H467v-1.8h5v-3.1h-4.1v4.8h-0.1v-1.7h-2
			v-2.8h4.6v-0.3h-1.3v0h-1.4v0h-2.3V105h-0.2v9.6L469.4,105.2z"/>
		<path class="st0" d="M508.3,109.5h-1.8v-0.9h-1v-0.4h9v1.5h-9.1v-0.9h8.9V108h-6.6v1h-2v-1h5v-1.2h-4.5v-1.6h2v-0.2h-0.1v1h2.1v6
			h-1.7v-4.6h-0.3v-0.4H508v-1.2h2.3v-0.7h-1.6v-0.2h2.3L508.3,109.5z"/>
		<path class="st0" d="M547.8,109.1v0.8h2.7v-2.7h-2.2v4.2h-1.8v-3.7h-0.6v-0.3h-0.1v-1.8h2.6v6.6h-0.9v-6.6h2.7v0.9h-2.6v-0.9h1.2
			v4.4h-0.8v-3.8h-1.3v4.7h-0.9v-3h-0.4v-0.2h-0.3V107h0v5.7H545v-0.1h0v-6.5h1.3L547.8,109.1z"/>
		<path class="st0" d="M585.9,107.8h0.1v-0.9h-0.9v-0.7h3v0.4h-1.7v-0.3h5.8v2.3h-7.1v-2.9h1.8v3.5h-1.9v-3h1v3.8h6.5v-2.9h-4.2v1.9
			h-0.7v-0.3h-2.2v-2.4h-0.2v2.5H585v0.8h7.7v0.2h-7.5v0h0V106h-0.2v4.2h6.5v-2.8h-3.1L585.9,107.8z"/>
		<path class="st0" d="M67.3,150h-0.4v-4.8L67.3,150z"/>
		<path class="st0" d="M108.1,151.2H105v-6h-0.1v1.8h-0.8L108.1,151.2z"/>
		<path class="st0" d="M146.4,147.5v-2.1h-1.7v-0.3h8v4.6h-8.2v-2h-0.1L146.4,147.5z"/>
		<path class="st0" d="M185.5,147.2h-0.4v-2.3h-1.2v7.1h4v-4.6h3.6v-1.5H184v-1.5h-0.1L185.5,147.2z"/>
		<path class="st0" d="M231.6,148.3h-3.9v-0.7h-1.2v-0.9h6.6v-2.4H226v10.4h-1.6v-9.6h-0.5v-1.1h0v0.8L231.6,148.3z"/>
		<path class="st0" d="M269.6,146.3h-5.1v0.5h-0.1v-2.5h-0.7v-0.4h1.2v-0.1h0.7v-0.1h-1.5V155h10.5v-9.1h-10.6v-0.8h4.3L269.6,146.3
			z"/>
		<path class="st0" d="M305.8,149.3L305.8,149.3l-0.1-1.4h0.7v-2.3h5.8v4.2h-4.4v-1.1h-1.7v-3.7h4.8v-1.1h-0.9v5.6h-1.3v-3.9h-3.4
			v-1.4h-0.1v2.3L305.8,149.3z"/>
		<path class="st0" d="M346.9,149.1v-2.3H345v1.2h0.6v-0.5h-1.2V145h9v-0.5H352v9.8h-4.3v-0.1h-1v-3.3h-1v-5.7h8.1v-0.7h-1.1V144
			h-0.6v-0.2L346.9,149.1z"/>
		<path class="st0" d="M387.3,151.7v-4.6h-0.5v-3h0v10.4h1.4v-5.5h-2.6v-2.7h6.3v-0.3h-5.4v-1h-0.3v8.8h-0.2v-1.8h4.6v-5.5H386V146
			h7.3v-2.2h-4.7v0H385L387.3,151.7z"/>
		<path class="st0" d="M425.7,145.6h-1.4v0h-0.3v-0.9h6.7v-0.9h-5v0h-0.1v4.9h-0.9v-2.2h7.6v-2.4h-5.5V144h-1.2v1.9h-0.6v3.9h-0.5
			v-4.5h8.7v1.3h-6.6v2.9h-0.3V148h-2L425.7,145.6z"/>
		<path class="st0" d="M468.1,149.9v-4.8h-0.9v0h1.3v3.5h-0.3v-0.1h-3.5v-3.2h-0.3v-0.9h0.2v-0.2h7.5v-0.1h-4.7V144h-2.1v6.7h6.6v-3
			h-1.7v-0.7h-6v4.8h-0.2v-4.2h-0.2v-3.6h11.7v1.5h-3.1L468.1,149.9z"/>
		<path class="st0" d="M506.8,148.6V147H505v-1.9h-0.3v3.5h6.1v2h-5.6v-3.5h-1.4v-2h0v-0.9h6.2v9.7h-5.9v-9.6h1.1v-0.4h-1.1v3.1h4.7
			v-0.6h-0.6v3.6h1.5v-4.1h-5v0.8h7.6v0.9h-8.5v-1.2h5.6v-2.6L506.8,148.6z"/>
		<path class="st0" d="M549.5,146.6v5.5h-2.9v-8.2h-1.7v4.3h-0.6v-0.7h7.6v2.2h-0.6v-3h-2v-0.8h0.1v-1.4h-2.6v-0.7h1v4.9H547v-2.4
			h-0.3v-0.1h-0.8v7.2h3.2V144h-4.2v-0.1h6.8v-0.1H544v5.9h4.4v-3h-1.2V146h-0.9L549.5,146.6z"/>
		<path class="st0" d="M591.2,143.8L591.2,143.8l-5.5,0v0L591.2,143.8L591.2,143.8l-6.3-0.1v8h-1.1v-6.5h0v1.5h0v1.7h0v-4.1h0v-0.5
			h0v0h3v0h-2.3v0H584v0h4.3v0h-3v11.1h-0.9v-10.5h8.1V144h-5.6v11.4h-2.8v-11.1h7.1v8.9H585v-1.1L591.2,143.8z"/>
		<path class="st0" d="M67.5,189.3V184h-0.3L67.5,189.3z"/>
		<path class="st0" d="M112.5,186.5h-5.8V185h-1.9v7.5h6.7L112.5,186.5z"/>
		<path class="st0" d="M143.9,192.5v-8.6h-0.7v-1.1h13.4v-0.3H143v0h4.9L143.9,192.5z"/>
		<path class="st0" d="M186,191.2v-6.1h-2.8v-0.3h-0.7v6.5h1v-3h7.5V185h-6.5v8.8L186,191.2z"/>
		<path class="st0" d="M226.5,191.6v-3.4h-0.6v2.4h-1.4V185h-0.3v-0.2h6.2v4.3h-7.2v-2.4h12.2v-0.9h-11.6L226.5,191.6z"/>
		<path class="st0" d="M269.9,190.6h-2.8v-8h-4.4v0h0v12.3h6.6v-11.2h-0.1v4.6h-2.4v-0.7h5.2v-3.8h-1.3v9.6h-8.2L269.9,190.6z"/>
		<path class="st0" d="M302.6,184.5v0.4h12V183h-9.3v-0.4H305v0h4.3v0h-6.5v0h-0.2v5.2h0v2.7h4.5v-5.7h-1.9v-1.1h-1.9L302.6,184.5z"
			/>
		<path class="st0" d="M346.6,183.9v-0.2h-2.7V183h-0.4v-0.1h7v1.3h-3.9v10.5h-1.9v-8.9h7.9v-2.4h-8.1v-0.8h0.4v2.1h-1.8v-0.8h-0.5
			v-0.5h13.4V183L346.6,183.9z"/>
		<path class="st0" d="M387.5,184.3v-0.4h-2.9v10.6h-0.5V188H384v-0.2h-0.4v-2.1h-0.4v-2h3.9v-1h0.9v7.1h-3.4v-2.1h-1.9v-3.7h4.2
			v-1.3h-1.5v-0.2h-0.7v0h10.6L387.5,184.3z"/>
		<path class="st0" d="M425.7,188.1v-2.7h4.1v1.1h-2.7v-2.3h-1v-1.1h-2.9v9.7H423v-2.4h-0.1v-5h3.4v2.3h-0.5v-4.1h-1.4v-0.3h-0.8
			v-0.9h0v0h1.5v8.5h-1.5v-6.7h5v-0.4L425.7,188.1z"/>
		<path class="st0" d="M462.7,192.3v-5.6h5.7v-2h1.9v2.3h-6.7v3.7h-0.8v-1.5h4.1v-2.7h3.2v-3.8h-1.4v-0.2h-3.5v-0.1h-0.8v0h9.6v4
			h-4.9v-3.4h-0.6v12.5h0.6v-12.4h0v-0.1h0.7v-0.5h-1L462.7,192.3z"/>
		<path class="st0" d="M512.1,185.4v-2.2h-4.3v11.1h-2.9v-10.1h1.3v4.9h2.4v-6.1h-4.3v0h-0.3v0h-1.3v8.5h10v-8.6h-8.5v-0.4h10.2v9.9
			H507v-9.8h-4.3v1.5h-0.1v0.5h0v8.3h13v-0.9h-8.4v-1.8h-2v-2.1L512.1,185.4z"/>
		<path class="st0" d="M546.6,189.8h-0.9V186h-3.2v5.6h5.1v-5.4h-1.2v-0.5h-3.2v-3h-0.5v0.5h0.1V183h4.5v3H547v-0.5h4.6V183h-2.8
			v-0.4h-4.2v0h-2.1v0h0v3.9h0v-0.4h0v-1.5h14v-1h-13.1v2.7h-0.1v-2.1L546.6,189.8z"/>
		<path class="st0" d="M588.1,185.6v-1h-2.9v-1.5h1.4v-0.3h-0.9v-0.2h-1v0h-1.6v2.9h7v5.2h-0.4v-2.9h-1.3v-3H583v6.4h-0.4v-1.4h0
			v-2.6h0v-1.4h2.6v5.3h-2.5v-5.8h0.5v1.2h6v3.2h-2.3V183h-2v-0.2h-1v2.5h5.8v-2.1L588.1,185.6z"/>
		<path class="st0" d="M68.6,233h1v-9.8L68.6,233z"/>
		<path class="st0" d="M113.3,222.9h-3.7v7h-5.8v-4.4h-1.7L113.3,222.9z"/>
		<path class="st0" d="M142.4,227.7v-0.3h-0.9V225h-0.1v3.7h0v-0.9h10.5L142.4,227.7z"/>
		<path class="st0" d="M191.5,229.5h-2.5v-1.9h0v-3.2h-2v-2.8h-1.1v5.4h-1v-2.7h-1.6L191.5,229.5z"/>
		<path class="st0" d="M226.3,222.3h1.9v-0.6h0.1v-0.1h-6.4v-0.3h-0.7v-0.1h0v0h13.4v0h-11.3v0L226.3,222.3z"/>
		<path class="st0" d="M269.6,233h-4.3v-9.4h2.6v-2.1h1.4v12.7h-2.9v-8.6h1.9V225h-4.7v-0.7h-2v-2.1h-0.3v14.3h0L269.6,233z"/>
		<path class="st0" d="M304.5,225.5h-3.3V225h0v4.9h0v-6.6h15.4v-1.8h-15.2v-0.2h5.4v6.7h-1.1V225h8.1v6.3h-8.7v-7.5h-0.8v9.7
			L304.5,225.5z"/>
		<path class="st0" d="M345.6,231.1v-4.6h-1.1v4.7h-1.4v-7.5h7.3v4.9h-7.8v-7.2h-1.1V238h-0.2v-13.3h0v-2.4h8.9v8.3h-5.4v-3.5h2.8
			v0.7h1v-1.4L345.6,231.1z"/>
		<path class="st0" d="M390.8,232.7v-9.3h-2v7.9H388v-6.2h0.2v2.8h-2.4v-1h3.1v-0.9h-4.3v-1.9h-1.2v0.1h11.8v-1.6h-10.5v7.1h-3.3
			v-0.9h5.6v-3.7h-3.1v-1.5h-2.8L390.8,232.7z"/>
		<path class="st0" d="M430.3,223h-1.2v0.4h-4.6v-0.3h10v-0.7h-10.4v-0.8h8.1V232h-6v-4.5h-1v-0.9h-1.5v-1.9h-1.3v-3.4H422v9.4h-0.7
			v-9.4h6.5v-0.1h-2.6v9.7h2.2v-3.8h-1.2L430.3,223z"/>
		<path class="st0" d="M466.5,225.8v-1.1h-0.3V224h0v6.5h3v-7h-1.3v-1.7H463v7.4h-0.3v-1.9h-0.2v0.1h0.7v-5h-1.2v11.1h14.7v-2H466
			V228h-2.7v-4.7h-0.5v-0.5h-1.2v-1.2h3.7v0.4h-1.1L466.5,225.8z"/>
		<path class="st0" d="M503.5,224.8h7.5v3.1h-2v-5h-2.5v-0.2h-1.4v-1h-3.6v11.4h9.2v-6.8h-5.2v-1.5h-0.6v-0.6h-1.3v11.5h-1.5v-0.3
			h-0.3v-5.9h7.3v0h-7.7V229h2.7v-7.6h2.3v0h-4.1v0h8.7v16h-6.9L503.5,224.8z"/>
		<path class="st0" d="M547.6,230.9v-3.1h-2.9v3.8h5.2v-1h-3.1v-1h3.5V229H549v-6.4h-7.3v12.7h2v-2.7h-1.9v-1.5h-0.2v-1.1h11.1v-0.5
			H544v-4.9h4v1h-1.8V223h4.3v6.4h-7.2v-4.7h-0.9v-1.8h4.8v10.5h-5.3V222h0.3L547.6,230.9z"/>
		<path class="st0" d="M592.6,227.4v3.7h-4.4v-6h-1.1v3.6h-2.8v-7.3h8v0h-5.9v-0.1H582v0h0v2.7h-0.3v-1.8h-0.4v-0.9h17v6.8h-11.3v2
			h-1.8v-4.8h-2v1.9h1.6v-3.2H582v1.4h-0.7v2.9h-0.1V227h2.1v-1.5h12.5v4.6H582v-7.4L592.6,227.4z"/>
		<path class="st0" d="M61.6,262.4h3.8v-0.6L61.6,262.4z"/>
		<path class="st0" d="M100.3,264.7v-2.4h12.8v-1.5H107v9.9L100.3,264.7z"/>
		<path class="st0" d="M146.2,271.7L146.2,271.7l0-6.3h-5.1v-3.1h6.9v-1.7h-6.7v17.9L146.2,271.7z"/>
		<path class="st0" d="M180.6,269h11.4v0.4h-8.5V265h3.4v-1.6h-4.5v11.4h9.7v-11.4h-6.6L180.6,269z"/>
		<path class="st0" d="M234.2,265.2v-2.1h-13.9v11.2h0v-9.2h-0.1v-3.9h0.3v6.1h8v4.2h-4.6v-3.1h-1.1L234.2,265.2z"/>
		<path class="st0" d="M265.1,272.1v-10h-4.6v11.2h18.7v-6.5H260v-0.2h0v-0.4h0V264h0V260h5.5v0h5.6v7.2L265.1,272.1z"/>
		<path class="st0" d="M308.5,265.3H302v-1.5h4.5v8.8h-6.5v-5.4h0v-6h19.3v7.7H300v-7.6H300v7.9h19.3v-6.9h-0.5v-0.2h-0.9v-0.7
			L308.5,265.3z"/>
		<path class="st0" d="M348.7,266.1v-4.4h-6.6v16.4h-0.9v-3.5h-0.1v-12.3H340v-2.1h0V260h4.7v17h4.7v-9h-7.4v0.5h-1v1.8h9.2v-3h-3.7
			v-5.1L348.7,266.1z"/>
		<path class="st0" d="M388.7,261.1L388.7,261.1l-2.1,0v-1h3.9v5.3h-7V264h7.4v6.6h-3.4v-9.2h-3.9v3.9h5.9v-1.9h-9.4v-2.6H380v-0.4
			h0v13h17.3v-12.3h-15V261h-0.2L388.7,261.1z"/>
		<path class="st0" d="M425.9,260.2v19.4h-4.3v-19.3h10v0.6h-6.1v-0.6h5.6v2.3h-4.9v-1h-3v-1.5h13v14.3h-14.9v-9.1h14.4v-3.5h-11.3
			v11.8h-3.9V272h-0.1v-11.6h-0.5v-0.4h19.3v8.6L425.9,260.2z"/>
		<path class="st0" d="M474.5,267.7h-11.4v0.2h10.5v2.7h-3.8v-1.5h-4v-6h-3.7v-0.8h-0.2v-0.8H461v-0.3h-0.5v-0.9H473V260h-8.6v4.7
			h9.7v-0.5h-14v10.3h11.1v-10.2h-6.9v10.4h-3.5v-1.4h-0.8v-11.7L474.5,267.7z"/>
		<path class="st0" d="M501.3,273H500v-7.5H500V263h0v-2.2h8.5v3.5h-5v-0.2h-0.2v-2.1h-0.8v1.2h-0.5v4.5h-1.6v-6.3h-0.2v7.4h18.5
			v-1.8h-18v-0.9h-0.1v-2h13v2.8h-10v-1.9h-2.4v-0.7h13.2V260h-10.4L501.3,273z"/>
		<path class="st0" d="M553.1,263.1v-1.2h-10.4v-1.1h-0.9v4.6h-0.7v0.5h-0.4v1.6h-0.3v-1.9h-0.1v-5h13.8v3.2h-9.5v-3.5H540v2.4h18.5
			v1.3h-17.3V260h-0.7v0h-0.1v7.5h3.2v4.8h-3.2v-4.7H540v-1.5h0v-1.8h20v-2h-10.3L553.1,263.1z"/>
		<path class="st0" d="M581.6,265.1h9.7v-1.4h-5.2v6.6h3.7v-3.9h-8.6v-1h-0.2v-0.3h0.7v-1.9h13.7v-1.8h-11.7V275h-2v-14.8h15.1v9.9
			H583v-9.9h0.6v12.7h-2.7v-10.2H580v-0.4h6.9v2.3H583v-0.2H581v5.3h-0.8v-0.3h0V268h0v-5.9H580L581.6,265.1z"/>
		<path class="st0" d="M72.1,308h-4.3v-2.1L72.1,308z"/>
		<path class="st0" d="M113.1,315.6H106v-10.8h-3.3v-4.6h-3.9L113.1,315.6z"/>
		<path class="st0" d="M149.8,307.2h-9.3v2.9h16.7v-0.6h-7v-3.9h-0.8v-4.8L149.8,307.2z"/>
		<path class="st0" d="M186.7,314.8v-14.1H186V299h-0.9v15.3h-4.5v-8.4h-1.9v-6.9h0v12.6L186.7,314.8z"/>
		<path class="st0" d="M226.2,313v-7h5.2v-2h-6.7v-2h-2v-3.3h-3.6v7.2h9v7h-3.5v-6.5h-5.3L226.2,313z"/>
		<path class="st0" d="M275.8,310.5v-9.4h-15.5v11.5h-0.9v-6.7h-0.5v6.7h-0.2v-13.5h13.5v14.6h-12.4v-10.2h-0.4v-4h-0.2v4.3
			L275.8,310.5z"/>
		<path class="st0" d="M302.3,305.7h13.7v5.7h-12.7v-11.1H302v17.7H316v-1.3h-16.6v-14.6h-0.1v7.2h5.8v-9.7h-3v-0.4h-3.3v11.6h-0.1
			v-6.7L302.3,305.7z"/>
		<path class="st0" d="M350,300.9v-1.3h-1.4v17.8h-0.8v-10.2h3v1.4H350v-9.2h-7.5v-0.5h-0.5v0h12.3v5h-7.3v8.6h-0.4v-8h-4v-2.8h6.3
			v1.6L350,300.9z"/>
		<path class="st0" d="M393,301.6h-10v-0.9h-1.8V299h-1.3v12h-0.7v-8.2h-0.5V313h0v-8.9h9.5v-3.2h-3.9V300h-3.8v10.8h-1.6v-10.1h1
			v-0.1h-0.8v5.5h15.6v-1.4L393,301.6z"/>
		<path class="st0" d="M419,306.9v3.3h0v-6.6h13.8v0H426V302h-4.5v-1.7h1.2v-0.4h6.1v-0.8H428V317h2.1v0h-4.5v-18.1h-5.2v16.5H434
			v-14.6h-11.1v16.8h-3.7v-13.1h0.7v7.7L419,306.9z"/>
		<path class="st0" d="M460.1,304.8h19.3v-5.6h-18.7v-0.5h1.2v0h-2.3v0H473v13.2h-12.3v-9.3h-0.5v0.6h-0.9v3.3h16.8v3.4h-5.1v-7.7
			h-7v1.6h-3.6v-1.3h7v-1.9h-4.3v0h-4.3v9.3h0v-7.2L460.1,304.8z"/>
		<path class="st0" d="M512.4,309.9h-13.3v-7.3h-0.2v11.7h-0.1v-10.5h13.7v4.8h-12.6v1.2h3.4V308h-3.9v-3.2h9.1v-6h-2.8v-0.1h-5.8v0
			h-0.6v0h-0.5v0h0v0.6h0V299h0v0h3.3V299h-1.4v-0.1h-1.4L512.4,309.9z"/>
		<path class="st0" d="M553.9,298.9h-13.7v8.9h-0.8v-0.1h16v-5.8h-13.9v-2.9h-0.1v-0.1h9.1V318h-8.8v-8.1h9.4V309h-10.3v-9.3h-2
			v-0.4h0v17.9h0v-11.8h0v1.9h0v-0.5h0V304h0v2.8h3.6v-3.3h10.6v-1.3h-10.2v-0.6L553.9,298.9z"/>
		<path class="st0" d="M589.2,308.1v-7.4h-4.6v-0.8h-4.2v5.5h-1.1v-3.3h10.3v7h-9.7v-7.8h5.8v11.6h-2.5v-12.4h-3.1v0h-1.2v-0.7h0
			v5.3h0.4v9.9h-0.4v-15.5h-0.1v-0.2h6.4v-0.4h-1.5v-0.1h-2.3v0h5.5v1.8h3.3v12.6h-10.6v-4.8h-0.7v-4.5L589.2,308.1z"/>
		<path class="st0" d="M69.5,347H58.5v-3.4L69.5,347z"/>
		<path class="st0" d="M116.5,352.1v-1.4H113v-6h-10.3v-6.9L116.5,352.1z"/>
		<path class="st0" d="M141.4,343.9H138v-1.3h22.9V357h-23.4v-2.9h0.9v-16.6L141.4,343.9z"/>
		<path class="st0" d="M177.8,349.7h19.2v-8.2h-17.7v2.5H194v-6.5h-13.7v0h13.2v0h-9.6L177.8,349.7z"/>
		<path class="st0" d="M219.7,350.8h17.1v-7.1h-4.4V355h-11.6v-7.4h-1.9v-4.4H218v7.8h17.4v-0.4h-13.6v-4.7L219.7,350.8z"/>
		<path class="st0" d="M258.9,355.6V351h-0.7v-4.2h4.7v1.2h13.9v-7.1h-18v0.8h5.8v-1.8h-5.2v-1.6h20.2v7.1h-2.8v-1.9L258.9,355.6z"
			/>
		<path class="st0" d="M308.5,353.4h-0.6v-11.1h-7.7v1.2H316v-3.8h-1.6v0h-11.6v4.9h-4v-2.2h-0.3v-0.5h8.7v15.7h-5.7v-19.4h-1.8
			v10.1L308.5,353.4z"/>
		<path class="st0" d="M349,349.5h-9.2v-11.8H338v-0.2h-0.3v11h-0.3v-7.6h0.1v-3h-0.1v-0.4h20.8v2.3h-19.6v8.1h-0.4v-0.7h-0.2v-9
			h-0.6v0.8h0L349,349.5z"/>
		<path class="st0" d="M385.5,337.7v4.6h-7.1v-3.6h-0.7v-1h15v-0.1h-11.3v0.5h-2.5v-0.2h-0.2v0h-0.2v-0.2h-0.7v19.5h7.6v-14.6h-2.5
			v-0.6h-0.5v-2.5h-2.6v-1.6h5.9L385.5,337.7z"/>
		<path class="st0" d="M423.8,357.3h-5.5v-4.2h-0.6v-12.4h-0.1v13.6h20.7v-10.2h-17.2v-3.5h13.5v10.6h-14.1v-8.1h-1v-3.1H418v18.2
			h-0.1v-18.9h17v0h-11.1v-1.7h-4v-0.2h-1v23.9h-0.4L423.8,357.3z"/>
		<path class="st0" d="M467.2,347.3v-7.6h-5.6v-1.2H458v14.8h-0.2v-3.2h-0.3v-3.8h0v-2.2h24.8v-4.3h-9.6v-1.4h-6.5v-0.3h4.8v-0.2
			h-11.8v-0.4h-1v-0.1h20.6v0h-3.9v0H458v22.1h0v-21.8h14L467.2,347.3z"/>
		<path class="st0" d="M515.3,347.8v-7.6h-5.2v-1.3h-11.7v3.3h22.3v15h-17.8V338h-0.2v13h-5v0h0v-5.9h-0.1v4.1h12.7v-7.5h-4v-1.4
			h4.2v-0.2h-6v0.5h-7v-0.2h0v-1.3h0v-0.1h0V338h0v-0.1L515.3,347.8z"/>
		<path class="st0" d="M544.5,347.6v-0.5h2.5v-3.5h-3.8v-4.1h-3.5v-1.2h19.5v6.3h-16.4V355h11.2v-2.8h-6v-14.2h-10.3v0.6h4.5v-0.7
			h-3v-0.5h-1v6.7h6.8v-2h4.5v-3.4h-5.6v-0.3h2.9v16.3h-8.9v-10h19.8V342h-16.5v-2.9h14.3L544.5,347.6z"/>
		<path class="st0" d="M582.2,351.1h11.9v-3h-13.2v-8h-2v-2.4h-0.8v-0.1h-0.1v0h-0.2v1.7h-0.1v-1.4h-0.3v23.4h12.9v-23.5h-6.8v-0.3
			h9.4v5.5h-13.4v2.2h2v1.4h-2v-2.2h-1.2v-3.9h5.7v-2H583v-0.3h-2.8v19.1h13.1v-17h-13.2v-1.6h-1.2L582.2,351.1z"/>
		<path class="st0" d="M63.6,376.7h-0.9V397L63.6,376.7z"/>
		<path class="st0" d="M100.8,385.8v-3.1h10.3v-6H97v-0.5L100.8,385.8z"/>
		<path class="st0" d="M137.9,394.3h5.9v-10.6h-7.4v-4.1h-0.2v-1.8h2.1v-1.3L137.9,394.3z"/>
		<path class="st0" d="M186.8,388.2v-9.6h-7.6v-1.4h-0.5v-0.5H178v22.4h14.9v-22.5h-9v-0.2L186.8,388.2z"/>
		<path class="st0" d="M218.9,376.9h9.1v7.9h-5.6v-6.1h-0.8v-0.8h-1.2v-0.6h-3v13.1h0v-11.6h-0.8v22L218.9,376.9z"/>
		<path class="st0" d="M268.8,376.2h-0.3v0h1v12.2h-8.6v-9.8h4.8v-1h-1V393h-1.6v-7.5h-5.6v-3.1h-0.3v-0.5h9.9L268.8,376.2z"/>
		<path class="st0" d="M315.5,382h-15.8v-4.4h1.6v24.5h-3v-24.9h-1.7v-0.1h-0.4v5.7h0v-4.2h16.4v1.8h-11.3v-0.1h-2.2v-2.8H298V377
			L315.5,382z"/>
		<path class="st0" d="M355.3,381.5h-16.8v-3.9H350v-0.2h-13v-1h-0.6v-0.1h-0.2v-0.1h0v11.6h20.2v-3.8h-6.5v-0.6h-11.4v-7.2h-1.1v0
			h-0.1v-0.1h4.3L355.3,381.5z"/>
		<path class="st0" d="M378.5,393.4v-14.3H392v-2.4h-7.5v-0.3h-7.7v-0.1h21.3v17.5h-20.6v-5.3h-0.9v-1.9h3.5v-9.5h-2.6v-0.9h-0.4
			v2.9h-0.5v15h15.2v-16.4h-14.9v-0.2h-0.7L378.5,393.4z"/>
		<path class="st0" d="M437.5,393.6v-7.7H420v7.7h11.6v-13.2H423v-2.3h13v3.1h-0.8v-5h-11.4v0h6.7v-0.1h-10.1v4.6h0v11.9h-2.3v-8.7
			H418v-0.1h6.3v3.9H420v-0.6h-0.4v-4.5L437.5,393.6z"/>
		<path class="st0" d="M463.1,378v4.3h-6.7v5.4h-0.1v-8.4h20.4v-1.9h-16.1v2.4h1v-3.1h8.2v12.7h-13.4v-8h-0.1v-2.6h24.2v3.4H472v0.2
			h-15.3V379h-0.1v19.4h10.5v-21.1h-0.2V377h-8.7v-0.1h-0.5L463.1,378z"/>
		<path class="st0" d="M511.4,385.4h-13.6v-6h0V379h3.8v-1.3h4.1v24.6h2.2v-4.3h-2.6v-5.8h-6.5v-5.5h13.3v-8.1h-7.9v20.8h-4.2v-22.2
			h-0.8v25.4h3.2v-23.6h-2.7v4.8H511v-4.2h-9.9v-1.8h8.3v-0.7h-3v-0.5h-3.7L511.4,385.4z"/>
		<path class="st0" d="M545.6,399.5v-22.8h3v15.7h-4.1v-7.5H544v-5.7h0v1.6h3.7v-4.3H543v23.3h-0.4v-17.8h-3.1v10.6h-2.1v-10.4h18.5
			v9.1h-15.8v-1.2h-2.5v-1.9h-0.2v-11.5h21.3v-0.5h-19v-0.1h-0.7v0h-0.7v0h-1.7v17.5h1.6L545.6,399.5z"/>
		<path class="st0" d="M582.5,376.8v-0.5h-3.7v17.5h-1.4v0h0v-0.9H577v-8.9h-0.6v-1.2h-0.1v-4.5h-0.1v-1.3h0v9.9h0v-2.7h0v-5.8h3.3
			v-0.6h-2V377h-0.2v-0.6h-0.4v-0.1h-0.1v14.4h22.7v-7h-19.1v-6.2h-0.9v23.1h4.3v-20.9h4.9v-1.5L582.5,376.8z"/>
		<path class="st0" d="M77,417.1v19h-9.6L77,417.1z"/>
		<path class="st0" d="M112.5,436.4v-14h-6.6v-5.8h6.2v3.7L112.5,436.4z"/>
		<path class="st0" d="M139.9,439.8V428h-1.3v-6.1h-1.3v2.1h17.1v-4.8h-4.8L139.9,439.8z"/>
		<path class="st0" d="M180.7,439.5h9.9v-0.2h-5.6v-20.7h-1.5v5.2h1.7v10.7h-2.1v-9.1h-6.3L180.7,439.5z"/>
		<path class="st0" d="M223.9,415.6h-5.2v-0.5h-0.5v22.1h-0.5v-16.6h15.2v-1.9h-9.2v-2.5h-4.8v-0.5h-3.7v-0.1L223.9,415.6z"/>
		<path class="st0" d="M268,438h-5.9v-21.4h14.8v-0.5h-15.7V416h-5.4v-0.3h22.9v-0.4h-22.1v-0.1h10.5v0h-4.7v-0.1h-5.8L268,438z"/>
		<path class="st0" d="M307.8,432h-1.5v-0.6h-4.7V430h-1.9v-2.6h4.2v-4.1h-5.7v-8h11.5v0h-11.3v8.6h-2.3v0.9h18.2v-0.1h-3.1v-5.8
			L307.8,432z"/>
		<path class="st0" d="M353.5,439.6h-0.9V430h-2.4v-6h-2.9v-4.5h-8.2V416h-2.2v-0.4h24.8v-0.1h-15.4v0.1h-4.3V426h-6v-0.5h-0.2v3.1
			h6.6v-8.5h-4.1L353.5,439.6z"/>
		<path class="st0" d="M386.8,434.3v-19.4h-3.1v0H378v0h-1.4v0h-0.1v0h8v0h-3.3v26.9h-5.4v-13.6H375v-3.7h14.7v10.7h-7.1v-11.4h-0.9
			v-8.1h-2.9v-0.3h-2.5L386.8,434.3z"/>
		<path class="st0" d="M422.5,415.1h-0.4V415h1.9v0h5.9v0h-5.4v22.3h-1.1V419h7.1v-3.1h-10.1v8.8h-4v-6.2h1.1v-0.1h-2.3v10.9h-0.1
			V425h26.5v-6.2h-25.5v-2.4h-1v-0.8h-0.1L422.5,415.1z"/>
		<path class="st0" d="M471.3,433.8v-18.1h-16v26.8H455v-4.2h0v-22.7h0v23.8h15.4v-18.9h-14.9v3.9h3.5v-7.2h20.6v13.1h-13.7v-2.6h-9
			v-6.3h-1.1v-0.8h17.9v16.7h-3.5v-11h-13.7v-4.9h15.4v-6h-15.6L471.3,433.8z"/>
		<path class="st0" d="M497.6,423.4v9.4H522v-5.1h-26.8v-6.9h19.1v-1.4h-15.1v-3.7h21.3v-0.8H517v20.8h-15.7v-15.3h-3.4v-4.4h9.1v-1
			h-2.4v0h-0.6v1.1h-5.5v-1h-1v-0.1h2.4v0h-1v0h18.3v0h-14.7v25.4L497.6,423.4z"/>
		<path class="st0" d="M558.1,437.7h-21.6v-15.8h-1v-0.8h7.5v-5.3h4.9v-0.2h-12.4v-0.2H556v26.1h-7.9v-7h-2.5v-1.4h-7.7v-0.7h4.2
			v-3.5h12.2v-4.4h-14.8v-8.1h-2.4v26.1h21.5v-5.4h-20v-20.8h-0.1v9.1h10.2v4.1h0v-14.1H543v-0.2L558.1,437.7z"/>
		<path class="st0" d="M599.4,441.3h-21.5v-25h-0.4v12.9h-0.1v-5.4h19.4v-3.8h-17.2v5.2h-1.3v-2.5h-0.2v-4.4h-1.3v9.6h-1.1v-8.2
			h-0.4v-2.9h-0.1v-1.1H575V415h-0.1v0h3.5v-0.1h17.7v0h-2.9v0h-6.7v21.5h-6.9v-14.2h15.8v-2h-19.1v-4.8h-0.3L599.4,441.3z"/>
		<path class="st0" d="M56,476.1v-12.2h-0.4L56,476.1z"/>
		<path class="st0" d="M94.6,461.1h-0.7V459h-0.3v-4.6h0L94.6,461.1z"/>
		<path class="st0" d="M157.6,469.5V456H142v26.7h-0.3v-24.9h9.6v-0.6h-0.1L157.6,469.5z"/>
		<path class="st0" d="M177.7,474.4v-2.8h4.6v-5.5h-4.1v-1.9H177v-8.4h18.2v24.1h-16.9v-22.7L177.7,474.4z"/>
		<path class="st0" d="M232.7,481.1v-0.2h-4.4v-16.6h-14.5v-5.4h27v15.4H215v-8.8h14.2v-4h-0.7v-0.1h3L232.7,481.1z"/>
		<path class="st0" d="M266.6,474.4v-15.6H259v-4.2h-0.5v9.4H258v-8.6h11.9v-0.5h-3.8v9.4h-7.5v-4.1h11.6V460h-3.1v-5.4L266.6,474.4
			z"/>
		<path class="st0" d="M315.4,483.3h-9.9v-25.4h-9.3v-2.9h7.1v0.6h-6.1v28h19.3v-28.8h-13.7v-1h-5.2v-0.1h-0.6v-0.1h12.6v17.4h-9.1
			v-12.6L315.4,483.3z"/>
		<path class="st0" d="M357.6,470.3h-16.7v-6h-6v-6.9h29.7v-3.1h-9.1v29.9h-9.8v-29.4h2v10.5h-1.8v-8.1h-9.5v-0.5h16.1v-0.4h-7.3
			v-1.7h-5.8V454h-3.5L357.6,470.3z"/>
		<path class="st0" d="M400.9,483h-16.2v-28.8h-9.4v25.4h-0.2v-22.5h25.6v-0.5h-0.2v10.5h-25.7v-11.7h-0.8v21.9H374v-18.7h-0.3v18.1
			h18.5v-18.7h-7.1v-3h-10.8v-0.7h-0.3v5.8L400.9,483z"/>
		<path class="st0" d="M432.9,462.5h-9.2v-7.3h-9v-0.6h16.4v-0.5h-11.3v23.3h-3.4v-20.6h-2v-0.4h-0.4v3.9h13v-4.2h-9.3v8h8.9v-4.5
			h-10.9V472h16v-18.2h-0.4v-0.1h-16.4v10.8h-1.1L432.9,462.5z"/>
		<path class="st0" d="M457.9,475.6v-5.9h11.5v-1.6h-5.5v-12.5h7v3.7h-6.1v-4.6h-1v19.7H456v-18.9h11.5v14.4h-13.3v-6.6h-0.4v-2.6
			h-0.1v-6.8h32.4v31.3h-1.9v-9.6h-11v-12.2H462v-0.4h0.2v6.6h-5.1L457.9,475.6z"/>
		<path class="st0" d="M502.3,481h-1.7v-15.9h7.3V465h-11.6v-0.7h22.3v4.6h-20.1v-7.3h14v-5.7h-10.8v-1.5h-5.8v23h-1.3v-13h28.9
			v-7.3h-28.7v-2.7h-0.1v19.4h7.3v-8.6h-3.1v-4.2h6v4.8h-9.3v-5.9h10.4v-4.2H494L502.3,481z"/>
		<path class="st0" d="M547.7,478.5H544v-22.9h10.3v-1.8h-17v-0.1h-1.1v24.2h4.8V460h-5.2v-2.2h-0.2v23.6h-0.3v-25.6h-0.1v23.1h10.1
			v-16.4h-1.1V457h-9.7v6.3h-0.3v10.1h29.5v-13.6h-12.3v8.2h-6.2v2.1h-1v-0.8h-7.5v-13.2h-3V454L547.7,478.5z"/>
		<path class="st0" d="M601.3,462v-0.4h-26.4v-2.4h16.3v14.5h-8.4v-15.2H575v9.3h-0.8v-11.3h22.2v-2.7h-13v2h-8.9v4.4h-0.5v2.1h-0.4
			v-1.2h0v11.3h5.6v-18H576v-0.6h-2.2v0h-0.2v-0.1h0v0h0V485h0v-30.8h17.5v-0.5h-4.7v22.5L601.3,462z"/>
		<path class="st0" d="M55,517.6h-0.9V496L55,517.6z"/>
		<path class="st0" d="M108.7,504.8h-3.3V503h-0.9v-4.4h-9.1L108.7,504.8z"/>
		<path class="st0" d="M137.7,521.6h14.9v-24.1h-12.5V496h-4.5v6h7.7v3.9L137.7,521.6z"/>
		<path class="st0" d="M173.4,518h-0.6v-10.7h-0.2v-14.7h-0.1v0h-0.1v-0.1h22.7v-0.1h-13.9L173.4,518z"/>
		<path class="st0" d="M235.7,520.9h-16.3v-9.7H218v-0.8h-4.1v-11.8h1.8v9.7h2.1v-6.3h23v8.1h-0.9v-11L235.7,520.9z"/>
		<path class="st0" d="M283.5,499.7h-30.5v-2.4h-0.1V496h-0.4v2.1h0v-5.4h21.3v15h-16.4v-13.7h-2.5v20.5h-2.2v-9.8h0L283.5,499.7z"
			/>
		<path class="st0" d="M316.6,515.4v-18.8h-5.4v-0.4h-17.7v-0.6h-0.8v12.9h-0.1v-8.9h-0.2v-3.4h-0.1v22.9h1.3v-24h-0.9v-2.5h1.3
			v-0.1h31.2L316.6,515.4z"/>
		<path class="st0" d="M350.4,499.2h-12v-3.9h-3.8v10h-0.1v-9.6h5.3v22.6h-2.1v-19.3h-2.8v-0.1h-0.4v-6.2h7.8v27h-8.4v-10.3h11.5v-3
			h-3v-5.8h-4.8L350.4,499.2z"/>
		<path class="st0" d="M395.2,522.3h-8.8v-24.5h-10.8v18.5h19.8v-4.6H374v-14.6h10.7v21.8h8.1v-26.3h-1.2v0H386v5.9h-3.8v-5.5h4v8.5
			H381v-4.8h-7.9v8.8h15.6v7.2L395.2,522.3z"/>
		<path class="st0" d="M428.9,502v-7.3h-5.7v27H421v-12h-7.2v-8.6h-0.9v14.6h-0.1v-3.5H426v-6.6h-1.9v-11.4h-6.1v16.5h-2.5v-9.3h-1
			v10.6h29.3v-8.9H413v11.6h10v-2h-10.2v-12.2L428.9,502z"/>
		<path class="st0" d="M452.6,495.1v3.8h-0.2v-1.3h0v-4.8h18.4v24.3h-17.4v-22.4h26.2v15.3h-10.2v-14H460v-1.2h18.8v-1.1h-24.6v28.3
			h-1.6v-28.3h-0.1v-0.1H466v29h-3.1V519H462v-24.1h2.7v20.8h-7.9L452.6,495.1z"/>
		<path class="st0" d="M509.2,499.2v20h0.2v-19.7h-5.6v3.8h-6.5v-3h6.6v5.3h-9.8v-2.9h-0.9v-0.9h-0.8v-3.8h32.9v-4h-31v2.9h10.3
			v17.3h10.3v-8.7h-20.3v-3.1h-0.2v-9.2h5.8v2.8h14.9v-1.1h-18.8v-1.2h13.3v12.5L509.2,499.2z"/>
		<path class="st0" d="M542.1,495.5V495h9.8v-0.8h-8.2v23.2h11.2v-16h-10.4v-3.2h-11v2.8h30.5v-0.9h-6.6v-7.3h-18.3v27.5h-0.2v-12.9
			H538v-4.4h-1.2V501h-0.1v5.7h9.3v-10.3h-11.9v21.2h-0.3v-7.5h27v-8h-23.9V500h12.9v-3.9h-4.3L542.1,495.5z"/>
		<path class="st0" d="M587.5,499v-1.2h-12.9v14h-0.2v-11.6h16.6v-2.2h-5v17.6h-12.5v-15.2H573v-1.2h-0.2v-2.6h-0.2V512h7.9v-14.2
			h-6.7v-4h23.4v-0.2h-18.7v12.2h-0.1v-4.2h15.7v13.2h0V505h-20.9v-0.7h0.4v-7.9h-0.6v17.2h4v-14.1h21.6v-2.2L587.5,499z"/>
		<path class="st0" d="M59.9,535.6v28.2h13.4L59.9,535.6z"/>
		<path class="st0" d="M99.9,552v-12.8h-4.4v-5.9h10V532L99.9,552z"/>
		<path class="st0" d="M153.4,543.4h-15.2v9.2h-5v-5.2h-0.4v-9.5h-0.6v-3.8L153.4,543.4z"/>
		<path class="st0" d="M194.4,565.2v-33.6h-13.5v14.4h-6v-13.6h-1.6v-1.3h-2v22H207v-15.2L194.4,565.2z"/>
		<path class="st0" d="M212.3,534.1v-1.2h-0.8v28.3h-0.4v-4.5h0v-16.8h0v-8.8h5.4v0h-1.1v0h3.7L212.3,534.1z"/>
		<path class="st0" d="M285,563.1v-10.9h-2.9v-13h-25.3v-0.1h17v21.1h-8.5V553h-8.2V537h-4.4v-0.6h-0.7v-1.2h25.1v14.2L285,563.1z"
			/>
		<path class="st0" d="M327.6,536.7h-35.3v-3.9h-0.6v24.9h-0.2v-11h-0.4v-10.7h12.7v-0.5h3.2v-3.3h-4.1v9.4h0V541h2.5v-5.2h4.9v27.9
			L327.6,536.7z"/>
		<path class="st0" d="M353.1,547.2h-0.9v-6.7h-1.1v-3.7h-19.8v-0.1h3.3v-2.5h3.3v-1.4h10.6v2.3H335v14.5h-0.3v-3.2h-3.1V545h-0.4v1
			h0v-0.5h3.9L353.1,547.2z"/>
		<path class="st0" d="M398.6,531.6v-0.5h-20v1.3h-5.8v-0.6h-0.1v34.9h9.4v-33.9H381v-1.1h-4.2v21.1h-1.5v-15.6h-1.1v15.9h-2.2v-6.7
			h36.1V544h-20.2v-1.2h-15.1V540h8L398.6,531.6z"/>
		<path class="st0" d="M432.9,534.4v13.2h-19.6v-7H413v-5.6h6.6v8.7h-2.8v-10.9h-3.4v-1.6h11.4v22.6h-9.4v-16.8h-1.1v-3.7h-0.4v25.8
			h11.4v-25H414v29.5h-2.4v-31.5h-0.1v-1h29.7v6.5L432.9,534.4z"/>
		<path class="st0" d="M483,567.3v-14.5h-30v-7.2h23.4v-4.2h-15.8v-2h-7.2v-1.7h-2v23.3h-0.1v-24.9h2.6v-3h-2v19.2h19.8v-6.3H453
			v-11.4h19.1v-1.4h-4.4v-0.1h-3.6v-1.4h-12.7v-0.5h8.9v0h3.7L483,567.3z"/>
		<path class="st0" d="M509.7,564.8H493v-18.5h9.6v-5.6h-7.2v11.9h-1.1v-19.2h-0.6v-1.1h-2.3v31.3h17.4v-31h-0.5v28.3h-12v-27.4
			h-0.9v-1.4H492v-0.2h13.4v34.4h-7.2v-33.9h-5.1v-0.2h10.7v1.3h-4.4v15.8h11.7v-0.7h-7.9L509.7,564.8z"/>
		<path class="st0" d="M542.7,534.6L542.7,534.6l-8.2,0v-1.8h3.4v28.4h11.8v-14.1h-16v-1.6h26.3v-13.9h-19.8v-0.1h-6.9v0.5h27.5v22
			h-13.2v-18.3h-15.9v-0.2h-0.4v-2.5h0v-1h0v28.6h0v-13.6h34.8v-10.1h-32.2v-0.3h-1.2v-4.8H552v31.5h-6.4L542.7,534.6z"/>
		<path class="st0" d="M598.3,561.4h-21.4v-25.9h15.9v15.7h-8.9v-2.9h-3.5v-16.2h-0.9v6.5H572v7.9h25v-9.1H582v17.6h-5.6v-8.4h18.8
			v3.7h-4.9v-15.2H587v-1h-2.2v29.7h-9.1v-28.9h-4.4v-0.3h0v5.1h0v-4.7h-0.1v-3.6h0v32.9h0v-30.9h18.3L598.3,561.4z"/>
		<path class="st0" d="M54.2,606v-29.6h-1.7L54.2,606z"/>
		<path class="st0" d="M116.2,605.6v-34.8h-9.3v8.6H96.1v-3.1L116.2,605.6z"/>
		<path class="st0" d="M165.4,581.6v-5.3h-2.8v21.8h-26.7v-21.4h-2.5v-4.7h-1.4L165.4,581.6z"/>
		<path class="st0" d="M180,608.1v-38.2h-0.4v36.3h-8v-35.3h-1.5v16.9H190v-12.6h-12.7v-4.8L180,608.1z"/>
		<path class="st0" d="M228.7,589.9h-7.9v-5.6h-1.7v9.5h6v-20.2h3.6v-3.3H221v29.6h-1.1v-23h-8.4v-1.7L228.7,589.9z"/>
		<path class="st0" d="M287.1,601.9V575H272v11h-6.7v-5.1H265v17.7h-10.2v-6.9h-1.1v-3.7h-2.1v-3.5h34.2v-7.9h-20.2v-0.3
			L287.1,601.9z"/>
		<path class="st0" d="M298.3,607.6h12.8v-37.4h-10V570H291v0h-1.1v35.6h1.3v-35.3h11.4v27.3h-2.9V596h-7.6v-19.8h12.8v-1.6h-1.8
			v-2.2L298.3,607.6z"/>
		<path class="st0" d="M335.9,594.9v-14.3h-0.1v-4.5h0v-3.6h25.3v-2.2h-29.5v12.8h-0.7v-6.9h11.7v24.5h-3v-24.1H334v-1.4h-3.8v-5.1
			h-0.1v-0.2H330v26.8L335.9,594.9z"/>
		<path class="st0" d="M390.5,584.8v-10.9h-5.3v-1.8h-13.5v5h27.8v25.2h-17.3v-31h12.3v-0.7h-19.8v-0.1h-4v-0.4H388v30.7h-3.7v-30
			h11.2v10.6h-21V576H399v-4.3h-3.8L390.5,584.8z"/>
		<path class="st0" d="M419.9,596.9h-3.6v-21.7h-5.2v-0.6h11.8v-3h-7.3v36.8h-0.1v-6.9h4.2v-28.8h-4.3v17.1h-3.6v-14.4h29.9V593h-7
			v-5.3h-18.6V578h-5.4v-3.6h35.2v4h-33.1v21.3h-1.5L419.9,596.9z"/>
		<path class="st0" d="M456.5,579.8v-7.2h-1.8v-2.7h-2.5v0h7.2v32h2.6v-25.4h-2.4V574h-0.4v-1.5h1.4v-1.9h-9.6v13.1h36.3V578h-16.8
			V572h-17.1v-2h29.4v-0.1h-13v0h-18.9v29.2h16.9v-11.7h-3L456.5,579.8z"/>
		<path class="st0" d="M506.5,590.9v-7.6H499v-13h14v-0.1h-12.6v-0.3h-3.3v0h-5.4v0h-1.5v0H509v37.9h-1.3V572h-8.3v9.5h-9.2v-7.6
			h26.3v7.8h-17.8v-0.6h-6.4v-9.2h-1.4v-1.7h-0.5v-0.3h30.3v0h-26.1v-0.1L506.5,590.9z"/>
		<path class="st0" d="M534,590.7h-3.6v-9.1h38.7v-9.3h-23.8V572h7.7v-2.1h-11.1v4h15.2v0.8h-18.9v-2h-4.3v-2.3h-2v36.2h11.7V603
			h5.9v-9.8h1v-2.1h-19.5v-13.8h1.6v12.5h-1.4V583h27.4v-2.6h-21V579H534v-0.5h30.8v-7.1L534,590.7z"/>
		<path class="st0" d="M608.1,602.5h-36.7V585H571v-11.7h-0.9v5.6h13.7v7.2h-1.7v-15.7h-3.3V570h-1.4v33.2h-7.5V572h0v-0.7h33.5V589
			h-32.2v-15.6h-0.3v-0.9h6.2v15.4h-4.3v-9.8h-2.7v-3.6h-0.2v24.9h21.7v-21h-8.8v-3.5h-4.6v-0.2h23v0h-26L608.1,602.5z"/>
		<path class="st0" d="M60.3,614.8v-5.2H50.1L60.3,614.8z"/>
		<path class="st0" d="M96,629.6v-11.1h-1.3v10.3H93v-7L96,629.6z"/>
		<path class="st0" d="M139.3,649.8v-3.4H136v-30.7h-6.3v3.8h17.5v-10.7h5.4L139.3,649.8z"/>
		<path class="st0" d="M175.3,619.9H169v-11.1h-0.3v0.5h23.5v-0.4H176v11h-1.2v18.1h-0.7L175.3,619.9z"/>
		<path class="st0" d="M211,619.6h34.4V637h-8v-25.5h-23v-0.3h12.7v-1.3h-14.4v-1.2h10.2v14.5h-9.3v-12L211,619.6z"/>
		<path class="st0" d="M254.7,647.4h1.4v-1.4h-6.2v-32.3h-0.7v24.8h-0.6v-17.8h-0.1v-1.6h0v5.6h11.2v4.7h5.4v-19.8h-1.2L254.7,647.4
			z"/>
		<path class="st0" d="M317.9,643.2h-25.6v-32.4h-2.8v26.5h29.3v-5.9h-24.7v-20.7h-2.6v-1.2h12.1v-0.8h-14.9v0h-0.1v17.2h-0.1v-10.5
			h0v-5.1L317.9,643.2z"/>
		<path class="st0" d="M354.9,619.2v6h-11.6v-11.7h4.6v2H340v-6.2h14.6v-0.6h-11.1v33.1h-8.4v-31h-4.4v15.6h11.8V620h8.1v-9.2h-14.8
			v12.6h21.5v-4.1L354.9,619.2z"/>
		<path class="st0" d="M406.2,644.5h-33.8v-34.6h-0.3v-1h-2.2v-0.2h15.6v-0.1H380v28.3h-6.9v-23.3h26.1v2.7h-23.7v12h0.3v-2.8h11
			v5.5h-16.5v-14.9h-0.9v23.2h-0.4v-28.8L406.2,644.5z"/>
		<path class="st0" d="M425.3,640.8v-14.3h-1.6v2.2h2.1v-2.7h-5.3v-12.3H419v16.6h-7.4v-21h-0.5v-0.3h30.7v42H414v-42.2h-3.3v0h-0.1
			v-0.1h-0.1v32.2h-1.1v-22.5H446v4.8h-32.2v0L425.3,640.8z"/>
		<path class="st0" d="M478.2,648.6v-38.9h-17v-0.4h-1.3v-0.1h-2v-0.3h4V626h-1.1v-15.6h2.7V646h-7.8v-15.5h-3.3V623h-0.5v-12.3h0.3
			v-2h-1.7v25.2h-0.8v-13.3h-0.9v2h38.5V618h-37.8v-4.9h-0.1L478.2,648.6z"/>
		<path class="st0" d="M530.6,617.2v-0.5h-1.7v21.5h-12.7v-13.7h0v3.3h-17.9v-19.1h5.2v0h8.3v14.3h-7v-3.9h-3.3v-6.8h-10.3v-3.6
			h14.3v-0.1h-11.8v0H492v13.2h-1.8v16.1h25.5v-27.7h-0.9v-1.4h-18v-0.1h-4.8v0L530.6,617.2z"/>
		<path class="st0" d="M572.3,633.4h-28.6v-7.6h-3.2v-5.5h-5.6v0.2H530v4.1h-0.3v-6.1h-1v15.3h7.4V613h-1v-4.1h-4.3v-0.2H565v37.8
			h-0.3v-23.6h-6.4v8.7H530v-15.5h18.5v7.4h-5.9v-3.2h-7.6v-11.5h10.9v-0.1h5v0h-8.2v4.7L572.3,633.4z"/>
		<path class="st0" d="M569.3,632.4H569v-21.8h-0.1v-0.3h33V609h-8v-0.2h-1.6v16.6h-17.9v-3.6h-1v-6.6h-0.2v-3.3h33.6v-1.2h-37.1
			v-0.5h-0.2v31.4H569v-26.4h-0.1v-3.3h-0.1v1.1h12.3v21.6h-6.5v-14h-0.8v-1.9h17.6v19.7h-11.6v-29.7h-10.5v-0.1h17.9L569.3,632.4z"
			/>
		<path class="st0" d="M62.4,665.9v-6.4h-3L62.4,665.9z"/>
		<path class="st0" d="M106.1,654.6v26h-0.5V667h1.5v-12.4L106.1,654.6z"/>
		<path class="st0" d="M150.8,662.8v-14.1H137v-0.3h-5.1v12.5h-0.5v-3.7h14.4L150.8,662.8z"/>
		<path class="st0" d="M197.9,676.3h-10V668h2.9v0h-0.6v-5.1h-9.9v-14.9h18.8v0.6h-24.7L197.9,676.3z"/>
		<path class="st0" d="M244.3,671.1v-18.4h-29.2v24.4h-5.9v-16h-1.4v-2.3h-0.4v-0.4h-0.1v-1.1h5.4v-7.9h-3.4L244.3,671.1z"/>
		<path class="st0" d="M266.9,650.5v38.4h-11v-39.8h-2v-1.3h14.9v33.8h-12.5v-30.9H270v-1.9h-16v-1.3h2.8v-0.1H249v0L266.9,650.5z"
			/>
		<path class="st0" d="M304.5,687.5h-13v-29.2h-2.3v-7.7h19V650h3.5v-1.4h-20v-1.2H291v0h11.5v0h-7.6v0h0.4v0h-7.7v36.3L304.5,687.5
			z"/>
		<path class="st0" d="M356.8,647.5v21.7h-16.2v-3.5h7.8v-5.2h1.2v-9.1h-20.5v6.1h1.1v1.1h-1.9v-10.9h-0.2v-0.3h13.3V658h-13.4v-3.5
			h-0.8v-3.1h28.1v-2.2L356.8,647.5z"/>
		<path class="st0" d="M386.5,678.2h4.9v-5h-16.5v-23.7h0.8v-1.3h-5.9V670h23.1v-20.1h-22v22h4.6v-13.1h-3.2v-0.5h-0.9v-5h-2.8v-0.6
			h29.8V650h-29.9v20.4h9.5v-9.1L386.5,678.2z"/>
		<path class="st0" d="M417.8,681.5v-25.3h-2.5v1h-5.7v-3.7h-0.8v-0.2h39.9V651h-41.1v-3.6h2v10.2h-1.2v-8.8h-0.9v22.5h-0.1V668h0
			v-11h0v-4.5h34.1v9.4h-30.1v13h26.8v-11L417.8,681.5z"/>
		<path class="st0" d="M469.1,673.3h-18.5v-6.2h8.7v-12.7h13.1V654h-10.1v15.8h-14.5V655h34.7v14.3H448v-7.9h-0.6v13.2h36.2v-26.1
			h-31.9v-0.4h24.6v3.5H472v0h-10.5v-2.8h2.6v-1.3h-0.9V672h-9.8v-5.1L469.1,673.3z"/>
		<path class="st0" d="M488.9,654.9V685h37.4v-36.8h-36.4v-0.7h0v0H507v0H503v12.6h-15.3v-10.7h-0.1v-0.8h-0.2v11.8h0v-6.4h36.3
			v-2.7h-18.1v-1.7h-16v33.8h29.1v-31.5h-19v-3.3h-2.1v26.9h19.1v-15.6h-14v12.5L488.9,654.9z"/>
		<path class="st0" d="M540.9,666.3v-4.7h-4.6v-7.8h-1.4v-1.2h-7.5v5.9h24v-10.8h-3.7v-0.1H530v0.2h32v-0.1h-27v32.8h-5V677h-1v-25
			h-0.8v6h-0.4v-9.7h-0.2v-0.7H559v27.6h-16.1v-14.8h6.8v-5.4h-6.4v-6.8h-5.6v-0.5h-9.9L540.9,666.3z"/>
		<path class="st0" d="M577.4,688.7v-37.6h-1.3v-2.8h14.6v29h-15v-25.7h27.4v34.2h-25.5v-26.9h-4.2v-3h30v15.3h-32.4v-11.8h32.5
			v10.9h-29.5v-17h-4.9v19.8h39.4v-17.2h-31.8v-6.3h16.8v11.8h-25.2v-5.3h16v-6h3.9v-1.6h-5.5v13h-10.3v-5.1h23.9v-7.7L577.4,688.7z
			"/>
		<path class="st0" d="M76.1,736.9v-33.4H58.6L76.1,736.9z"/>
		<path class="st0" d="M94.9,711v-8.3h22v-15.8H87.1v-0.5L94.9,711z"/>
		<path class="st0" d="M131.5,729.1h3.5v-10.9h10.8v-30.8h7.9v-0.5h-11.3v-0.2L131.5,729.1z"/>
		<path class="st0" d="M193.7,730.6v-42.7H172v34.5h-1.6V692h-3v34.5h20.5v-26.2h-9.7v-13.5L193.7,730.6z"/>
		<path class="st0" d="M254,731.6h-9.3v-45h-21.5v26.9h-9.5v-26h-3.7v-1h-2.3v15.3h-1.1v-4.1h-0.4v21.7L254,731.6z"/>
		<path class="st0" d="M267.7,737.6V683h-9.3v34.8h-10V692h-1.2v-1.4h-0.5v34.7h15.9v-14h-8.8v-22.1h-0.6v28.7h-5v-30.6L267.7,737.6
			z"/>
		<path class="st0" d="M321,697.1h-32v17.3h25v-26.1h-19v-1.1h-3.2V731h13.6v-44.9h6.8v0h-22.4v0h-3.5v15.1h0v1.6h33.8v-6.2
			L321,697.1z"/>
		<path class="st0" d="M369.6,693.4h-40.2v-5.7h25.2v-0.4h-22.1v19.7h-2v-16.6h-3.8v29.5h-0.6v-16.1h34.8v-13.1h-26.2v4h-2.2v-5.5
			h16.8v-3h-8.3v14.2h-8.4L369.6,693.4z"/>
		<path class="st0" d="M412.2,700.2v3.3h-44.9v-14.7h-0.2v-0.9h-0.7v27h-0.2v-1.6h-0.1v-19.2h25.5v26.4h-20.7v-21.4h33.7v-7h-33
			v-0.5h29.1v-0.5H371v-1.8h21.9v9.6h-6.3L412.2,700.2z"/>
		<path class="st0" d="M411.3,697.9v8.5H423v-16.1h-10.4v-2.7h-4.5V704h-1.9v-1.6h-0.1v-16.1h18.7v0h-5.6v1.9h-10.8v-0.9h-0.9v-0.7
			h21.7v-0.5h-5.7v43.2h-5.2v-41.4h8.7v-1.6h-12.2v9.7L411.3,697.9z"/>
		<path class="st0" d="M488.2,733.3v-42.1h-4.9v-0.9h-18.3v11.9h-8.6v-6.1h23.4v5.5h-28.5v-11.1h13.9v34.9h6.3v-11.9h-7.3v-26.7H457
			v8.4h-2.5v-3.1h20.9v9.5h-23.1v5.3h6.8v-0.8h-9.9v-5.5H447v7h23.4L488.2,733.3z"/>
		<path class="st0" d="M523.6,707.6h-28.7v-4.6H491v-2.5h25.3V715h-16.5v-22.9h-9.3v-0.3h23.1v20.5h-15.7v-11.5h-10.6v0.2h29.6v0.8
			h-25.8v-14.6h-1.6v-0.9H488v42.2h17.9v-41.6h-2.8v-0.2H494v-0.1h21.3v7H493V688h-0.9L523.6,707.6z"/>
		<path class="st0" d="M554.1,722.2h-13.4v-15.7H531v-17.9h-3.3v21.9h2.2V695h-3.6v-8.8h10.9v-0.1h-9v0h28.5v29.9h-30v-16.6H563
			v-4.9h-14.4v-5.5h-18.7v0h23.8v-2h-17.3v-0.6h-3.6v-0.1h29.4v-0.1H556v29h-18v-27.4h-11.9v41.3L554.1,722.2z"/>
		<path class="st0" d="M569.8,738.1v-55.8h-0.3V720h31.7v-14.6h-30v-10.2h7.1V694h-3.2v-6.6h-0.6v-0.3h-2.1v25h22.8V694h-10.7v-3.2
			h-14.2v17.6h15.6v-4.2h-14.1v4.2h-1.5v-12.5h36v-4.2h-29.9v3.8h6.2V692h-2.4v-2.3h-5.9v32h-8.2v-22.9h19.5v-12.6L569.8,738.1z"/>
		<path class="st0" d="M54.8,737.1v6h-7.1L54.8,737.1z"/>
		<path class="st0" d="M85.8,774.6v-49.7h43.9v9.3H89.5v11.5L85.8,774.6z"/>
		<path class="st0" d="M131.9,749.5v-22.2h-6.6v37.8H163v-17.6h-33.8v-12.2H127L131.9,749.5z"/>
		<path class="st0" d="M186,753h-13.5v-21.8h-5.7v-5.7h35.8v45h-12.7v-45.6h-2.4v0h-11L186,753z"/>
		<path class="st0" d="M233.5,750.4v-9.9h-10.7v-11h-7.2V763H212V736h-6.7v25.6h-0.1v-35.5h44v44.6h-11.6L233.5,750.4z"/>
		<path class="st0" d="M288.1,765.9h-22.2v-37.4h-4.9v25.3h13.5v-13.2h-22.1v-13.3h-6.3v-1.6h-1.3v0h14.7v-0.6h9.3v-0.1h-21.2
			L288.1,765.9z"/>
		<path class="st0" d="M298.2,765.4h18.6v-38.3h-15.6v-2.2h-4.6v-0.1h-5.9v29.4h-1.9v-0.3h-3.9v-27.2h0v-0.1h18.2v8.1h13.4v22.1
			h-6.1v-23.3L298.2,765.4z"/>
		<path class="st0" d="M378.9,767.8v-10h-3.2v-2.3h-51.2v-1.8h34.4v-6.5h-15.5v-17.9h-17.9v-4.1h17.7v-0.4h-2.3v25.5h-12.7v-4.6
			h-0.3v-10.4h-2.1v-9.2h-0.5v23.9L378.9,767.8z"/>
		<path class="st0" d="M383.1,762.9h11.3v-32.1H386v3.5h-1v-1.4h-1.6v-1h-11.8v-6.6h-6.8v-0.3h20.6v2.8h-13.3v18.7h-4.5V726h39.4
			v-0.5h-17v26.2h-15.6v-26.7h-6.6V744L383.1,762.9z"/>
		<path class="st0" d="M457.3,770.4v-44.1h-23.8v-1.1h-23.1V745h7.4v3.2h0.3v-18.7h20v-3.6h-28.3v4.9H406v-0.3h-0.3v-5.3h-0.1v-0.4
			h-0.2v9.2h7.6v-1.2h6.3v-3.6h0.3v-1.9h-7.7v17.1L457.3,770.4z"/>
		<path class="st0" d="M498.3,738.2v-10.5h-29.8v8.1h-4.3v15.4h-10.1v-4.9h-0.4v-12.2h-5v-2.4H448v31.7h23.4v-27.6h-3.8v-3.1h-4.2
			v21.4h-9.5v-19.3h13.2v-2.9h2.9v-5.2h-1v16.2h-3.2v9.5H448v-5.1h-3.2L498.3,738.2z"/>
		<path class="st0" d="M498.7,770.1h-5.1v-43.6h1.8v-1.6h26.3v41.9h-32.5v-38.7h4.3v31h14.4v-32.4H489v-1.1h39.4v11.6h-19.7v-4.4
			h-6.4v13.4h6.1V744h-8.8v-17.3h-3.7v2.3h25.5v11.3h-18.9v-11.5h-9.7v-1.5h19.3v1h-19.9L498.7,770.1z"/>
		<path class="st0" d="M543.1,753.1h-12.8v-17h35.9v-6.8h-26.7v-3.6h11.7v46h-11.8v-30.9H531v-6.3h-1v-9.5h-3.6v-0.1h39.5v0h-27.1v0
			h-0.5v9h21.4v26.8h-25.9v-30.2h-8.3v-1h39.9v29.3h-33.6v-30.3h1.5v-1.6h-8.3v3.6h39.9v35.4L543.1,753.1z"/>
		<path class="st0" d="M597.6,735.7h-21.8v-4.8h-5.7V727H608v0.8h-43v-0.6h-0.2v-0.4h8.2V725h33.8v-0.2h-23.7v25h2.3v-10.1h-15.1
			v-9.6h-3.5v-3h-1.6v-1.3h7.6v1.9h11.3v-1.9h11.5v36.6h-20.4v-19.1h-5.6v-13.7h3.1v-2.7h-4.4V759h10.2v-26.3H577L597.6,735.7z"/>
		<path class="st0" d="M97.4,803.8H72.6v-16.1L97.4,803.8z"/>
		<path class="st0" d="M111.3,790.9H90.4v-3.4h-5v-19.4H85L111.3,790.9z"/>
		<path class="st0" d="M126,772.7h-1.5v20.9h48.7v-8.5h-46.5v8.7h-2.4v-8.9L126,772.7z"/>
		<path class="st0" d="M171.5,821.3v-60h-6.6v1.3h-1.1v0.3h18.1v0.9h-4.7v0h-8.8v0L171.5,821.3z"/>
		<path class="st0" d="M246.6,812.9h-37.8v-46.8h-4.4v-1.4h1.9v18.5h45.6v-8.7h-43.4v0.3h37.9v-10.5h-39.6v47.1L246.6,812.9z"/>
		<path class="st0" d="M281.7,770h-19.3v-2.4h-18.1v-1.3h-0.1v-1.9h2.6v-0.2h-0.6v27.2h-2.5V775h-0.1v-4.9h51.8V766H244L281.7,770z"
			/>
		<path class="st0" d="M308,816.3h-2.8v-52.7h-4.8v45h8.7v-31.6h-9v0.5h-8.3v24.7h-1.4V766h-5.1v33.4h32.6v-33.2h-28.8v-1.2h-1.5
			v-0.1L308,816.3z"/>
		<path class="st0" d="M335.7,772.1v-6.9h-11.3v-1.5H358v28.4h-31.7v-18.9h37.4v-7.8h-29.1v-1.7h26.5v47.1h-4.4v-37.6h-24.9v7.6h-5
			v-6.9h-0.1v19.4h-1.6v-24.5L335.7,772.1z"/>
		<path class="st0" d="M377.9,814.8v-28.2h-4.5v-0.6H369v-9.2h-3.6v-11.1h-1.7v9.8h7.9v-7.4H366v33.9h-1.5v-9.7h-0.9v-12.1h23v-7.4
			h4.5v22.8h-12.3v-11.4H366v-14h-1.6L377.9,814.8z"/>
		<path class="st0" d="M447.2,783.7H408v11.7h-2.7v-16.9h-0.2v18.3h34.5v-25.1h-27.1v-4.5h-8.8v7.2h3.9v-7.6h0v-3h-0.3v-0.2h-1.6v0
			h-1.9v14.8h-0.1v0.2h-0.1v-14.1h17.5v-0.8h1.9L447.2,783.7z"/>
		<path class="st0" d="M459,769.4v23.7h-12v-3.1h23.1v-9.5h-20v-14.7h5.8V794h6v-15.5h6.4v-10.8h-11v25h-1.9v-18.3h-7.7V790h-0.4
			v-4.7h-3.6v-2h-0.1v-14.2h16.7v-1.3h-6.8v-2.3h-9.4v-0.3h-0.1L459,769.4z"/>
		<path class="st0" d="M499.1,793.4v-10h5.8v11.9h-12.2v-17.9h-8.5v-10H484v27.3h-0.4V765h47.1v22.4h-16.3v-8.6h-17.6v-0.1h-1.6
			v-7.6h-10.5v1h-0.9v28.6h-0.1v-26.2h6.3v2.7h-2.3v-4.2h-0.8v-1.1h1.4v8.1h-2.9v-13.1L499.1,793.4z"/>
		<path class="st0" d="M579.5,806.9h-18.2v-42.6h-21.1V764h-16.3v2.4h5.9v-0.1h-0.7v27.6H525v-1.4h38.8v-14.6h-21.7v-13.2h-4.3v47.1
			h-11.1v-0.5h19.1v-44.3h-7.8v43h-9.6v-43.1h17.7v-1.5h-13.2v18.6h2.8v11.6h-7.1v-12.9h-0.1v-9.3h-3.2v-3.1L579.5,806.9z"/>
		<path class="st0" d="M575,764.9h18v-0.4h-23.8v-0.7h3.7v-0.3h2.5v0h26.1v0h-3.9v0h-6.5v0h-20.8v0h-4v0h0v0h6.8v1.7h-4.3v-1.7h-3.3
			l0,0h-1.3v11.6h6.7v-2.8h-1.3v-7h-4.1v-1.6h8V796H569v-27.8h-4.2v16.3h-0.9L575,764.9z"/>
		<path class="st0" d="M65,825v-19h0.9L65,825z"/>
		<path class="st0" d="M101,865h-8.5v-21.4h34.6v-28.3h-12L101,865z"/>
		<path class="st0" d="M135.6,815H147v-9.4h-10.8v29.3h-1.4v-28.2h28.1v8.8L135.6,815z"/>
		<path class="st0" d="M200.6,847.5v-37.7H178v8.5h-10v16.2h-4.9v-17.3h-0.3v-0.3h-0.5v-14.2L200.6,847.5z"/>
		<path class="st0" d="M248.8,816.5v-1.9h-4V835h-30.3v-32.2h-4v-0.1h-1.1V848h12.4v-41.7h-3.7v-3h-9.3L248.8,816.5z"/>
		<path class="st0" d="M264.2,847.6h-2.6v-42.3h-13.7v-2.5h18.3v42.6h4v-35.8h-1.4v28.6h-22.5v-25.7h30V806h-20.7v3.7h-0.3
			L264.2,847.6z"/>
		<path class="st0" d="M286.6,845.8v-38.1h-0.7v-5.2h43.5v-0.3h-38.5v31.4h-6.4V816h14.2v7.4H285v-14.3h6.6v-1.6h-2.5v8.3h-6.4v-7.4
			h20.4L286.6,845.8z"/>
		<path class="st0" d="M324.2,846.6V813h27v-2.1h-28.7v-6.3h6.6v16.5h-6.9v15h0v-29.1h0v-2.4h47.8v29.3h-14.8V807h-21.1v29.7H333
			v-15.2h26.7v16.4L324.2,846.6z"/>
		<path class="st0" d="M404.1,854.2H395v-46.4h-0.6v-5h-24v39.1h-3.9v-22.1h1.8v-12.7h27.1v-4.6H364v-0.1h-0.2v-0.1h16.9v0h-8.7
			v14.8h16.5v-13.3h-7.9v-0.2h-1.2v-0.6L404.1,854.2z"/>
		<path class="st0" d="M442.3,859.4h-30.4v-58.7h-5.3v58.4h-2.3v-2H419v-54.5h-12.7v0h-0.7v27.7h46.9v-8.3h-16.8v11.7h-22v-29.7
			h-9.9v28h-1v-29.4h-0.2v18.1h53.7v-9.1h-31.9v34.8h-20.8L442.3,859.4z"/>
		<path class="st0" d="M465.5,840v-19.7h-3v-12h-19.6v30.7h-0.2v-27.1h-0.4v-7.6h0v22.2h14.4v-8h20.3v-9.4h-1.6v-1.2h-30.5v-2.1h8
			v16.2h-3v9.1h-7.3V815h47.4v-5.7h-46.2v14.9h21.5v2h-2.8L465.5,840z"/>
		<path class="st0" d="M499,802.3h21.8v41.9h-16.8v-36.5H498v-5h-12.9v54.6h18.8v-54.7h-13.6v15.1h-1.8v10.1h-0.3v-0.5h0.3v-14.8h-6
			V823h48.9v-2h-46.4v-1.3h-2.2v-12.7h41.6v39.8h-39.6v-13.1H483v-26.5h1.1v39.3h-0.7L499,802.3z"/>
		<path class="st0" d="M561.3,816.6v-5.8h-32v-3.9h16v-0.8h5.6v-0.7h-23.8v-1.8h-2.3v22.7h22.5v-18.9h-24.8v-3.9h35.8v19.4h-19.7
			v-1.7h15V837h-2.5v-27.3h-14.2v-1.2h-12v6h-2.3v10.3h0v-20.2h-0.1v48.9h0v-47.7h-0.1v18.8h9.4L561.3,816.6z"/>
		<path class="st0" d="M589.9,814v8.8h-1.1v-14h-14.6v-4.7h-9.6v-0.9h18.1v14.6h-19.9V809h-0.2v28.9h-0.1v-28.2h3.3v35.9h-0.3V827
			H607v-16.2h-4.5v-7.1h-35.1v-0.3h0.7v15.4h6.6v-13.4H573v15h11.4V817h-1.1v2.5h-1.8v-15.7h-1.3v20h13.3v-4.2L589.9,814z"/>
	</g>
</g>
</svg>
