<?xml version="1.0" encoding="UTF-8" standalone="no"?>
<!-- Generator: Adobe Illustrator 22.1.0, SVG Export Plug-In . SVG Version: 6.00 Build 0)  -->

<svg
   version="1.1"
   id="Ebene_1"
   x="0px"
   y="0px"
   viewBox="0 0 800 800"
   style="enable-background:new 0 0 800 800;"
   xml:space="preserve"
   sodipodi:docname="bean.svg"
   inkscape:version="1.3.2 (091e20e, 2023-11-25)"
   xmlns:inkscape="http://www.inkscape.org/namespaces/inkscape"
   xmlns:sodipodi="http://sodipodi.sourceforge.net/DTD/sodipodi-0.dtd"
   xmlns="http://www.w3.org/2000/svg"
   xmlns:svg="http://www.w3.org/2000/svg"><defs
   id="defs161" /><sodipodi:namedview
   id="namedview161"
   pagecolor="#505050"
   bordercolor="#eeeeee"
   borderopacity="1"
   inkscape:showpageshadow="0"
   inkscape:pageopacity="0"
   inkscape:pagecheckerboard="0"
   inkscape:deskcolor="#505050"
   inkscape:zoom="0.6939359"
   inkscape:cx="403.49548"
   inkscape:cy="415.02392"
   inkscape:window-width="1440"
   inkscape:window-height="847"
   inkscape:window-x="0"
   inkscape:window-y="25"
   inkscape:window-maximized="1"
   inkscape:current-layer="Ebene_1" />
<style
   type="text/css"
   id="style1">
	.st0{fill:none;stroke:#000000;stroke-linecap:round;stroke-miterlimit:10;}
</style>

<rect
   style="opacity:0.742475;fill:#ffffff;stroke:#000000;stroke-width:1.05449;stroke-linejoin:round;paint-order:markers fill stroke"
   id="rect161"
   width="800"
   height="800"
   x="0"
   y="0"
   inkscape:label="rect161" /><g
   id="g161"
   inkscape:label="g161"
   transform="translate(-38.51513,-9.220738)">
	<g
   id="g160">
		<path
   class="st0"
   d="M 300,500 C 272.6,401.5 587,398.5 300,300"
   id="path1" />
		<path
   class="st0"
   d="M 300,500 C 128,189.3 275.7,186.4 305,300"
   id="path2" />
		<path
   class="st0"
   d="M 300,500 C 68.1,101.5 146.8,98.5 310,300"
   id="path3" />
		<path
   class="st0"
   d="M 300,500 C 128,189.3 275.7,186.4 315,300"
   id="path4" />
		<path
   class="st0"
   d="M 300,500 C 272.6,401.5 587,398.5 320,300"
   id="path5" />
		<path
   class="st0"
   d="M 300,500 C 417.1,613.6 898.3,610.7 325,300"
   id="path6" />
		<path
   class="st0"
   d="m 300,500 c 177,201.5 727.3,198.5 30,-200"
   id="path7" />
		<path
   class="st0"
   d="M 300,500 C 417.1,613.6 898.3,610.7 335,300"
   id="path8" />
		<path
   class="st0"
   d="M 300,500 C 272.6,401.5 587,398.5 340,300"
   id="path9" />
		<path
   class="st0"
   d="M 300,500 C 128,189.3 275.7,186.4 345,300"
   id="path10" />
		<path
   class="st0"
   d="M 300,500 C 68.1,101.5 146.8,98.5 350,300"
   id="path11" />
		<path
   class="st0"
   d="M 300,500 C 128,189.3 275.7,186.4 355,300"
   id="path12" />
		<path
   class="st0"
   d="M 300,500 C 272.6,401.5 587,398.5 360,300"
   id="path13" />
		<path
   class="st0"
   d="M 300,500 C 417.1,613.6 898.3,610.7 365,300"
   id="path14" />
		<path
   class="st0"
   d="m 300,500 c 177,201.5 727.3,198.5 70,-200"
   id="path15" />
		<path
   class="st0"
   d="M 300,500 C 417.1,613.6 898.3,610.7 375,300"
   id="path16" />
		<path
   class="st0"
   d="M 300,500 C 272.6,401.5 587,398.5 380,300"
   id="path17" />
		<path
   class="st0"
   d="M 300,500 C 128,189.3 275.7,186.4 385,300"
   id="path18" />
		<path
   class="st0"
   d="M 300,500 C 68.1,101.5 146.8,98.5 390,300"
   id="path19" />
		<path
   class="st0"
   d="M 300,500 C 128,189.3 275.7,186.4 395,300"
   id="path20" />
		<path
   class="st0"
   d="M 300,500 C 272.6,401.5 587,398.5 400,300"
   id="path21" />
		<path
   class="st0"
   d="M 300,500 C 417.1,613.6 898.3,610.7 405,300"
   id="path22" />
		<path
   class="st0"
   d="M 300,500 C 477,701.5 1027.3,698.5 410,300"
   id="path23" />
		<path
   class="st0"
   d="M 300,500 C 417.1,613.6 898.3,610.7 415,300"
   id="path24" />
		<path
   class="st0"
   d="M 300,500 C 272.6,401.5 587,398.5 420,300"
   id="path25" />
		<path
   class="st0"
   d="M 300,500 C 128,189.3 275.7,186.4 425,300"
   id="path26" />
		<path
   class="st0"
   d="M 300,500 C 68.1,101.5 146.8,98.5 430,300"
   id="path27" />
		<path
   class="st0"
   d="M 300,500 C 128,189.3 275.7,186.4 435,300"
   id="path28" />
		<path
   class="st0"
   d="M 300,500 C 272.6,401.5 587,398.5 440,300"
   id="path29" />
		<path
   class="st0"
   d="M 300,500 C 417.1,613.6 898.3,610.7 445,300"
   id="path30" />
		<path
   class="st0"
   d="M 300,500 C 477,701.5 1027.3,698.5 450,300"
   id="path31" />
		<path
   class="st0"
   d="M 300,500 C 417.1,613.6 898.3,610.7 455,300"
   id="path32" />
		<path
   class="st0"
   d="M 300,500 C 272.6,401.5 587,398.5 460,300"
   id="path33" />
		<path
   class="st0"
   d="M 300,500 C 128,189.3 275.7,186.4 465,300"
   id="path34" />
		<path
   class="st0"
   d="M 300,500 C 68.1,101.5 146.8,98.5 470,300"
   id="path35" />
		<path
   class="st0"
   d="M 300,500 C 128,189.3 275.7,186.4 475,300"
   id="path36" />
		<path
   class="st0"
   d="M 300,500 C 272.6,401.5 587,398.5 480,300"
   id="path37" />
		<path
   class="st0"
   d="M 300,500 C 417.1,613.6 898.3,610.7 485,300"
   id="path38" />
		<path
   class="st0"
   d="M 300,500 C 477,701.5 1027.3,698.5 490,300"
   id="path39" />
		<path
   class="st0"
   d="M 300,500 C 417.1,613.6 898.3,610.7 495,300"
   id="path40" />
		<path
   class="st0"
   d="M 300,500 C 272.6,401.5 587,398.5 500,300"
   id="path41" />
		<path
   class="st0"
   d="M 300,500 C 128,189.3 275.7,186.4 500,305"
   id="path42" />
		<path
   class="st0"
   d="M 300,500 C 68.1,101.5 146.8,98.5 500,310"
   id="path43" />
		<path
   class="st0"
   d="M 300,500 C 128,189.3 275.7,186.4 500,315"
   id="path44" />
		<path
   class="st0"
   d="M 300,500 C 272.6,401.5 587,398.5 500,320"
   id="path45" />
		<path
   class="st0"
   d="M 300,500 C 417.1,613.6 898.3,610.7 500,325"
   id="path46" />
		<path
   class="st0"
   d="M 300,500 C 477,701.5 1027.3,698.5 500,330"
   id="path47" />
		<path
   class="st0"
   d="M 300,500 C 417.1,613.6 898.3,610.7 500,335"
   id="path48" />
		<path
   class="st0"
   d="M 300,500 C 272.6,401.5 587,398.5 500,340"
   id="path49" />
		<path
   class="st0"
   d="M 300,500 C 128,189.3 275.7,186.4 500,345"
   id="path50" />
		<path
   class="st0"
   d="M 300,500 C 68.1,101.5 146.8,98.5 500,350"
   id="path51" />
		<path
   class="st0"
   d="M 300,500 C 128,189.3 275.7,186.4 500,355"
   id="path52" />
		<path
   class="st0"
   d="M 300,500 C 272.6,401.5 587,398.5 500,360"
   id="path53" />
		<path
   class="st0"
   d="M 300,500 C 417.1,613.6 898.3,610.7 500,365"
   id="path54" />
		<path
   class="st0"
   d="M 300,500 C 477,701.5 1027.3,698.5 500,370"
   id="path55" />
		<path
   class="st0"
   d="M 300,500 C 417.1,613.6 898.3,610.7 500,375"
   id="path56" />
		<path
   class="st0"
   d="M 300,500 C 272.6,401.5 587,398.5 500,380"
   id="path57" />
		<path
   class="st0"
   d="M 300,500 C 128,189.3 275.7,186.4 500,385"
   id="path58" />
		<path
   class="st0"
   d="M 300,500 C 68.1,101.5 146.8,98.5 500,390"
   id="path59" />
		<path
   class="st0"
   d="M 300,500 C 128,189.3 275.7,186.4 500,395"
   id="path60" />
		<path
   class="st0"
   d="M 300,500 C 272.6,401.5 587,398.5 500,400"
   id="path61" />
		<path
   class="st0"
   d="M 300,500 C 417.1,613.6 898.3,610.7 500,405"
   id="path62" />
		<path
   class="st0"
   d="m 300,500 c 177,201.5 727.3,198.5 200,-90"
   id="path63" />
		<path
   class="st0"
   d="M 300,500 C 417.1,613.6 898.3,610.7 500,415"
   id="path64" />
		<path
   class="st0"
   d="M 300,500 C 272.6,401.5 587,398.5 500,420"
   id="path65" />
		<path
   class="st0"
   d="M 300,500 C 128,189.3 275.7,186.4 500,425"
   id="path66" />
		<path
   class="st0"
   d="M 300,500 C 68.1,101.5 146.8,98.5 500,430"
   id="path67" />
		<path
   class="st0"
   d="M 300,500 C 128,189.3 275.7,186.4 500,435"
   id="path68" />
		<path
   class="st0"
   d="M 300,500 C 272.6,401.5 587,398.5 500,440"
   id="path69" />
		<path
   class="st0"
   d="M 300,500 C 417.1,613.6 898.3,610.7 500,445"
   id="path70" />
		<path
   class="st0"
   d="m 300,500 c 177,201.5 727.3,198.5 200,-50"
   id="path71" />
		<path
   class="st0"
   d="M 300,500 C 417.1,613.6 898.3,610.7 500,455"
   id="path72" />
		<path
   class="st0"
   d="M 300,500 C 272.6,401.5 587,398.5 500,460"
   id="path73" />
		<path
   class="st0"
   d="M 300,500 C 128,189.3 275.7,186.4 500,465"
   id="path74" />
		<path
   class="st0"
   d="M 300,500 C 68.1,101.5 146.8,98.5 500,470"
   id="path75" />
		<path
   class="st0"
   d="M 300,500 C 128,189.3 275.7,186.4 500,475"
   id="path76" />
		<path
   class="st0"
   d="M 300,500 C 272.6,401.5 587,398.5 500,480"
   id="path77" />
		<path
   class="st0"
   d="M 300,500 C 417.1,613.6 898.3,610.7 500,485"
   id="path78" />
		<path
   class="st0"
   d="m 300,500 c 177,201.5 727.3,198.5 200,-10"
   id="path79" />
		<path
   class="st0"
   d="m 300,500 c 117.1,113.6 598.3,110.7 200,-5"
   id="path80" />
		<path
   class="st0"
   d="m 300,500 c -27.4,-98.5 287,-101.5 200,0"
   id="path81" />
		<path
   class="st0"
   d="m 300,500 c 117.1,113.6 598.3,110.7 195,0"
   id="path82" />
		<path
   class="st0"
   d="m 300,500 c 177,201.5 727.3,198.5 190,0"
   id="path83" />
		<path
   class="st0"
   d="m 300,500 c 117.1,113.6 598.3,110.7 185,0"
   id="path84" />
		<path
   class="st0"
   d="m 300,500 c -27.4,-98.5 287,-101.5 180,0"
   id="path85" />
		<path
   class="st0"
   d="M 300,500 C 128,189.3 275.7,186.4 475,500"
   id="path86" />
		<path
   class="st0"
   d="M 300,500 C 68.1,101.5 146.8,98.5 470,500"
   id="path87" />
		<path
   class="st0"
   d="M 300,500 C 128,189.3 275.7,186.4 465,500"
   id="path88" />
		<path
   class="st0"
   d="m 300,500 c -27.4,-98.5 287,-101.5 160,0"
   id="path89" />
		<path
   class="st0"
   d="m 300,500 c 117.1,113.6 598.3,110.7 155,0"
   id="path90" />
		<path
   class="st0"
   d="m 300,500 c 177,201.5 727.3,198.5 150,0"
   id="path91" />
		<path
   class="st0"
   d="m 300,500 c 117.1,113.6 598.3,110.7 145,0"
   id="path92" />
		<path
   class="st0"
   d="m 300,500 c -27.4,-98.5 287,-101.5 140,0"
   id="path93" />
		<path
   class="st0"
   d="M 300,500 C 128,189.3 275.7,186.4 435,500"
   id="path94" />
		<path
   class="st0"
   d="M 300,500 C 68.1,101.5 146.8,98.5 430,500"
   id="path95" />
		<path
   class="st0"
   d="M 300,500 C 128,189.3 275.7,186.4 425,500"
   id="path96" />
		<path
   class="st0"
   d="m 300,500 c -27.4,-98.5 287,-101.5 120,0"
   id="path97" />
		<path
   class="st0"
   d="m 300,500 c 117.1,113.6 598.3,110.7 115,0"
   id="path98" />
		<path
   class="st0"
   d="m 300,500 c 177,201.5 727.3,198.5 110,0"
   id="path99" />
		<path
   class="st0"
   d="m 300,500 c 117.1,113.6 598.3,110.7 105,0"
   id="path100" />
		<path
   class="st0"
   d="m 300,500 c -27.4,-98.5 287,-101.5 100,0"
   id="path101" />
		<path
   class="st0"
   d="M 300,500 C 128,189.3 275.7,186.4 395,500"
   id="path102" />
		<path
   class="st0"
   d="M 300,500 C 68.1,101.5 146.8,98.5 390,500"
   id="path103" />
		<path
   class="st0"
   d="M 300,500 C 128,189.3 275.7,186.4 385,500"
   id="path104" />
		<path
   class="st0"
   d="m 300,500 c -27.4,-98.5 287,-101.5 80,0"
   id="path105" />
		<path
   class="st0"
   d="m 300,500 c 117.1,113.6 598.3,110.7 75,0"
   id="path106" />
		<path
   class="st0"
   d="m 300,500 c 177,201.5 727.3,198.5 70,0"
   id="path107" />
		<path
   class="st0"
   d="m 300,500 c 117.1,113.6 598.3,110.7 65,0"
   id="path108" />
		<path
   class="st0"
   d="m 300,500 c -27.4,-98.5 287,-101.5 60,0"
   id="path109" />
		<path
   class="st0"
   d="M 300,500 C 128,189.3 275.7,186.4 355,500"
   id="path110" />
		<path
   class="st0"
   d="M 300,500 C 68.1,101.5 146.8,98.5 350,500"
   id="path111" />
		<path
   class="st0"
   d="M 300,500 C 128,189.3 275.7,186.4 345,500"
   id="path112" />
		<path
   class="st0"
   d="m 300,500 c -27.4,-98.5 287,-101.5 40,0"
   id="path113" />
		<path
   class="st0"
   d="m 300,500 c 117.1,113.6 598.3,110.7 35,0"
   id="path114" />
		<path
   class="st0"
   d="m 300,500 c 177,201.5 727.3,198.5 30,0"
   id="path115" />
		<path
   class="st0"
   d="m 300,500 c 117.1,113.6 598.3,110.7 25,0"
   id="path116" />
		<path
   class="st0"
   d="m 300,500 c -27.4,-98.5 287,-101.5 20,0"
   id="path117" />
		<path
   class="st0"
   d="M 300,500 C 128,189.3 275.7,186.4 315,500"
   id="path118" />
		<path
   class="st0"
   d="M 300,500 C 68.1,101.5 146.8,98.5 310,500"
   id="path119" />
		<path
   class="st0"
   d="m 300,500 c -172,-310.7 -24.3,-313.6 5,0"
   id="path120" />
		<path
   class="st0"
   d="m 300,500 c -27.4,-98.5 287,-101.5 0,0"
   id="path121" />
		<path
   class="st0"
   d="m 300,500 c 117.1,113.6 598.3,110.7 0,-5"
   id="path122" />
		<path
   class="st0"
   d="m 300,500 c 177,201.5 727.3,198.5 0,-10"
   id="path123" />
		<path
   class="st0"
   d="m 300,500 c 117.1,113.6 598.3,110.7 0,-15"
   id="path124" />
		<path
   class="st0"
   d="m 300,500 c -27.4,-98.5 287,-101.5 0,-20"
   id="path125" />
		<path
   class="st0"
   d="M 300,500 C 128,189.3 275.7,186.4 300,475"
   id="path126" />
		<path
   class="st0"
   d="M 300,500 C 68.1,101.5 146.8,98.5 300,470"
   id="path127" />
		<path
   class="st0"
   d="M 300,500 C 128,189.3 275.7,186.4 300,465"
   id="path128" />
		<path
   class="st0"
   d="m 300,500 c -27.4,-98.5 287,-101.5 0,-40"
   id="path129" />
		<path
   class="st0"
   d="m 300,500 c 117.1,113.6 598.3,110.7 0,-45"
   id="path130" />
		<path
   class="st0"
   d="m 300,500 c 177,201.5 727.3,198.5 0,-50"
   id="path131" />
		<path
   class="st0"
   d="m 300,500 c 117.1,113.6 598.3,110.7 0,-55"
   id="path132" />
		<path
   class="st0"
   d="m 300,500 c -27.4,-98.5 287,-101.5 0,-60"
   id="path133" />
		<path
   class="st0"
   d="M 300,500 C 128,189.3 275.7,186.4 300,435"
   id="path134" />
		<path
   class="st0"
   d="M 300,500 C 68.1,101.5 146.8,98.5 300,430"
   id="path135" />
		<path
   class="st0"
   d="M 300,500 C 128,189.3 275.7,186.4 300,425"
   id="path136" />
		<path
   class="st0"
   d="m 300,500 c -27.4,-98.5 287,-101.5 0,-80"
   id="path137" />
		<path
   class="st0"
   d="m 300,500 c 117.1,113.6 598.3,110.7 0,-85"
   id="path138" />
		<path
   class="st0"
   d="m 300,500 c 177,201.5 727.3,198.5 0,-90"
   id="path139" />
		<path
   class="st0"
   d="m 300,500 c 117.1,113.6 598.3,110.7 0,-95"
   id="path140" />
		<path
   class="st0"
   d="M 300,500 C 272.6,401.5 587,398.5 300,400"
   id="path141" />
		<path
   class="st0"
   d="M 300,500 C 128,189.3 275.7,186.4 300,395"
   id="path142" />
		<path
   class="st0"
   d="M 300,500 C 68.1,101.5 146.8,98.5 300,390"
   id="path143" />
		<path
   class="st0"
   d="M 300,500 C 128,189.3 275.7,186.4 300,385"
   id="path144" />
		<path
   class="st0"
   d="M 300,500 C 272.6,401.5 587,398.5 300,380"
   id="path145" />
		<path
   class="st0"
   d="m 300,500 c 117.1,113.6 598.3,110.7 0,-125"
   id="path146" />
		<path
   class="st0"
   d="m 300,500 c 177,201.5 727.3,198.5 0,-130"
   id="path147" />
		<path
   class="st0"
   d="m 300,500 c 117.1,113.6 598.3,110.7 0,-135"
   id="path148" />
		<path
   class="st0"
   d="M 300,500 C 272.6,401.5 587,398.5 300,360"
   id="path149" />
		<path
   class="st0"
   d="M 300,500 C 128,189.3 275.7,186.4 300,355"
   id="path150" />
		<path
   class="st0"
   d="M 300,500 C 68.1,101.5 146.8,98.5 300,350"
   id="path151" />
		<path
   class="st0"
   d="M 300,500 C 128,189.3 275.7,186.4 300,345"
   id="path152" />
		<path
   class="st0"
   d="M 300,500 C 272.6,401.5 587,398.5 300,340"
   id="path153" />
		<path
   class="st0"
   d="m 300,500 c 117.1,113.6 598.3,110.7 0,-165"
   id="path154" />
		<path
   class="st0"
   d="m 300,500 c 177,201.5 727.3,198.5 0,-170"
   id="path155" />
		<path
   class="st0"
   d="m 300,500 c 117.1,113.6 598.3,110.7 0,-175"
   id="path156" />
		<path
   class="st0"
   d="M 300,500 C 272.6,401.5 587,398.5 300,320"
   id="path157" />
		<path
   class="st0"
   d="M 300,500 C 128,189.3 275.7,186.4 300,315"
   id="path158" />
		<path
   class="st0"
   d="M 300,500 C 68.1,101.5 146.8,98.5 300,310"
   id="path159" />
		<path
   class="st0"
   d="M 300,500 C 128,189.3 275.7,186.4 300,305"
   id="path160" />
	</g>
</g></svg>
